{"glyphs":{"0":{"ha":806,"x_min":74,"x_max":732,"o":"m 403 -17 q 158 100 243 -17 q 74 438 74 217 q 158 775 74 658 q 403 892 243 892 q 648 775 564 892 q 732 438 732 658 q 648 100 732 217 q 403 -17 564 -17 m 403 81 q 571 171 514 81 q 628 438 628 261 q 624 520 628 482 q 614 592 621 558 l 224 190 q 403 81 281 81 m 192 283 l 582 685 q 403 794 525 794 q 235 704 292 794 q 178 438 178 614 q 181 356 178 394 q 192 283 185 317 z "},"1":{"ha":806,"x_min":90,"x_max":721,"o":"m 90 0 l 90 94 l 354 94 l 354 708 l 149 550 l 103 611 l 388 883 l 457 883 l 457 94 l 721 94 l 721 0 l 90 0 z "},"2":{"ha":806,"x_min":106,"x_max":701,"o":"m 106 0 l 106 89 q 165 339 106 250 q 361 467 225 428 l 471 497 q 565 547 533 515 q 597 639 597 579 q 547 756 597 717 q 404 794 497 794 q 160 700 268 794 l 108 783 q 247 866 176 840 q 401 892 318 892 q 622 825 543 892 q 701 635 701 758 q 653 486 701 543 q 497 399 604 429 l 388 368 q 283 319 322 350 q 227 233 244 288 q 208 94 210 179 l 701 94 l 701 0 l 106 0 z "},"3":{"ha":806,"x_min":94,"x_max":707,"o":"m 101 -17 l 100 78 q 392 98 282 78 q 553 162 503 118 q 603 275 603 206 q 551 374 603 349 q 400 399 499 399 l 240 399 l 240 493 l 350 493 q 513 533 457 493 q 568 651 568 572 q 520 758 568 721 q 382 794 472 794 q 143 715 250 794 l 94 799 q 386 892 221 892 q 597 833 522 892 q 672 664 672 774 q 557 471 672 526 l 557 468 q 669 401 632 450 q 707 271 707 353 q 647 105 707 168 q 453 13 586 42 q 101 -17 321 -15 z "},"4":{"ha":806,"x_min":50,"x_max":758,"o":"m 496 0 l 496 204 l 50 204 l 50 282 l 406 875 l 518 875 l 174 299 l 496 299 l 496 613 l 599 668 l 599 299 l 758 299 l 758 204 l 599 204 l 599 0 l 496 0 z "},"5":{"ha":806,"x_min":94,"x_max":700,"o":"m 96 -17 l 94 78 q 383 100 272 78 q 544 169 493 122 q 596 292 596 217 q 554 394 596 361 q 422 428 513 428 q 207 371 306 428 l 125 407 l 178 875 l 665 875 l 665 781 l 261 781 l 228 476 q 442 525 328 525 q 635 465 569 525 q 700 289 700 404 q 639 115 700 182 q 444 16 578 47 q 96 -17 311 -15 z "},"6":{"ha":806,"x_min":89,"x_max":722,"o":"m 418 -17 q 177 88 265 -17 q 89 386 89 193 q 233 756 89 626 q 660 892 378 886 l 664 797 q 325 704 440 790 q 194 447 210 618 l 197 447 q 443 550 307 550 q 590 515 528 550 q 688 419 653 481 q 722 275 722 357 q 684 122 722 188 q 577 20 646 57 q 418 -17 508 -17 m 421 81 q 563 133 508 81 q 618 272 618 185 q 567 405 618 356 q 426 454 517 454 q 300 424 358 454 q 193 333 242 394 q 260 148 200 215 q 421 81 319 81 z "},"7":{"ha":806,"x_min":90,"x_max":714,"o":"m 229 0 q 370 419 278 232 q 607 778 463 606 l 90 778 l 90 875 l 714 875 l 714 767 q 543 531 615 651 q 424 280 471 411 q 349 0 376 149 l 229 0 z "},"8":{"ha":806,"x_min":72,"x_max":733,"o":"m 403 -17 q 158 47 244 -17 q 72 226 72 110 q 110 351 72 296 q 238 461 147 407 l 238 464 q 138 547 169 499 q 107 658 107 594 q 188 831 107 769 q 403 892 268 892 q 619 830 540 892 q 699 660 699 768 q 667 544 699 596 q 567 447 636 493 l 567 444 q 691 363 649 413 q 733 231 733 314 q 648 47 733 111 q 403 -17 563 -17 m 403 81 q 567 119 506 81 q 629 231 629 158 q 601 303 629 275 q 524 350 572 332 l 336 424 q 215 335 254 381 q 176 233 176 289 q 237 121 176 161 q 403 81 297 81 m 468 483 q 565 562 535 521 q 594 654 594 603 q 544 760 594 726 q 403 794 493 794 q 263 760 314 794 q 211 664 211 726 q 237 593 211 622 q 318 542 263 564 l 468 483 z "},"9":{"ha":806,"x_min":83,"x_max":717,"o":"m 146 -17 l 142 78 q 481 171 365 85 q 611 428 597 257 l 608 428 q 363 325 499 325 q 215 360 278 325 q 118 456 153 394 q 83 600 83 518 q 122 753 83 688 q 228 856 160 819 q 388 892 297 892 q 628 787 540 892 q 717 489 717 682 q 572 119 717 249 q 146 -17 428 -10 m 379 421 q 506 451 447 421 q 613 542 564 481 q 547 727 607 660 q 385 794 486 794 q 242 742 297 794 q 188 603 188 690 q 239 470 188 519 q 379 421 290 421 z "},"A":{"ha":806,"x_min":40,"x_max":765,"o":"m 40 0 l 342 903 l 464 903 l 765 0 l 657 0 l 575 250 l 225 250 l 143 0 l 40 0 m 257 347 l 543 347 l 400 783 l 257 347 z "},"Á":{"ha":806,"x_min":40,"x_max":765,"o":"m 40 0 l 342 903 l 464 903 l 765 0 l 657 0 l 575 250 l 225 250 l 143 0 l 40 0 m 257 347 l 543 347 l 400 783 l 257 347 m 342 999 l 296 1061 l 513 1240 l 578 1153 l 342 999 z "},"Ă":{"ha":806,"x_min":40,"x_max":765,"o":"m 40 0 l 342 903 l 464 903 l 765 0 l 657 0 l 575 250 l 225 250 l 143 0 l 40 0 m 257 347 l 543 347 l 400 783 l 257 347 m 403 1019 q 288 1047 333 1019 q 219 1117 243 1074 q 188 1211 196 1161 l 271 1211 q 312 1140 276 1168 q 403 1113 347 1113 q 494 1140 458 1113 q 535 1211 529 1168 l 618 1211 q 587 1117 611 1161 q 517 1047 563 1074 q 403 1019 472 1019 z "},"Â":{"ha":806,"x_min":40,"x_max":765,"o":"m 40 0 l 342 903 l 464 903 l 765 0 l 657 0 l 575 250 l 225 250 l 143 0 l 40 0 m 257 347 l 543 347 l 400 783 l 257 347 m 214 999 l 168 1061 l 382 1236 l 421 1236 l 635 1061 l 589 999 l 401 1132 l 214 999 z "},"Ä":{"ha":806,"x_min":40,"x_max":765,"o":"m 40 0 l 342 903 l 464 903 l 765 0 l 657 0 l 575 250 l 225 250 l 143 0 l 40 0 m 257 347 l 543 347 l 400 783 l 257 347 m 253 1024 q 188 1050 214 1024 q 161 1115 161 1076 q 188 1181 161 1154 q 253 1207 214 1207 q 318 1181 292 1207 q 344 1115 344 1154 q 318 1050 344 1076 q 253 1024 292 1024 m 553 1024 q 488 1050 514 1024 q 461 1115 461 1076 q 488 1181 461 1154 q 553 1207 514 1207 q 618 1181 592 1207 q 644 1115 644 1154 q 618 1050 644 1076 q 553 1024 592 1024 z "},"À":{"ha":806,"x_min":40,"x_max":765,"o":"m 40 0 l 342 903 l 464 903 l 765 0 l 657 0 l 575 250 l 225 250 l 143 0 l 40 0 m 257 347 l 543 347 l 400 783 l 257 347 m 463 999 l 226 1153 l 292 1240 l 508 1061 l 463 999 z "},"Ā":{"ha":806,"x_min":40,"x_max":765,"o":"m 40 0 l 342 903 l 464 903 l 765 0 l 657 0 l 575 250 l 225 250 l 143 0 l 40 0 m 257 347 l 543 347 l 400 783 l 257 347 m 215 1069 l 215 1161 l 590 1161 l 590 1069 l 215 1069 z "},"Ą":{"ha":806,"x_min":40,"x_max":765,"o":"m 40 0 l 342 903 l 464 903 l 765 0 l 657 0 l 575 250 l 225 250 l 143 0 l 40 0 m 257 347 l 543 347 l 400 783 l 257 347 m 663 -308 q 563 -275 600 -308 q 525 -183 525 -242 q 557 -83 525 -132 q 654 22 589 -35 l 714 0 q 633 -90 657 -51 q 608 -161 608 -129 q 625 -206 608 -190 q 669 -221 642 -221 q 706 -215 689 -221 q 736 -200 724 -208 l 758 -282 q 718 -300 742 -292 q 663 -308 694 -308 z "},"Å":{"ha":806,"x_min":40,"x_max":765,"o":"m 40 0 l 342 903 l 464 903 l 765 0 l 657 0 l 575 250 l 225 250 l 143 0 l 40 0 m 257 347 l 543 347 l 400 783 l 257 347 m 403 958 q 292 1003 338 958 q 247 1115 247 1049 q 292 1227 247 1182 q 403 1272 338 1272 q 513 1227 468 1272 q 558 1115 558 1182 q 513 1003 558 1049 q 403 958 468 958 m 403 1038 q 454 1059 435 1038 q 474 1115 474 1081 q 454 1172 474 1150 q 403 1193 435 1193 q 352 1172 372 1193 q 332 1115 332 1150 q 352 1059 332 1081 q 403 1038 372 1038 z "},"Ã":{"ha":806,"x_min":40,"x_max":765,"o":"m 40 0 l 342 903 l 464 903 l 765 0 l 657 0 l 575 250 l 225 250 l 143 0 l 40 0 m 257 347 l 543 347 l 400 783 l 257 347 m 249 1024 l 172 1038 q 226 1158 190 1115 q 318 1200 261 1200 q 383 1185 357 1200 q 431 1156 410 1171 q 461 1135 446 1144 q 492 1126 476 1126 q 528 1144 511 1126 q 557 1211 546 1163 l 632 1197 q 579 1078 615 1121 q 488 1035 543 1035 q 423 1049 449 1035 q 375 1079 397 1064 q 344 1099 360 1090 q 314 1108 329 1108 q 277 1090 294 1108 q 249 1024 260 1072 z "},"Æ":{"ha":806,"x_min":6,"x_max":786,"o":"m 6 0 l 346 903 l 786 903 l 786 807 l 508 807 l 508 507 l 746 507 l 746 413 l 508 413 l 508 96 l 786 96 l 786 0 l 410 0 l 410 214 l 186 214 l 108 0 l 6 0 m 222 310 l 410 310 l 410 807 l 406 807 l 222 310 z "},"Ǽ":{"ha":806,"x_min":6,"x_max":786,"o":"m 6 0 l 346 903 l 786 903 l 786 807 l 508 807 l 508 507 l 746 507 l 746 413 l 508 413 l 508 96 l 786 96 l 786 0 l 410 0 l 410 214 l 186 214 l 108 0 l 6 0 m 222 310 l 410 310 l 410 807 l 406 807 l 222 310 m 367 999 l 321 1061 l 538 1240 l 603 1153 l 367 999 z "},"B":{"ha":806,"x_min":119,"x_max":726,"o":"m 119 0 l 119 903 l 433 903 q 636 845 571 903 q 701 672 701 788 q 671 546 701 594 q 575 474 640 497 l 575 471 q 726 250 726 431 q 453 0 726 0 l 119 0 m 222 97 l 440 97 q 578 135 535 97 q 621 253 621 172 q 574 378 621 339 q 422 417 526 417 l 222 417 l 222 97 m 222 513 l 406 513 q 553 548 510 513 q 597 663 597 583 q 558 772 597 738 q 424 806 518 806 l 222 806 l 222 513 z "},"C":{"ha":806,"x_min":93,"x_max":731,"o":"m 461 -17 q 188 104 282 -17 q 93 451 93 225 q 188 799 93 679 q 461 919 282 919 q 591 899 532 919 q 706 831 650 878 l 650 746 q 560 803 606 786 q 461 821 515 821 q 199 451 199 821 q 461 82 199 82 q 571 103 522 82 q 671 176 619 125 l 731 96 q 603 10 668 36 q 461 -17 539 -17 z "},"Ć":{"ha":806,"x_min":93,"x_max":731,"o":"m 461 -17 q 188 104 282 -17 q 93 451 93 225 q 188 799 93 679 q 461 919 282 919 q 591 899 532 919 q 706 831 650 878 l 650 746 q 560 803 606 786 q 461 821 515 821 q 199 451 199 821 q 461 82 199 82 q 571 103 522 82 q 671 176 619 125 l 731 96 q 603 10 668 36 q 461 -17 539 -17 m 371 999 l 325 1061 l 542 1240 l 607 1153 l 371 999 z "},"Č":{"ha":806,"x_min":93,"x_max":731,"o":"m 461 -17 q 188 104 282 -17 q 93 451 93 225 q 188 799 93 679 q 461 919 282 919 q 591 899 532 919 q 706 831 650 878 l 650 746 q 560 803 606 786 q 461 821 515 821 q 199 451 199 821 q 461 82 199 82 q 571 103 522 82 q 671 176 619 125 l 731 96 q 603 10 668 36 q 461 -17 539 -17 m 411 999 l 197 1174 l 243 1236 l 431 1103 l 618 1236 l 664 1174 l 450 999 l 411 999 z "},"Ç":{"ha":806,"x_min":93,"x_max":731,"o":"m 461 -17 q 188 104 282 -17 q 93 451 93 225 q 188 799 93 679 q 461 919 282 919 q 591 899 532 919 q 706 831 650 878 l 650 746 q 560 803 606 786 q 461 821 515 821 q 199 451 199 821 q 461 82 199 82 q 571 103 522 82 q 671 176 619 125 l 731 96 q 603 10 668 36 q 461 -17 539 -17 m 421 -308 q 343 -300 378 -308 q 279 -279 308 -292 l 299 -210 q 356 -228 324 -221 q 422 -236 388 -236 q 481 -224 464 -236 q 499 -190 499 -212 q 483 -162 499 -171 q 431 -154 468 -154 l 357 -154 l 411 0 l 479 0 l 444 -97 l 456 -97 q 585 -193 585 -97 q 542 -280 585 -251 q 421 -308 500 -308 z "},"Ĉ":{"ha":806,"x_min":93,"x_max":731,"o":"m 461 -17 q 188 104 282 -17 q 93 451 93 225 q 188 799 93 679 q 461 919 282 919 q 591 899 532 919 q 706 831 650 878 l 650 746 q 560 803 606 786 q 461 821 515 821 q 199 451 199 821 q 461 82 199 82 q 571 103 522 82 q 671 176 619 125 l 731 96 q 603 10 668 36 q 461 -17 539 -17 m 243 999 l 197 1061 l 411 1236 l 450 1236 l 664 1061 l 618 999 l 431 1132 l 243 999 z "},"Ċ":{"ha":806,"x_min":93,"x_max":731,"o":"m 461 -17 q 188 104 282 -17 q 93 451 93 225 q 188 799 93 679 q 461 919 282 919 q 591 899 532 919 q 706 831 650 878 l 650 746 q 560 803 606 786 q 461 821 515 821 q 199 451 199 821 q 461 82 199 82 q 571 103 522 82 q 671 176 619 125 l 731 96 q 603 10 668 36 q 461 -17 539 -17 m 432 1019 q 365 1048 393 1019 q 336 1115 336 1076 q 365 1183 336 1156 q 432 1211 393 1211 q 500 1183 472 1211 q 528 1115 528 1156 q 500 1048 528 1076 q 432 1019 472 1019 z "},"D":{"ha":806,"x_min":114,"x_max":729,"o":"m 114 0 l 114 903 l 336 903 q 632 791 535 903 q 729 451 729 679 q 633 113 729 225 q 342 0 536 0 l 114 0 m 217 97 l 328 97 q 552 183 481 97 q 624 451 624 268 q 552 720 624 635 q 328 806 481 806 l 217 806 l 217 97 z "},"Ď":{"ha":806,"x_min":114,"x_max":729,"o":"m 114 0 l 114 903 l 336 903 q 632 791 535 903 q 729 451 729 679 q 633 113 729 225 q 342 0 536 0 l 114 0 m 217 97 l 328 97 q 552 183 481 97 q 624 451 624 268 q 552 720 624 635 q 328 806 481 806 l 217 806 l 217 97 m 340 999 l 126 1174 l 172 1236 l 360 1103 l 547 1236 l 593 1174 l 379 999 l 340 999 z "},"Đ":{"ha":806,"x_min":19,"x_max":764,"o":"m 19 408 l 19 494 l 453 494 l 453 408 l 19 408 m 149 0 l 149 903 l 371 903 q 667 791 569 903 q 764 451 764 679 q 667 113 764 225 q 376 0 571 0 l 149 0 m 251 97 l 363 97 q 587 183 515 97 q 658 451 658 268 q 587 720 658 635 q 363 806 515 806 l 251 806 l 251 97 z "},"Ð":{"ha":806,"x_min":19,"x_max":764,"o":"m 19 408 l 19 494 l 453 494 l 453 408 l 19 408 m 149 0 l 149 903 l 371 903 q 667 791 569 903 q 764 451 764 679 q 667 113 764 225 q 376 0 571 0 l 149 0 m 251 97 l 363 97 q 587 183 515 97 q 658 451 658 268 q 587 720 658 635 q 363 806 515 806 l 251 806 l 251 97 z "},"E":{"ha":806,"x_min":150,"x_max":708,"o":"m 150 0 l 150 903 l 708 903 l 708 806 l 253 806 l 253 508 l 642 508 l 642 411 l 253 411 l 253 97 l 708 97 l 708 0 l 150 0 z "},"É":{"ha":806,"x_min":150,"x_max":708,"o":"m 150 0 l 150 903 l 708 903 l 708 806 l 253 806 l 253 508 l 642 508 l 642 411 l 253 411 l 253 97 l 708 97 l 708 0 l 150 0 m 368 999 l 322 1061 l 539 1240 l 604 1153 l 368 999 z "},"Ĕ":{"ha":806,"x_min":150,"x_max":708,"o":"m 150 0 l 150 903 l 708 903 l 708 806 l 253 806 l 253 508 l 642 508 l 642 411 l 253 411 l 253 97 l 708 97 l 708 0 l 150 0 m 429 1019 q 315 1047 360 1019 q 246 1117 269 1074 q 214 1211 222 1161 l 297 1211 q 338 1140 303 1168 q 429 1113 374 1113 q 520 1140 485 1113 q 561 1211 556 1168 l 644 1211 q 613 1117 638 1161 q 544 1047 589 1074 q 429 1019 499 1019 z "},"Ě":{"ha":806,"x_min":150,"x_max":708,"o":"m 150 0 l 150 903 l 708 903 l 708 806 l 253 806 l 253 508 l 642 508 l 642 411 l 253 411 l 253 97 l 708 97 l 708 0 l 150 0 m 408 999 l 194 1174 l 240 1236 l 428 1103 l 615 1236 l 661 1174 l 447 999 l 408 999 z "},"Ê":{"ha":806,"x_min":150,"x_max":708,"o":"m 150 0 l 150 903 l 708 903 l 708 806 l 253 806 l 253 508 l 642 508 l 642 411 l 253 411 l 253 97 l 708 97 l 708 0 l 150 0 m 240 999 l 194 1061 l 408 1236 l 447 1236 l 661 1061 l 615 999 l 428 1132 l 240 999 z "},"Ë":{"ha":806,"x_min":150,"x_max":708,"o":"m 150 0 l 150 903 l 708 903 l 708 806 l 253 806 l 253 508 l 642 508 l 642 411 l 253 411 l 253 97 l 708 97 l 708 0 l 150 0 m 279 1024 q 214 1050 240 1024 q 188 1115 188 1076 q 214 1181 188 1154 q 279 1207 240 1207 q 344 1181 318 1207 q 371 1115 371 1154 q 344 1050 371 1076 q 279 1024 318 1024 m 579 1024 q 514 1050 540 1024 q 488 1115 488 1076 q 514 1181 488 1154 q 579 1207 540 1207 q 644 1181 618 1207 q 671 1115 671 1154 q 644 1050 671 1076 q 579 1024 618 1024 z "},"Ė":{"ha":806,"x_min":150,"x_max":708,"o":"m 150 0 l 150 903 l 708 903 l 708 806 l 253 806 l 253 508 l 642 508 l 642 411 l 253 411 l 253 97 l 708 97 l 708 0 l 150 0 m 429 1019 q 362 1048 390 1019 q 333 1115 333 1076 q 362 1183 333 1156 q 429 1211 390 1211 q 497 1183 469 1211 q 525 1115 525 1156 q 497 1048 525 1076 q 429 1019 469 1019 z "},"È":{"ha":806,"x_min":150,"x_max":708,"o":"m 150 0 l 150 903 l 708 903 l 708 806 l 253 806 l 253 508 l 642 508 l 642 411 l 253 411 l 253 97 l 708 97 l 708 0 l 150 0 m 489 999 l 253 1153 l 318 1240 l 535 1061 l 489 999 z "},"Ē":{"ha":806,"x_min":150,"x_max":708,"o":"m 150 0 l 150 903 l 708 903 l 708 806 l 253 806 l 253 508 l 642 508 l 642 411 l 253 411 l 253 97 l 708 97 l 708 0 l 150 0 m 242 1069 l 242 1161 l 617 1161 l 617 1069 l 242 1069 z "},"Ę":{"ha":806,"x_min":150,"x_max":708,"o":"m 150 0 l 150 903 l 708 903 l 708 806 l 253 806 l 253 508 l 642 508 l 642 411 l 253 411 l 253 97 l 708 97 l 708 0 l 150 0 m 613 -308 q 513 -275 550 -308 q 475 -183 475 -242 q 507 -83 475 -132 q 604 22 539 -35 l 664 0 q 583 -90 607 -51 q 558 -161 558 -129 q 575 -206 558 -190 q 619 -221 592 -221 q 656 -215 639 -221 q 686 -200 674 -208 l 708 -282 q 668 -300 692 -292 q 613 -308 644 -308 z "},"F":{"ha":806,"x_min":156,"x_max":714,"o":"m 156 0 l 156 903 l 714 903 l 714 806 l 258 806 l 258 503 l 647 503 l 647 406 l 258 406 l 258 0 l 156 0 z "},"G":{"ha":806,"x_min":78,"x_max":714,"o":"m 424 -17 q 238 39 315 -17 q 119 199 160 94 q 78 451 78 304 q 172 799 78 679 q 446 919 267 919 q 576 899 517 919 q 690 831 635 878 l 635 746 q 545 803 590 786 q 446 821 500 821 q 183 451 183 821 q 439 82 183 82 q 611 151 538 82 l 611 400 l 426 400 l 426 497 l 714 497 l 714 0 l 649 0 l 638 71 q 539 4 590 25 q 424 -17 488 -17 z "},"Ğ":{"ha":806,"x_min":78,"x_max":714,"o":"m 424 -17 q 238 39 315 -17 q 119 199 160 94 q 78 451 78 304 q 172 799 78 679 q 446 919 267 919 q 576 899 517 919 q 690 831 635 878 l 635 746 q 545 803 590 786 q 446 821 500 821 q 183 451 183 821 q 439 82 183 82 q 611 151 538 82 l 611 400 l 426 400 l 426 497 l 714 497 l 714 0 l 649 0 l 638 71 q 539 4 590 25 q 424 -17 488 -17 m 403 1019 q 288 1047 333 1019 q 219 1117 243 1074 q 188 1211 196 1161 l 271 1211 q 312 1140 276 1168 q 403 1113 347 1113 q 494 1140 458 1113 q 535 1211 529 1168 l 618 1211 q 587 1117 611 1161 q 517 1047 563 1074 q 403 1019 472 1019 z "},"Ĝ":{"ha":806,"x_min":78,"x_max":714,"o":"m 424 -17 q 238 39 315 -17 q 119 199 160 94 q 78 451 78 304 q 172 799 78 679 q 446 919 267 919 q 576 899 517 919 q 690 831 635 878 l 635 746 q 545 803 590 786 q 446 821 500 821 q 183 451 183 821 q 439 82 183 82 q 611 151 538 82 l 611 400 l 426 400 l 426 497 l 714 497 l 714 0 l 649 0 l 638 71 q 539 4 590 25 q 424 -17 488 -17 m 214 999 l 168 1061 l 382 1236 l 421 1236 l 635 1061 l 589 999 l 401 1132 l 214 999 z "},"Ģ":{"ha":806,"x_min":78,"x_max":714,"o":"m 424 -17 q 238 39 315 -17 q 119 199 160 94 q 78 451 78 304 q 172 799 78 679 q 446 919 267 919 q 576 899 517 919 q 690 831 635 878 l 635 746 q 545 803 590 786 q 446 821 500 821 q 183 451 183 821 q 439 82 183 82 q 611 151 538 82 l 611 400 l 426 400 l 426 497 l 714 497 l 714 0 l 649 0 l 638 71 q 539 4 590 25 q 424 -17 488 -17 m 317 -407 l 314 -353 q 404 -332 376 -350 q 440 -276 432 -314 q 408 -282 425 -282 q 352 -260 372 -282 q 332 -208 332 -239 q 358 -153 332 -176 q 422 -131 383 -131 q 488 -155 458 -131 q 518 -235 518 -179 q 499 -312 518 -274 q 436 -378 481 -351 q 317 -407 392 -406 z "},"Ġ":{"ha":806,"x_min":78,"x_max":714,"o":"m 424 -17 q 238 39 315 -17 q 119 199 160 94 q 78 451 78 304 q 172 799 78 679 q 446 919 267 919 q 576 899 517 919 q 690 831 635 878 l 635 746 q 545 803 590 786 q 446 821 500 821 q 183 451 183 821 q 439 82 183 82 q 611 151 538 82 l 611 400 l 426 400 l 426 497 l 714 497 l 714 0 l 649 0 l 638 71 q 539 4 590 25 q 424 -17 488 -17 m 403 1019 q 335 1048 364 1019 q 307 1115 307 1076 q 335 1183 307 1156 q 403 1211 364 1211 q 471 1183 443 1211 q 499 1115 499 1156 q 471 1048 499 1076 q 403 1019 443 1019 z "},"H":{"ha":806,"x_min":104,"x_max":701,"o":"m 104 0 l 104 903 l 207 903 l 207 508 l 599 508 l 599 903 l 701 903 l 701 0 l 599 0 l 599 411 l 207 411 l 207 0 l 104 0 z "},"Ħ":{"ha":806,"x_min":42,"x_max":764,"o":"m 104 0 l 104 640 l 42 640 l 42 729 l 104 729 l 104 903 l 207 903 l 207 729 l 599 729 l 599 903 l 701 903 l 701 729 l 764 729 l 764 640 l 701 640 l 701 0 l 599 0 l 599 369 l 207 369 l 207 0 l 104 0 m 207 467 l 599 467 l 599 640 l 207 640 l 207 467 z "},"Ĥ":{"ha":806,"x_min":104,"x_max":701,"o":"m 104 0 l 104 903 l 207 903 l 207 508 l 599 508 l 599 903 l 701 903 l 701 0 l 599 0 l 599 411 l 207 411 l 207 0 l 104 0 m 214 999 l 168 1061 l 382 1236 l 421 1236 l 635 1061 l 589 999 l 401 1132 l 214 999 z "},"I":{"ha":806,"x_min":114,"x_max":692,"o":"m 114 0 l 114 97 l 351 97 l 351 806 l 114 806 l 114 903 l 692 903 l 692 806 l 454 806 l 454 97 l 692 97 l 692 0 l 114 0 z "},"Í":{"ha":806,"x_min":114,"x_max":692,"o":"m 114 0 l 114 97 l 351 97 l 351 806 l 114 806 l 114 903 l 692 903 l 692 806 l 454 806 l 454 97 l 692 97 l 692 0 l 114 0 m 342 999 l 296 1061 l 513 1240 l 578 1153 l 342 999 z "},"Ĭ":{"ha":806,"x_min":114,"x_max":692,"o":"m 114 0 l 114 97 l 351 97 l 351 806 l 114 806 l 114 903 l 692 903 l 692 806 l 454 806 l 454 97 l 692 97 l 692 0 l 114 0 m 403 1019 q 288 1047 333 1019 q 219 1117 243 1074 q 188 1211 196 1161 l 271 1211 q 312 1140 276 1168 q 403 1113 347 1113 q 494 1140 458 1113 q 535 1211 529 1168 l 618 1211 q 587 1117 611 1161 q 517 1047 563 1074 q 403 1019 472 1019 z "},"Î":{"ha":806,"x_min":114,"x_max":692,"o":"m 114 0 l 114 97 l 351 97 l 351 806 l 114 806 l 114 903 l 692 903 l 692 806 l 454 806 l 454 97 l 692 97 l 692 0 l 114 0 m 214 999 l 168 1061 l 382 1236 l 421 1236 l 635 1061 l 589 999 l 401 1132 l 214 999 z "},"Ï":{"ha":806,"x_min":114,"x_max":692,"o":"m 114 0 l 114 97 l 351 97 l 351 806 l 114 806 l 114 903 l 692 903 l 692 806 l 454 806 l 454 97 l 692 97 l 692 0 l 114 0 m 253 1024 q 188 1050 214 1024 q 161 1115 161 1076 q 188 1181 161 1154 q 253 1207 214 1207 q 318 1181 292 1207 q 344 1115 344 1154 q 318 1050 344 1076 q 253 1024 292 1024 m 553 1024 q 488 1050 514 1024 q 461 1115 461 1076 q 488 1181 461 1154 q 553 1207 514 1207 q 618 1181 592 1207 q 644 1115 644 1154 q 618 1050 644 1076 q 553 1024 592 1024 z "},"İ":{"ha":806,"x_min":114,"x_max":692,"o":"m 114 0 l 114 97 l 351 97 l 351 806 l 114 806 l 114 903 l 692 903 l 692 806 l 454 806 l 454 97 l 692 97 l 692 0 l 114 0 m 403 1019 q 335 1048 364 1019 q 307 1115 307 1076 q 335 1183 307 1156 q 403 1211 364 1211 q 471 1183 443 1211 q 499 1115 499 1156 q 471 1048 499 1076 q 403 1019 443 1019 z "},"Ì":{"ha":806,"x_min":114,"x_max":692,"o":"m 114 0 l 114 97 l 351 97 l 351 806 l 114 806 l 114 903 l 692 903 l 692 806 l 454 806 l 454 97 l 692 97 l 692 0 l 114 0 m 463 999 l 226 1153 l 292 1240 l 508 1061 l 463 999 z "},"Ī":{"ha":806,"x_min":114,"x_max":692,"o":"m 114 0 l 114 97 l 351 97 l 351 806 l 114 806 l 114 903 l 692 903 l 692 806 l 454 806 l 454 97 l 692 97 l 692 0 l 114 0 m 215 1069 l 215 1161 l 590 1161 l 590 1069 l 215 1069 z "},"Į":{"ha":806,"x_min":114,"x_max":692,"o":"m 439 -308 q 339 -272 376 -308 q 301 -171 301 -235 q 322 -74 301 -119 q 381 22 342 -29 l 438 0 q 396 -83 407 -46 q 385 -153 385 -121 q 401 -204 385 -187 q 446 -221 418 -221 q 483 -215 465 -221 q 513 -200 500 -208 l 535 -282 q 494 -300 518 -292 q 439 -308 471 -308 m 114 0 l 114 97 l 351 97 l 351 806 l 114 806 l 114 903 l 692 903 l 692 806 l 454 806 l 454 97 l 692 97 l 692 0 l 114 0 z "},"Ĩ":{"ha":806,"x_min":114,"x_max":692,"o":"m 114 0 l 114 97 l 351 97 l 351 806 l 114 806 l 114 903 l 692 903 l 692 806 l 454 806 l 454 97 l 692 97 l 692 0 l 114 0 m 249 1024 l 172 1038 q 226 1158 190 1115 q 318 1200 261 1200 q 383 1185 357 1200 q 431 1156 410 1171 q 461 1135 446 1144 q 492 1126 476 1126 q 528 1144 511 1126 q 557 1211 546 1163 l 632 1197 q 579 1078 615 1121 q 488 1035 543 1035 q 423 1049 449 1035 q 375 1079 397 1064 q 344 1099 360 1090 q 314 1108 329 1108 q 277 1090 294 1108 q 249 1024 260 1072 z "},"J":{"ha":806,"x_min":90,"x_max":664,"o":"m 369 -17 q 219 10 286 -17 q 90 93 151 36 l 150 174 q 252 104 199 126 q 365 82 306 82 q 510 133 460 82 q 561 278 561 185 l 561 806 l 243 806 l 243 903 l 664 903 l 664 268 q 588 58 664 132 q 369 -17 511 -17 z "},"Ĵ":{"ha":806,"x_min":90,"x_max":685,"o":"m 369 -17 q 219 10 286 -17 q 90 93 151 36 l 150 174 q 252 104 199 126 q 365 82 306 82 q 510 133 460 82 q 561 278 561 185 l 561 806 l 243 806 l 243 903 l 664 903 l 664 268 q 588 58 664 132 q 369 -17 511 -17 m 264 999 l 218 1061 l 432 1236 l 471 1236 l 685 1061 l 639 999 l 451 1132 l 264 999 z "},"K":{"ha":806,"x_min":113,"x_max":760,"o":"m 113 0 l 113 903 l 215 903 l 215 436 l 624 903 l 753 903 l 436 546 l 760 0 l 640 0 l 365 464 l 215 296 l 215 0 l 113 0 z "},"Ķ":{"ha":806,"x_min":113,"x_max":760,"o":"m 113 0 l 113 903 l 215 903 l 215 436 l 624 903 l 753 903 l 436 546 l 760 0 l 640 0 l 365 464 l 215 296 l 215 0 l 113 0 m 324 -407 l 321 -353 q 411 -332 383 -350 q 447 -276 439 -314 q 415 -282 432 -282 q 359 -260 379 -282 q 339 -208 339 -239 q 365 -153 339 -176 q 429 -131 390 -131 q 495 -155 465 -131 q 525 -235 525 -179 q 506 -312 525 -274 q 443 -378 488 -351 q 324 -407 399 -406 z "},"L":{"ha":806,"x_min":156,"x_max":714,"o":"m 156 0 l 156 903 l 258 903 l 258 97 l 714 97 l 714 0 l 156 0 z "},"Ĺ":{"ha":806,"x_min":100,"x_max":714,"o":"m 156 0 l 156 903 l 258 903 l 258 97 l 714 97 l 714 0 l 156 0 m 146 999 l 100 1061 l 317 1240 l 382 1153 l 146 999 z "},"Ľ":{"ha":806,"x_min":156,"x_max":714,"o":"m 156 0 l 156 903 l 258 903 l 258 97 l 714 97 l 714 0 l 156 0 m 394 644 l 336 683 q 386 763 372 722 q 400 844 400 804 q 399 874 400 860 q 394 903 397 889 l 513 919 q 504 829 513 875 q 471 738 496 783 q 394 644 446 692 z "},"Ļ":{"ha":806,"x_min":156,"x_max":714,"o":"m 156 0 l 156 903 l 258 903 l 258 97 l 714 97 l 714 0 l 156 0 m 335 -407 l 332 -353 q 422 -332 394 -350 q 458 -276 450 -314 q 426 -282 443 -282 q 370 -260 390 -282 q 350 -208 350 -239 q 376 -153 350 -176 q 440 -131 401 -131 q 506 -155 476 -131 q 536 -235 536 -179 q 517 -312 536 -274 q 454 -378 499 -351 q 335 -407 410 -406 z "},"Ŀ":{"ha":806,"x_min":156,"x_max":714,"o":"m 156 0 l 156 903 l 258 903 l 258 97 l 714 97 l 714 0 l 156 0 m 603 396 q 529 426 560 396 q 499 500 499 457 q 529 573 499 542 q 603 604 560 604 q 676 573 646 604 q 707 500 707 542 q 676 426 707 457 q 603 396 646 396 z "},"Ł":{"ha":806,"x_min":64,"x_max":740,"o":"m 113 257 l 64 343 l 544 621 l 593 535 l 113 257 m 182 0 l 182 903 l 285 903 l 285 97 l 740 97 l 740 0 l 182 0 z "},"M":{"ha":806,"x_min":92,"x_max":714,"o":"m 92 0 l 92 903 l 232 903 l 401 340 l 571 903 l 714 903 l 714 0 l 614 0 l 614 765 l 438 183 l 363 183 l 186 765 l 186 0 l 92 0 z "},"N":{"ha":806,"x_min":104,"x_max":701,"o":"m 104 0 l 104 903 l 235 903 l 604 189 l 604 903 l 701 903 l 701 0 l 596 0 l 201 763 l 201 0 l 104 0 z "},"Ń":{"ha":806,"x_min":104,"x_max":701,"o":"m 104 0 l 104 903 l 235 903 l 604 189 l 604 903 l 701 903 l 701 0 l 596 0 l 201 763 l 201 0 l 104 0 m 342 999 l 296 1061 l 513 1240 l 578 1153 l 342 999 z "},"Ň":{"ha":806,"x_min":104,"x_max":701,"o":"m 104 0 l 104 903 l 235 903 l 604 189 l 604 903 l 701 903 l 701 0 l 596 0 l 201 763 l 201 0 l 104 0 m 382 999 l 168 1174 l 214 1236 l 401 1103 l 589 1236 l 635 1174 l 421 999 l 382 999 z "},"Ņ":{"ha":806,"x_min":104,"x_max":701,"o":"m 104 0 l 104 903 l 235 903 l 604 189 l 604 903 l 701 903 l 701 0 l 596 0 l 201 763 l 201 0 l 104 0 m 303 -407 l 300 -353 q 390 -332 363 -350 q 426 -276 418 -314 q 394 -282 411 -282 q 338 -260 358 -282 q 318 -208 318 -239 q 344 -153 318 -176 q 408 -131 369 -131 q 474 -155 444 -131 q 504 -235 504 -179 q 485 -312 504 -274 q 422 -378 467 -351 q 303 -407 378 -406 z "},"Ñ":{"ha":806,"x_min":104,"x_max":701,"o":"m 104 0 l 104 903 l 235 903 l 604 189 l 604 903 l 701 903 l 701 0 l 596 0 l 201 763 l 201 0 l 104 0 m 249 1024 l 172 1038 q 226 1158 190 1115 q 318 1200 261 1200 q 383 1185 357 1200 q 431 1156 410 1171 q 461 1135 446 1144 q 492 1126 476 1126 q 528 1144 511 1126 q 557 1211 546 1163 l 632 1197 q 579 1078 615 1121 q 488 1035 543 1035 q 423 1049 449 1035 q 375 1079 397 1064 q 344 1099 360 1090 q 314 1108 329 1108 q 277 1090 294 1108 q 249 1024 260 1072 z "},"Ŋ":{"ha":806,"x_min":104,"x_max":701,"o":"m 475 -308 q 324 -265 392 -308 l 360 -174 q 474 -210 413 -210 q 569 -167 540 -210 q 599 -25 599 -125 l 599 -6 l 201 763 l 201 0 l 104 0 l 104 903 l 235 903 l 604 189 l 604 903 l 701 903 l 701 -46 q 644 -242 701 -175 q 475 -308 586 -308 z "},"O":{"ha":806,"x_min":65,"x_max":740,"o":"m 403 -17 q 151 102 236 -17 q 65 451 65 221 q 151 801 65 683 q 403 919 236 919 q 655 801 569 919 q 740 451 740 683 q 655 102 740 221 q 403 -17 569 -17 m 403 82 q 635 451 635 82 q 403 821 635 821 q 171 451 171 821 q 403 82 171 82 z "},"Ó":{"ha":806,"x_min":65,"x_max":740,"o":"m 403 -17 q 151 102 236 -17 q 65 451 65 221 q 151 801 65 683 q 403 919 236 919 q 655 801 569 919 q 740 451 740 683 q 655 102 740 221 q 403 -17 569 -17 m 403 82 q 635 451 635 82 q 403 821 635 821 q 171 451 171 821 q 403 82 171 82 m 342 999 l 296 1061 l 513 1240 l 578 1153 l 342 999 z "},"Ŏ":{"ha":806,"x_min":65,"x_max":740,"o":"m 403 -17 q 151 102 236 -17 q 65 451 65 221 q 151 801 65 683 q 403 919 236 919 q 655 801 569 919 q 740 451 740 683 q 655 102 740 221 q 403 -17 569 -17 m 403 82 q 635 451 635 82 q 403 821 635 821 q 171 451 171 821 q 403 82 171 82 m 403 1019 q 288 1047 333 1019 q 219 1117 243 1074 q 188 1211 196 1161 l 271 1211 q 312 1140 276 1168 q 403 1113 347 1113 q 494 1140 458 1113 q 535 1211 529 1168 l 618 1211 q 587 1117 611 1161 q 517 1047 563 1074 q 403 1019 472 1019 z "},"Ô":{"ha":806,"x_min":65,"x_max":740,"o":"m 403 -17 q 151 102 236 -17 q 65 451 65 221 q 151 801 65 683 q 403 919 236 919 q 655 801 569 919 q 740 451 740 683 q 655 102 740 221 q 403 -17 569 -17 m 403 82 q 635 451 635 82 q 403 821 635 821 q 171 451 171 821 q 403 82 171 82 m 214 999 l 168 1061 l 382 1236 l 421 1236 l 635 1061 l 589 999 l 401 1132 l 214 999 z "},"Ö":{"ha":806,"x_min":65,"x_max":740,"o":"m 403 -17 q 151 102 236 -17 q 65 451 65 221 q 151 801 65 683 q 403 919 236 919 q 655 801 569 919 q 740 451 740 683 q 655 102 740 221 q 403 -17 569 -17 m 403 82 q 635 451 635 82 q 403 821 635 821 q 171 451 171 821 q 403 82 171 82 m 253 1024 q 188 1050 214 1024 q 161 1115 161 1076 q 188 1181 161 1154 q 253 1207 214 1207 q 318 1181 292 1207 q 344 1115 344 1154 q 318 1050 344 1076 q 253 1024 292 1024 m 553 1024 q 488 1050 514 1024 q 461 1115 461 1076 q 488 1181 461 1154 q 553 1207 514 1207 q 618 1181 592 1207 q 644 1115 644 1154 q 618 1050 644 1076 q 553 1024 592 1024 z "},"Ò":{"ha":806,"x_min":65,"x_max":740,"o":"m 403 -17 q 151 102 236 -17 q 65 451 65 221 q 151 801 65 683 q 403 919 236 919 q 655 801 569 919 q 740 451 740 683 q 655 102 740 221 q 403 -17 569 -17 m 403 82 q 635 451 635 82 q 403 821 635 821 q 171 451 171 821 q 403 82 171 82 m 463 999 l 226 1153 l 292 1240 l 508 1061 l 463 999 z "},"Ő":{"ha":806,"x_min":65,"x_max":740,"o":"m 403 -17 q 151 102 236 -17 q 65 451 65 221 q 151 801 65 683 q 403 919 236 919 q 655 801 569 919 q 740 451 740 683 q 655 102 740 221 q 403 -17 569 -17 m 403 82 q 635 451 635 82 q 403 821 635 821 q 171 451 171 821 q 403 82 171 82 m 518 1000 l 467 1057 l 638 1231 l 710 1150 l 518 1000 m 215 1000 l 164 1057 l 335 1231 l 407 1150 l 215 1000 z "},"Ō":{"ha":806,"x_min":65,"x_max":740,"o":"m 403 -17 q 151 102 236 -17 q 65 451 65 221 q 151 801 65 683 q 403 919 236 919 q 655 801 569 919 q 740 451 740 683 q 655 102 740 221 q 403 -17 569 -17 m 403 82 q 635 451 635 82 q 403 821 635 821 q 171 451 171 821 q 403 82 171 82 m 215 1069 l 215 1161 l 590 1161 l 590 1069 l 215 1069 z "},"Ø":{"ha":806,"x_min":28,"x_max":778,"o":"m 403 -17 q 151 102 236 -17 q 65 451 65 221 q 151 801 65 683 q 403 919 236 919 q 655 801 569 919 q 740 451 740 683 q 655 102 740 221 q 403 -17 569 -17 m 403 82 q 635 451 635 82 q 403 821 635 821 q 171 451 171 821 q 403 82 171 82 m 97 -44 l 28 7 l 708 947 l 778 896 l 97 -44 z "},"Ǿ":{"ha":806,"x_min":28,"x_max":778,"o":"m 403 -17 q 151 102 236 -17 q 65 451 65 221 q 151 801 65 683 q 403 919 236 919 q 655 801 569 919 q 740 451 740 683 q 655 102 740 221 q 403 -17 569 -17 m 403 82 q 635 451 635 82 q 403 821 635 821 q 171 451 171 821 q 403 82 171 82 m 97 -44 l 28 7 l 708 947 l 778 896 l 97 -44 m 342 999 l 296 1061 l 513 1240 l 578 1153 l 342 999 z "},"Õ":{"ha":806,"x_min":65,"x_max":740,"o":"m 403 -17 q 151 102 236 -17 q 65 451 65 221 q 151 801 65 683 q 403 919 236 919 q 655 801 569 919 q 740 451 740 683 q 655 102 740 221 q 403 -17 569 -17 m 403 82 q 635 451 635 82 q 403 821 635 821 q 171 451 171 821 q 403 82 171 82 m 249 1024 l 172 1038 q 226 1158 190 1115 q 318 1200 261 1200 q 383 1185 357 1200 q 431 1156 410 1171 q 461 1135 446 1144 q 492 1126 476 1126 q 528 1144 511 1126 q 557 1211 546 1163 l 632 1197 q 579 1078 615 1121 q 488 1035 543 1035 q 423 1049 449 1035 q 375 1079 397 1064 q 344 1099 360 1090 q 314 1108 329 1108 q 277 1090 294 1108 q 249 1024 260 1072 z "},"Œ":{"ha":806,"x_min":43,"x_max":778,"o":"m 356 0 q 123 114 203 0 q 43 451 43 228 q 124 789 43 675 q 361 903 206 903 l 778 903 l 778 807 l 500 807 l 500 507 l 738 507 l 738 413 l 500 413 l 500 96 l 778 96 l 778 0 l 356 0 m 369 96 l 400 96 l 400 807 l 369 807 q 251 774 301 807 q 174 663 201 740 q 147 451 147 585 q 174 240 147 318 q 251 129 201 163 q 369 96 301 96 z "},"P":{"ha":806,"x_min":125,"x_max":732,"o":"m 125 0 l 125 903 l 453 903 q 662 838 592 903 q 732 644 732 772 q 662 451 732 517 q 453 386 592 386 l 228 386 l 228 0 l 125 0 m 228 483 l 439 483 q 583 522 539 483 q 626 644 626 560 q 583 768 626 731 q 439 806 539 806 l 228 806 l 228 483 z "},"Þ":{"ha":806,"x_min":125,"x_max":732,"o":"m 125 0 l 125 903 l 228 903 l 228 746 l 453 746 q 663 681 593 746 q 732 488 732 615 q 663 294 732 360 q 453 229 593 229 l 228 229 l 228 0 l 125 0 m 228 326 l 439 326 q 583 365 539 326 q 626 488 626 403 q 583 611 626 574 q 439 649 539 649 l 228 649 l 228 326 z "},"Q":{"ha":806,"x_min":65,"x_max":778,"o":"m 607 -308 q 431 -241 493 -308 q 368 -49 368 -174 l 368 -15 q 142 115 218 -3 q 65 451 65 233 q 151 801 65 683 q 403 919 236 919 q 655 801 569 919 q 740 451 740 683 q 471 -11 740 35 l 471 -37 q 506 -169 471 -125 q 613 -212 542 -212 q 750 -175 686 -212 l 778 -262 q 697 -297 740 -285 q 607 -308 654 -308 m 403 82 q 635 451 635 82 q 403 821 635 821 q 171 451 171 821 q 403 82 171 82 z "},"R":{"ha":806,"x_min":121,"x_max":740,"o":"m 121 0 l 121 903 l 442 903 q 646 840 578 903 q 714 651 714 776 q 500 403 714 431 l 740 0 l 621 0 l 385 400 l 224 400 l 224 0 l 121 0 m 224 497 l 429 497 q 567 534 525 497 q 608 651 608 571 q 567 769 608 733 q 429 806 525 806 l 224 806 l 224 497 z "},"Ŕ":{"ha":806,"x_min":121,"x_max":740,"o":"m 121 0 l 121 903 l 442 903 q 646 840 578 903 q 714 651 714 776 q 500 403 714 431 l 740 0 l 621 0 l 385 400 l 224 400 l 224 0 l 121 0 m 224 497 l 429 497 q 567 534 525 497 q 608 651 608 571 q 567 769 608 733 q 429 806 525 806 l 224 806 l 224 497 m 322 999 l 276 1061 l 493 1240 l 558 1153 l 322 999 z "},"Ř":{"ha":806,"x_min":121,"x_max":740,"o":"m 121 0 l 121 903 l 442 903 q 646 840 578 903 q 714 651 714 776 q 500 403 714 431 l 740 0 l 621 0 l 385 400 l 224 400 l 224 0 l 121 0 m 224 497 l 429 497 q 567 534 525 497 q 608 651 608 571 q 567 769 608 733 q 429 806 525 806 l 224 806 l 224 497 m 363 999 l 149 1174 l 194 1236 l 382 1103 l 569 1236 l 615 1174 l 401 999 l 363 999 z "},"Ŗ":{"ha":806,"x_min":121,"x_max":740,"o":"m 121 0 l 121 903 l 442 903 q 646 840 578 903 q 714 651 714 776 q 500 403 714 431 l 740 0 l 621 0 l 385 400 l 224 400 l 224 0 l 121 0 m 224 497 l 429 497 q 567 534 525 497 q 608 651 608 571 q 567 769 608 733 q 429 806 525 806 l 224 806 l 224 497 m 318 -407 l 315 -353 q 406 -332 378 -350 q 442 -276 433 -314 q 410 -282 426 -282 q 353 -260 374 -282 q 333 -208 333 -239 q 359 -153 333 -176 q 424 -131 385 -131 q 490 -155 460 -131 q 519 -235 519 -179 q 501 -312 519 -274 q 438 -378 482 -351 q 318 -407 393 -406 z "},"S":{"ha":806,"x_min":76,"x_max":708,"o":"m 390 -17 q 217 13 296 -17 q 76 100 138 42 l 133 182 q 251 107 186 132 q 393 82 317 82 q 550 126 496 82 q 604 253 604 169 q 572 350 604 317 q 469 400 540 383 l 324 433 q 166 514 218 457 q 114 665 114 571 q 195 852 114 785 q 417 919 276 919 q 696 825 576 919 l 643 742 q 414 821 543 821 q 269 781 321 821 q 218 669 218 742 q 250 581 218 613 q 353 532 282 549 l 499 499 q 657 417 606 475 q 708 257 708 360 q 626 56 708 128 q 390 -17 543 -17 z "},"Ś":{"ha":806,"x_min":76,"x_max":708,"o":"m 390 -17 q 217 13 296 -17 q 76 100 138 42 l 133 182 q 251 107 186 132 q 393 82 317 82 q 550 126 496 82 q 604 253 604 169 q 572 350 604 317 q 469 400 540 383 l 324 433 q 166 514 218 457 q 114 665 114 571 q 195 852 114 785 q 417 919 276 919 q 696 825 576 919 l 643 742 q 414 821 543 821 q 269 781 321 821 q 218 669 218 742 q 250 581 218 613 q 353 532 282 549 l 499 499 q 657 417 606 475 q 708 257 708 360 q 626 56 708 128 q 390 -17 543 -17 m 335 999 l 289 1061 l 506 1240 l 571 1153 l 335 999 z "},"Š":{"ha":806,"x_min":76,"x_max":708,"o":"m 390 -17 q 217 13 296 -17 q 76 100 138 42 l 133 182 q 251 107 186 132 q 393 82 317 82 q 550 126 496 82 q 604 253 604 169 q 572 350 604 317 q 469 400 540 383 l 324 433 q 166 514 218 457 q 114 665 114 571 q 195 852 114 785 q 417 919 276 919 q 696 825 576 919 l 643 742 q 414 821 543 821 q 269 781 321 821 q 218 669 218 742 q 250 581 218 613 q 353 532 282 549 l 499 499 q 657 417 606 475 q 708 257 708 360 q 626 56 708 128 q 390 -17 543 -17 m 375 999 l 161 1174 l 207 1236 l 394 1103 l 582 1236 l 628 1174 l 414 999 l 375 999 z "},"Ş":{"ha":806,"x_min":76,"x_max":708,"o":"m 390 -17 q 217 13 296 -17 q 76 100 138 42 l 133 182 q 251 107 186 132 q 393 82 317 82 q 550 126 496 82 q 604 253 604 169 q 572 350 604 317 q 469 400 540 383 l 324 433 q 166 514 218 457 q 114 665 114 571 q 195 852 114 785 q 417 919 276 919 q 696 825 576 919 l 643 742 q 414 821 543 821 q 269 781 321 821 q 218 669 218 742 q 250 581 218 613 q 353 532 282 549 l 499 499 q 657 417 606 475 q 708 257 708 360 q 626 56 708 128 q 390 -17 543 -17 m 383 -308 q 306 -300 340 -308 q 242 -279 271 -292 l 261 -210 q 318 -228 286 -221 q 385 -236 350 -236 q 444 -224 426 -236 q 461 -190 461 -212 q 446 -162 461 -171 q 393 -154 431 -154 l 319 -154 l 374 0 l 442 0 l 407 -97 l 418 -97 q 547 -193 547 -97 q 505 -280 547 -251 q 383 -308 463 -308 z "},"Ŝ":{"ha":806,"x_min":76,"x_max":708,"o":"m 390 -17 q 217 13 296 -17 q 76 100 138 42 l 133 182 q 251 107 186 132 q 393 82 317 82 q 550 126 496 82 q 604 253 604 169 q 572 350 604 317 q 469 400 540 383 l 324 433 q 166 514 218 457 q 114 665 114 571 q 195 852 114 785 q 417 919 276 919 q 696 825 576 919 l 643 742 q 414 821 543 821 q 269 781 321 821 q 218 669 218 742 q 250 581 218 613 q 353 532 282 549 l 499 499 q 657 417 606 475 q 708 257 708 360 q 626 56 708 128 q 390 -17 543 -17 m 207 999 l 161 1061 l 375 1236 l 414 1236 l 628 1061 l 582 999 l 394 1132 l 207 999 z "},"Ș":{"ha":806,"x_min":76,"x_max":708,"o":"m 390 -17 q 217 13 296 -17 q 76 100 138 42 l 133 182 q 251 107 186 132 q 393 82 317 82 q 550 126 496 82 q 604 253 604 169 q 572 350 604 317 q 469 400 540 383 l 324 433 q 166 514 218 457 q 114 665 114 571 q 195 852 114 785 q 417 919 276 919 q 696 825 576 919 l 643 742 q 414 821 543 821 q 269 781 321 821 q 218 669 218 742 q 250 581 218 613 q 353 532 282 549 l 499 499 q 657 417 606 475 q 708 257 708 360 q 626 56 708 128 q 390 -17 543 -17 m 301 -407 l 299 -353 q 389 -332 361 -350 q 425 -276 417 -314 q 393 -282 410 -282 q 337 -260 357 -282 q 317 -208 317 -239 q 342 -153 317 -176 q 407 -131 368 -131 q 473 -155 443 -131 q 503 -235 503 -179 q 484 -312 503 -274 q 421 -378 465 -351 q 301 -407 376 -406 z "},"ẞ":{"ha":806,"x_min":92,"x_max":746,"o":"m 501 -17 q 307 28 396 -17 l 343 122 q 493 82 413 82 q 602 114 564 82 q 640 201 640 146 q 615 272 640 247 q 543 328 590 297 q 477 378 508 351 q 426 444 446 404 q 407 543 407 483 q 449 688 407 629 q 568 776 492 747 l 568 779 q 397 821 489 821 q 243 767 292 821 q 194 599 194 714 l 194 0 l 92 0 l 92 626 q 173 842 92 765 q 400 919 254 919 q 686 817 557 919 l 657 721 q 513 554 513 682 q 538 472 513 499 q 610 413 563 444 q 682 358 651 385 q 729 295 713 331 q 746 203 746 260 q 684 40 746 97 q 501 -17 622 -17 z "},"T":{"ha":806,"x_min":51,"x_max":754,"o":"m 351 0 l 351 806 l 51 806 l 51 903 l 754 903 l 754 806 l 454 806 l 454 0 l 351 0 z "},"Ŧ":{"ha":806,"x_min":51,"x_max":754,"o":"m 351 0 l 351 806 l 51 806 l 51 903 l 754 903 l 754 806 l 454 806 l 454 0 l 351 0 m 133 411 l 133 497 l 669 497 l 669 411 l 133 411 z "},"Ť":{"ha":806,"x_min":51,"x_max":754,"o":"m 351 0 l 351 806 l 51 806 l 51 903 l 754 903 l 754 806 l 454 806 l 454 0 l 351 0 m 382 999 l 168 1174 l 214 1236 l 401 1103 l 589 1236 l 635 1174 l 421 999 l 382 999 z "},"Ţ":{"ha":806,"x_min":51,"x_max":754,"o":"m 351 0 l 351 806 l 51 806 l 51 903 l 754 903 l 754 806 l 454 806 l 454 0 l 351 0 m 385 -308 q 307 -300 342 -308 q 243 -279 272 -292 l 263 -210 q 319 -228 288 -221 q 386 -236 351 -236 q 445 -224 428 -236 q 463 -190 463 -212 q 447 -162 463 -171 q 394 -154 432 -154 l 321 -154 l 375 0 l 443 0 l 408 -97 l 419 -97 q 549 -193 549 -97 q 506 -280 549 -251 q 385 -308 464 -308 z "},"Ț":{"ha":806,"x_min":51,"x_max":754,"o":"m 351 0 l 351 806 l 51 806 l 51 903 l 754 903 l 754 806 l 454 806 l 454 0 l 351 0 m 303 -407 l 300 -353 q 390 -332 363 -350 q 426 -276 418 -314 q 394 -282 411 -282 q 338 -260 358 -282 q 318 -208 318 -239 q 344 -153 318 -176 q 408 -131 369 -131 q 474 -155 444 -131 q 504 -235 504 -179 q 485 -312 504 -274 q 422 -378 467 -351 q 303 -407 378 -406 z "},"U":{"ha":806,"x_min":104,"x_max":701,"o":"m 403 -17 q 182 60 260 -17 q 104 279 104 138 l 104 903 l 207 903 l 207 293 q 404 82 207 82 q 601 293 601 82 l 601 903 l 701 903 l 701 279 q 624 60 701 138 q 403 -17 547 -17 z "},"Ú":{"ha":806,"x_min":104,"x_max":701,"o":"m 403 -17 q 182 60 260 -17 q 104 279 104 138 l 104 903 l 207 903 l 207 293 q 404 82 207 82 q 601 293 601 82 l 601 903 l 701 903 l 701 279 q 624 60 701 138 q 403 -17 547 -17 m 342 999 l 296 1061 l 513 1240 l 578 1153 l 342 999 z "},"Ŭ":{"ha":806,"x_min":104,"x_max":701,"o":"m 403 -17 q 182 60 260 -17 q 104 279 104 138 l 104 903 l 207 903 l 207 293 q 404 82 207 82 q 601 293 601 82 l 601 903 l 701 903 l 701 279 q 624 60 701 138 q 403 -17 547 -17 m 403 1019 q 288 1047 333 1019 q 219 1117 243 1074 q 188 1211 196 1161 l 271 1211 q 312 1140 276 1168 q 403 1113 347 1113 q 494 1140 458 1113 q 535 1211 529 1168 l 618 1211 q 587 1117 611 1161 q 517 1047 563 1074 q 403 1019 472 1019 z "},"Û":{"ha":806,"x_min":104,"x_max":701,"o":"m 403 -17 q 182 60 260 -17 q 104 279 104 138 l 104 903 l 207 903 l 207 293 q 404 82 207 82 q 601 293 601 82 l 601 903 l 701 903 l 701 279 q 624 60 701 138 q 403 -17 547 -17 m 214 999 l 168 1061 l 382 1236 l 421 1236 l 635 1061 l 589 999 l 401 1132 l 214 999 z "},"Ü":{"ha":806,"x_min":104,"x_max":701,"o":"m 403 -17 q 182 60 260 -17 q 104 279 104 138 l 104 903 l 207 903 l 207 293 q 404 82 207 82 q 601 293 601 82 l 601 903 l 701 903 l 701 279 q 624 60 701 138 q 403 -17 547 -17 m 253 1024 q 188 1050 214 1024 q 161 1115 161 1076 q 188 1181 161 1154 q 253 1207 214 1207 q 318 1181 292 1207 q 344 1115 344 1154 q 318 1050 344 1076 q 253 1024 292 1024 m 553 1024 q 488 1050 514 1024 q 461 1115 461 1076 q 488 1181 461 1154 q 553 1207 514 1207 q 618 1181 592 1207 q 644 1115 644 1154 q 618 1050 644 1076 q 553 1024 592 1024 z "},"Ù":{"ha":806,"x_min":104,"x_max":701,"o":"m 403 -17 q 182 60 260 -17 q 104 279 104 138 l 104 903 l 207 903 l 207 293 q 404 82 207 82 q 601 293 601 82 l 601 903 l 701 903 l 701 279 q 624 60 701 138 q 403 -17 547 -17 m 463 999 l 226 1153 l 292 1240 l 508 1061 l 463 999 z "},"Ű":{"ha":806,"x_min":104,"x_max":710,"o":"m 403 -17 q 182 60 260 -17 q 104 279 104 138 l 104 903 l 207 903 l 207 293 q 404 82 207 82 q 601 293 601 82 l 601 903 l 701 903 l 701 279 q 624 60 701 138 q 403 -17 547 -17 m 518 1000 l 467 1057 l 638 1231 l 710 1150 l 518 1000 m 215 1000 l 164 1057 l 335 1231 l 407 1150 l 215 1000 z "},"Ū":{"ha":806,"x_min":104,"x_max":701,"o":"m 403 -17 q 182 60 260 -17 q 104 279 104 138 l 104 903 l 207 903 l 207 293 q 404 82 207 82 q 601 293 601 82 l 601 903 l 701 903 l 701 279 q 624 60 701 138 q 403 -17 547 -17 m 215 1069 l 215 1161 l 590 1161 l 590 1069 l 215 1069 z "},"Ų":{"ha":806,"x_min":104,"x_max":701,"o":"m 469 -308 q 369 -275 407 -308 q 332 -183 332 -242 q 365 -80 332 -129 q 467 17 399 -31 l 544 8 q 442 -82 468 -37 q 415 -161 415 -126 q 432 -206 415 -190 q 476 -221 449 -221 q 513 -215 496 -221 q 543 -200 531 -208 l 565 -282 q 525 -300 549 -292 q 469 -308 501 -308 m 403 -17 q 182 60 260 -17 q 104 279 104 138 l 104 903 l 207 903 l 207 293 q 404 82 207 82 q 601 293 601 82 l 601 903 l 701 903 l 701 279 q 624 60 701 138 q 403 -17 547 -17 z "},"Ů":{"ha":806,"x_min":104,"x_max":701,"o":"m 403 -17 q 182 60 260 -17 q 104 279 104 138 l 104 903 l 207 903 l 207 293 q 404 82 207 82 q 601 293 601 82 l 601 903 l 701 903 l 701 279 q 624 60 701 138 q 403 -17 547 -17 m 403 958 q 292 1003 338 958 q 247 1115 247 1049 q 292 1227 247 1182 q 403 1272 338 1272 q 513 1227 468 1272 q 558 1115 558 1182 q 513 1003 558 1049 q 403 958 468 958 m 403 1038 q 454 1059 435 1038 q 474 1115 474 1081 q 454 1172 474 1150 q 403 1193 435 1193 q 352 1172 372 1193 q 332 1115 332 1150 q 352 1059 332 1081 q 403 1038 372 1038 z "},"Ũ":{"ha":806,"x_min":104,"x_max":701,"o":"m 403 -17 q 182 60 260 -17 q 104 279 104 138 l 104 903 l 207 903 l 207 293 q 404 82 207 82 q 601 293 601 82 l 601 903 l 701 903 l 701 279 q 624 60 701 138 q 403 -17 547 -17 m 249 1024 l 172 1038 q 226 1158 190 1115 q 318 1200 261 1200 q 383 1185 357 1200 q 431 1156 410 1171 q 461 1135 446 1144 q 492 1126 476 1126 q 528 1144 511 1126 q 557 1211 546 1163 l 632 1197 q 579 1078 615 1121 q 488 1035 543 1035 q 423 1049 449 1035 q 375 1079 397 1064 q 344 1099 360 1090 q 314 1108 329 1108 q 277 1090 294 1108 q 249 1024 260 1072 z "},"V":{"ha":806,"x_min":54,"x_max":751,"o":"m 342 0 l 54 903 l 163 903 l 406 126 l 649 903 l 751 903 l 464 0 l 342 0 z "},"W":{"ha":806,"x_min":13,"x_max":793,"o":"m 156 0 l 13 903 l 114 903 l 228 164 l 353 807 l 458 807 l 583 164 l 697 903 l 793 903 l 650 0 l 531 0 l 404 651 l 278 0 l 156 0 z "},"Ẃ":{"ha":806,"x_min":13,"x_max":793,"o":"m 156 0 l 13 903 l 114 903 l 228 164 l 353 807 l 458 807 l 583 164 l 697 903 l 793 903 l 650 0 l 531 0 l 404 651 l 278 0 l 156 0 m 342 999 l 296 1061 l 513 1240 l 578 1153 l 342 999 z "},"Ŵ":{"ha":806,"x_min":13,"x_max":793,"o":"m 156 0 l 13 903 l 114 903 l 228 164 l 353 807 l 458 807 l 583 164 l 697 903 l 793 903 l 650 0 l 531 0 l 404 651 l 278 0 l 156 0 m 214 999 l 168 1061 l 382 1236 l 421 1236 l 635 1061 l 589 999 l 401 1132 l 214 999 z "},"Ẅ":{"ha":806,"x_min":13,"x_max":793,"o":"m 156 0 l 13 903 l 114 903 l 228 164 l 353 807 l 458 807 l 583 164 l 697 903 l 793 903 l 650 0 l 531 0 l 404 651 l 278 0 l 156 0 m 253 1024 q 188 1050 214 1024 q 161 1115 161 1076 q 188 1181 161 1154 q 253 1207 214 1207 q 318 1181 292 1207 q 344 1115 344 1154 q 318 1050 344 1076 q 253 1024 292 1024 m 553 1024 q 488 1050 514 1024 q 461 1115 461 1076 q 488 1181 461 1154 q 553 1207 514 1207 q 618 1181 592 1207 q 644 1115 644 1154 q 618 1050 644 1076 q 553 1024 592 1024 z "},"Ẁ":{"ha":806,"x_min":13,"x_max":793,"o":"m 156 0 l 13 903 l 114 903 l 228 164 l 353 807 l 458 807 l 583 164 l 697 903 l 793 903 l 650 0 l 531 0 l 404 651 l 278 0 l 156 0 m 463 999 l 226 1153 l 292 1240 l 508 1061 l 463 999 z "},"X":{"ha":806,"x_min":74,"x_max":732,"o":"m 74 0 l 344 461 l 81 903 l 201 903 l 408 546 l 613 903 l 725 903 l 463 454 l 732 0 l 611 0 l 397 369 l 186 0 l 74 0 z "},"Y":{"ha":806,"x_min":47,"x_max":758,"o":"m 351 0 l 351 389 l 47 903 l 168 903 l 406 490 l 646 903 l 758 903 l 454 389 l 454 0 l 351 0 z "},"Ý":{"ha":806,"x_min":47,"x_max":758,"o":"m 351 0 l 351 389 l 47 903 l 168 903 l 406 490 l 646 903 l 758 903 l 454 389 l 454 0 l 351 0 m 342 999 l 296 1061 l 513 1240 l 578 1153 l 342 999 z "},"Ŷ":{"ha":806,"x_min":47,"x_max":758,"o":"m 351 0 l 351 389 l 47 903 l 168 903 l 406 490 l 646 903 l 758 903 l 454 389 l 454 0 l 351 0 m 214 999 l 168 1061 l 382 1236 l 421 1236 l 635 1061 l 589 999 l 401 1132 l 214 999 z "},"Ÿ":{"ha":806,"x_min":47,"x_max":758,"o":"m 351 0 l 351 389 l 47 903 l 168 903 l 406 490 l 646 903 l 758 903 l 454 389 l 454 0 l 351 0 m 253 1024 q 188 1050 214 1024 q 161 1115 161 1076 q 188 1181 161 1154 q 253 1207 214 1207 q 318 1181 292 1207 q 344 1115 344 1154 q 318 1050 344 1076 q 253 1024 292 1024 m 553 1024 q 488 1050 514 1024 q 461 1115 461 1076 q 488 1181 461 1154 q 553 1207 514 1207 q 618 1181 592 1207 q 644 1115 644 1154 q 618 1050 644 1076 q 553 1024 592 1024 z "},"Ỳ":{"ha":806,"x_min":47,"x_max":758,"o":"m 351 0 l 351 389 l 47 903 l 168 903 l 406 490 l 646 903 l 758 903 l 454 389 l 454 0 l 351 0 m 463 999 l 226 1153 l 292 1240 l 508 1061 l 463 999 z "},"Z":{"ha":806,"x_min":100,"x_max":703,"o":"m 100 0 l 100 81 l 571 806 l 122 806 l 122 903 l 703 903 l 703 822 l 233 97 l 703 97 l 703 0 l 100 0 z "},"Ź":{"ha":806,"x_min":100,"x_max":703,"o":"m 100 0 l 100 81 l 571 806 l 122 806 l 122 903 l 703 903 l 703 822 l 233 97 l 703 97 l 703 0 l 100 0 m 351 999 l 306 1061 l 522 1240 l 588 1153 l 351 999 z "},"Ž":{"ha":806,"x_min":100,"x_max":703,"o":"m 100 0 l 100 81 l 571 806 l 122 806 l 122 903 l 703 903 l 703 822 l 233 97 l 703 97 l 703 0 l 100 0 m 392 999 l 178 1174 l 224 1236 l 411 1103 l 599 1236 l 644 1174 l 431 999 l 392 999 z "},"Ż":{"ha":806,"x_min":100,"x_max":703,"o":"m 100 0 l 100 81 l 571 806 l 122 806 l 122 903 l 703 903 l 703 822 l 233 97 l 703 97 l 703 0 l 100 0 m 413 1019 q 345 1048 374 1019 q 317 1115 317 1076 q 345 1183 317 1156 q 413 1211 374 1211 q 481 1183 453 1211 q 508 1115 508 1156 q 481 1048 508 1076 q 413 1019 453 1019 z "},"a":{"ha":806,"x_min":92,"x_max":686,"o":"m 342 -17 q 157 38 222 -17 q 92 190 92 93 q 153 332 92 283 q 336 381 214 381 l 586 381 l 586 408 q 544 537 586 499 q 400 575 501 575 q 164 518 269 575 l 132 606 q 404 669 251 669 q 619 610 551 669 q 686 424 686 551 l 686 0 l 611 0 l 599 69 q 478 5 542 26 q 342 -17 414 -17 m 356 78 q 586 153 486 78 l 586 292 l 333 292 q 228 266 263 292 q 194 190 194 240 q 235 106 194 135 q 356 78 275 78 z "},"á":{"ha":806,"x_min":92,"x_max":686,"o":"m 342 -17 q 157 38 222 -17 q 92 190 92 93 q 153 332 92 283 q 336 381 214 381 l 586 381 l 586 408 q 544 537 586 499 q 400 575 501 575 q 164 518 269 575 l 132 606 q 404 669 251 669 q 619 610 551 669 q 686 424 686 551 l 686 0 l 611 0 l 599 69 q 478 5 542 26 q 342 -17 414 -17 m 356 78 q 586 153 486 78 l 586 292 l 333 292 q 228 266 263 292 q 194 190 194 240 q 235 106 194 135 q 356 78 275 78 m 349 769 l 290 819 l 490 1046 l 572 974 l 349 769 z "},"ă":{"ha":806,"x_min":92,"x_max":686,"o":"m 342 -17 q 157 38 222 -17 q 92 190 92 93 q 153 332 92 283 q 336 381 214 381 l 586 381 l 586 408 q 544 537 586 499 q 400 575 501 575 q 164 518 269 575 l 132 606 q 404 669 251 669 q 619 610 551 669 q 686 424 686 551 l 686 0 l 611 0 l 599 69 q 478 5 542 26 q 342 -17 414 -17 m 356 78 q 586 153 486 78 l 586 292 l 333 292 q 228 266 263 292 q 194 190 194 240 q 235 106 194 135 q 356 78 275 78 m 397 797 q 281 826 325 797 q 215 903 238 854 q 182 1017 193 953 l 265 1017 q 309 922 276 953 q 397 890 342 890 q 486 922 453 890 q 529 1017 519 953 l 613 1017 q 579 903 601 953 q 514 826 557 854 q 397 797 471 797 z "},"â":{"ha":806,"x_min":92,"x_max":686,"o":"m 342 -17 q 157 38 222 -17 q 92 190 92 93 q 153 332 92 283 q 336 381 214 381 l 586 381 l 586 408 q 544 537 586 499 q 400 575 501 575 q 164 518 269 575 l 132 606 q 404 669 251 669 q 619 610 551 669 q 686 424 686 551 l 686 0 l 611 0 l 599 69 q 478 5 542 26 q 342 -17 414 -17 m 356 78 q 586 153 486 78 l 586 292 l 333 292 q 228 266 263 292 q 194 190 194 240 q 235 106 194 135 q 356 78 275 78 m 221 769 l 163 819 l 376 1046 l 415 1046 l 629 819 l 571 769 l 396 929 l 221 769 z "},"ä":{"ha":806,"x_min":92,"x_max":686,"o":"m 342 -17 q 157 38 222 -17 q 92 190 92 93 q 153 332 92 283 q 336 381 214 381 l 586 381 l 586 408 q 544 537 586 499 q 400 575 501 575 q 164 518 269 575 l 132 606 q 404 669 251 669 q 619 610 551 669 q 686 424 686 551 l 686 0 l 611 0 l 599 69 q 478 5 542 26 q 342 -17 414 -17 m 356 78 q 586 153 486 78 l 586 292 l 333 292 q 228 266 263 292 q 194 190 194 240 q 235 106 194 135 q 356 78 275 78 m 247 815 q 182 842 208 815 q 156 907 156 868 q 182 972 156 946 q 247 999 208 999 q 313 972 286 999 q 339 907 339 946 q 313 842 339 868 q 247 815 286 815 m 547 815 q 482 842 508 815 q 456 907 456 868 q 482 972 456 946 q 547 999 508 999 q 613 972 586 999 q 639 907 639 946 q 613 842 639 868 q 547 815 586 815 z "},"à":{"ha":806,"x_min":92,"x_max":686,"o":"m 342 -17 q 157 38 222 -17 q 92 190 92 93 q 153 332 92 283 q 336 381 214 381 l 586 381 l 586 408 q 544 537 586 499 q 400 575 501 575 q 164 518 269 575 l 132 606 q 404 669 251 669 q 619 610 551 669 q 686 424 686 551 l 686 0 l 611 0 l 599 69 q 478 5 542 26 q 342 -17 414 -17 m 356 78 q 586 153 486 78 l 586 292 l 333 292 q 228 266 263 292 q 194 190 194 240 q 235 106 194 135 q 356 78 275 78 m 444 769 l 221 974 l 303 1046 l 503 819 l 444 769 z "},"ā":{"ha":806,"x_min":92,"x_max":686,"o":"m 342 -17 q 157 38 222 -17 q 92 190 92 93 q 153 332 92 283 q 336 381 214 381 l 586 381 l 586 408 q 544 537 586 499 q 400 575 501 575 q 164 518 269 575 l 132 606 q 404 669 251 669 q 619 610 551 669 q 686 424 686 551 l 686 0 l 611 0 l 599 69 q 478 5 542 26 q 342 -17 414 -17 m 356 78 q 586 153 486 78 l 586 292 l 333 292 q 228 266 263 292 q 194 190 194 240 q 235 106 194 135 q 356 78 275 78 m 210 861 l 210 953 l 585 953 l 585 861 l 210 861 z "},"ą":{"ha":806,"x_min":92,"x_max":686,"o":"m 594 -308 q 498 -275 535 -308 q 461 -183 461 -242 q 495 -78 461 -132 q 610 31 529 -24 l 669 8 q 571 -85 597 -40 q 544 -161 544 -129 q 560 -206 544 -190 q 601 -221 576 -221 q 635 -215 619 -221 q 664 -200 651 -208 l 686 -283 q 647 -301 671 -293 q 594 -308 624 -308 m 342 -17 q 157 38 222 -17 q 92 190 92 93 q 153 332 92 283 q 336 381 214 381 l 586 381 l 586 408 q 544 537 586 499 q 400 575 501 575 q 164 518 269 575 l 132 606 q 404 669 251 669 q 619 610 551 669 q 686 424 686 551 l 686 0 l 611 0 l 599 69 q 478 5 542 26 q 342 -17 414 -17 m 356 78 q 586 153 486 78 l 586 292 l 333 292 q 228 266 263 292 q 194 190 194 240 q 235 106 194 135 q 356 78 275 78 z "},"å":{"ha":806,"x_min":92,"x_max":686,"o":"m 342 -17 q 157 38 222 -17 q 92 190 92 93 q 153 332 92 283 q 336 381 214 381 l 586 381 l 586 408 q 544 537 586 499 q 400 575 501 575 q 164 518 269 575 l 132 606 q 404 669 251 669 q 619 610 551 669 q 686 424 686 551 l 686 0 l 611 0 l 599 69 q 478 5 542 26 q 342 -17 414 -17 m 356 78 q 586 153 486 78 l 586 292 l 333 292 q 228 266 263 292 q 194 190 194 240 q 235 106 194 135 q 356 78 275 78 m 397 750 q 287 795 332 750 q 242 907 242 840 q 287 1019 242 974 q 397 1064 332 1064 q 508 1019 463 1064 q 553 907 553 974 q 508 795 553 840 q 397 750 463 750 m 397 829 q 449 851 429 829 q 468 907 468 872 q 449 963 468 942 q 397 985 429 985 q 347 963 367 985 q 326 907 326 942 q 347 851 326 872 q 397 829 367 829 z "},"ã":{"ha":806,"x_min":92,"x_max":686,"o":"m 342 -17 q 157 38 222 -17 q 92 190 92 93 q 153 332 92 283 q 336 381 214 381 l 586 381 l 586 408 q 544 537 586 499 q 400 575 501 575 q 164 518 269 575 l 132 606 q 404 669 251 669 q 619 610 551 669 q 686 424 686 551 l 686 0 l 611 0 l 599 69 q 478 5 542 26 q 342 -17 414 -17 m 356 78 q 586 153 486 78 l 586 292 l 333 292 q 228 266 263 292 q 194 190 194 240 q 235 106 194 135 q 356 78 275 78 m 242 800 l 167 814 q 219 949 183 901 q 313 997 254 997 q 378 979 351 997 q 425 942 404 961 q 456 917 440 928 q 486 906 471 906 q 524 928 506 906 q 553 1011 542 951 l 628 997 q 576 862 611 910 q 482 814 540 814 q 417 832 443 814 q 369 869 390 850 q 339 895 354 885 q 308 906 324 906 q 271 883 289 906 q 242 800 253 861 z "},"æ":{"ha":806,"x_min":19,"x_max":782,"o":"m 217 -17 q 73 38 126 -17 q 19 183 19 92 q 81 329 19 279 q 256 379 142 379 l 338 379 l 338 401 q 306 535 338 493 q 208 578 274 578 q 71 531 135 578 l 29 613 q 113 654 67 639 q 218 669 160 669 q 393 560 354 669 l 396 560 q 568 669 446 669 q 726 587 671 669 q 781 349 781 504 q 781 324 781 333 q 778 293 781 315 l 435 293 q 478 127 440 179 q 597 75 517 75 q 742 122 675 75 l 782 40 q 699 -1 744 14 q 594 -17 653 -17 q 400 72 464 -17 q 217 -17 325 -17 m 233 75 q 303 90 272 75 q 364 142 333 106 q 347 212 353 174 q 338 293 340 250 l 253 293 q 118 182 118 293 q 148 103 118 131 q 233 75 178 75 m 436 379 l 685 379 q 649 528 681 479 q 561 578 618 578 q 474 528 506 578 q 436 379 443 478 z "},"ǽ":{"ha":806,"x_min":19,"x_max":782,"o":"m 217 -17 q 73 38 126 -17 q 19 183 19 92 q 81 329 19 279 q 256 379 142 379 l 338 379 l 338 401 q 306 535 338 493 q 208 578 274 578 q 71 531 135 578 l 29 613 q 113 654 67 639 q 218 669 160 669 q 393 560 354 669 l 396 560 q 568 669 446 669 q 726 587 671 669 q 781 349 781 504 q 781 324 781 333 q 778 293 781 315 l 435 293 q 478 127 440 179 q 597 75 517 75 q 742 122 675 75 l 782 40 q 699 -1 744 14 q 594 -17 653 -17 q 400 72 464 -17 q 217 -17 325 -17 m 233 75 q 303 90 272 75 q 364 142 333 106 q 347 212 353 174 q 338 293 340 250 l 253 293 q 118 182 118 293 q 148 103 118 131 q 233 75 178 75 m 436 379 l 685 379 q 649 528 681 479 q 561 578 618 578 q 474 528 506 578 q 436 379 443 478 m 354 769 l 296 819 l 496 1046 l 578 974 l 354 769 z "},"b":{"ha":806,"x_min":113,"x_max":725,"o":"m 439 -17 q 199 69 313 -17 l 188 0 l 113 0 l 113 986 l 213 986 l 213 593 q 323 650 265 631 q 439 669 381 669 q 648 576 571 669 q 725 326 725 483 q 648 76 725 169 q 439 -17 571 -17 m 422 78 q 569 144 517 78 q 622 326 622 211 q 569 508 622 442 q 422 575 517 575 q 315 556 371 575 q 213 501 258 536 l 213 151 q 315 97 258 117 q 422 78 371 78 z "},"c":{"ha":806,"x_min":108,"x_max":715,"o":"m 456 -17 q 269 25 347 -17 q 150 144 192 67 q 108 326 108 221 q 150 510 108 433 q 269 628 192 586 q 456 669 347 669 q 694 601 585 669 l 656 518 q 558 561 608 547 q 456 575 508 575 q 275 510 339 575 q 211 326 211 446 q 275 142 211 207 q 456 78 339 78 q 567 94 514 78 q 674 146 621 111 l 715 65 q 456 -17 599 -17 z "},"ć":{"ha":806,"x_min":108,"x_max":715,"o":"m 456 -17 q 269 25 347 -17 q 150 144 192 67 q 108 326 108 221 q 150 510 108 433 q 269 628 192 586 q 456 669 347 669 q 694 601 585 669 l 656 518 q 558 561 608 547 q 456 575 508 575 q 275 510 339 575 q 211 326 211 446 q 275 142 211 207 q 456 78 339 78 q 567 94 514 78 q 674 146 621 111 l 715 65 q 456 -17 599 -17 m 371 769 l 313 819 l 513 1046 l 594 974 l 371 769 z "},"č":{"ha":806,"x_min":108,"x_max":715,"o":"m 456 -17 q 269 25 347 -17 q 150 144 192 67 q 108 326 108 221 q 150 510 108 433 q 269 628 192 586 q 456 669 347 669 q 694 601 585 669 l 656 518 q 558 561 608 547 q 456 575 508 575 q 275 510 339 575 q 211 326 211 446 q 275 142 211 207 q 456 78 339 78 q 567 94 514 78 q 674 146 621 111 l 715 65 q 456 -17 599 -17 m 399 769 l 185 996 l 243 1046 l 418 886 l 593 1046 l 651 996 l 438 769 l 399 769 z "},"ç":{"ha":806,"x_min":108,"x_max":715,"o":"m 456 -17 q 269 25 347 -17 q 150 144 192 67 q 108 326 108 221 q 150 510 108 433 q 269 628 192 586 q 456 669 347 669 q 694 601 585 669 l 656 518 q 558 561 608 547 q 456 575 508 575 q 275 510 339 575 q 211 326 211 446 q 275 142 211 207 q 456 78 339 78 q 567 94 514 78 q 674 146 621 111 l 715 65 q 456 -17 599 -17 m 415 -308 q 338 -300 372 -308 q 274 -279 303 -292 l 293 -210 q 350 -228 318 -221 q 417 -236 382 -236 q 476 -224 458 -236 q 493 -190 493 -212 q 478 -162 493 -171 q 425 -154 463 -154 l 351 -154 l 406 0 l 474 0 l 439 -97 l 450 -97 q 579 -193 579 -97 q 537 -280 579 -251 q 415 -308 494 -308 z "},"ĉ":{"ha":806,"x_min":108,"x_max":715,"o":"m 456 -17 q 269 25 347 -17 q 150 144 192 67 q 108 326 108 221 q 150 510 108 433 q 269 628 192 586 q 456 669 347 669 q 694 601 585 669 l 656 518 q 558 561 608 547 q 456 575 508 575 q 275 510 339 575 q 211 326 211 446 q 275 142 211 207 q 456 78 339 78 q 567 94 514 78 q 674 146 621 111 l 715 65 q 456 -17 599 -17 m 243 769 l 185 819 l 399 1046 l 438 1046 l 651 819 l 593 769 l 418 929 l 243 769 z "},"ċ":{"ha":806,"x_min":108,"x_max":715,"o":"m 456 -17 q 269 25 347 -17 q 150 144 192 67 q 108 326 108 221 q 150 510 108 433 q 269 628 192 586 q 456 669 347 669 q 694 601 585 669 l 656 518 q 558 561 608 547 q 456 575 508 575 q 275 510 339 575 q 211 326 211 446 q 275 142 211 207 q 456 78 339 78 q 567 94 514 78 q 674 146 621 111 l 715 65 q 456 -17 599 -17 m 419 811 q 352 840 381 811 q 324 907 324 868 q 352 975 324 947 q 419 1003 381 1003 q 488 975 460 1003 q 515 907 515 947 q 488 840 515 868 q 419 811 460 811 z "},"d":{"ha":806,"x_min":81,"x_max":693,"o":"m 367 -17 q 158 76 236 -17 q 81 326 81 169 q 158 576 81 483 q 367 669 236 669 q 483 650 425 669 q 593 593 540 631 l 593 986 l 693 986 l 693 0 l 618 0 l 607 69 q 367 -17 493 -17 m 383 78 q 492 97 436 78 q 593 151 547 117 l 593 501 q 492 556 547 536 q 383 575 436 575 q 237 508 290 575 q 183 326 183 442 q 237 144 183 211 q 383 78 290 78 z "},"ď":{"ha":806,"x_min":81,"x_max":907,"o":"m 367 -17 q 158 76 236 -17 q 81 326 81 169 q 158 576 81 483 q 367 669 236 669 q 483 650 425 669 q 593 593 540 631 l 593 986 l 693 986 l 693 0 l 618 0 l 607 69 q 367 -17 493 -17 m 383 78 q 492 97 436 78 q 593 151 547 117 l 593 501 q 492 556 547 536 q 383 575 436 575 q 237 508 290 575 q 183 326 183 442 q 237 144 183 211 q 383 78 290 78 m 789 728 l 731 767 q 781 847 767 806 q 794 928 794 888 q 793 958 794 943 q 789 986 792 972 l 907 1003 q 899 913 907 958 q 865 821 890 867 q 789 728 840 775 z "},"đ":{"ha":806,"x_min":81,"x_max":819,"o":"m 367 -17 q 215 24 279 -17 q 116 137 151 65 q 81 299 81 208 q 116 461 81 390 q 215 573 151 532 q 367 614 279 614 q 483 594 425 614 q 593 538 540 575 l 593 750 l 364 750 l 364 836 l 593 836 l 593 986 l 693 986 l 693 836 l 819 836 l 819 750 l 693 750 l 693 0 l 618 0 l 607 69 q 367 -17 493 -17 m 383 78 q 492 97 436 78 q 593 151 547 117 l 593 446 q 492 500 547 481 q 383 519 436 519 q 237 456 290 519 q 183 299 183 393 q 237 141 183 204 q 383 78 290 78 z "},"ð":{"ha":806,"x_min":68,"x_max":729,"o":"m 392 -17 q 220 23 293 -17 q 108 133 147 63 q 68 294 68 203 q 108 456 68 388 q 221 563 149 525 q 386 601 293 601 q 510 579 456 601 q 608 511 565 557 l 611 511 q 476 757 576 657 l 201 643 l 171 724 l 411 813 q 301 874 361 849 q 174 913 242 899 l 199 1003 q 368 946 289 985 q 511 851 447 907 l 658 917 l 689 836 l 571 793 q 687 603 644 711 q 729 369 729 496 q 688 160 729 246 q 570 28 646 74 q 392 -17 494 -17 m 394 78 q 566 149 506 78 q 626 368 626 221 l 626 382 q 528 479 581 450 q 403 508 476 508 q 231 451 292 508 q 171 296 171 394 q 230 136 171 194 q 394 78 289 78 z "},"e":{"ha":806,"x_min":79,"x_max":728,"o":"m 440 -17 q 176 75 272 -17 q 79 326 79 167 q 121 508 79 432 q 238 627 163 585 q 413 669 313 669 q 581 630 510 669 q 690 519 651 590 q 728 349 728 447 q 728 321 728 335 q 725 292 728 307 l 183 292 q 260 133 193 189 q 443 78 326 78 q 664 146 560 78 l 707 64 q 579 3 644 22 q 440 -17 514 -17 m 186 381 l 626 381 q 561 524 617 472 q 411 575 506 575 q 259 524 318 575 q 186 381 200 472 z "},"é":{"ha":806,"x_min":79,"x_max":728,"o":"m 440 -17 q 176 75 272 -17 q 79 326 79 167 q 121 508 79 432 q 238 627 163 585 q 413 669 313 669 q 581 630 510 669 q 690 519 651 590 q 728 349 728 447 q 728 321 728 335 q 725 292 728 307 l 183 292 q 260 133 193 189 q 443 78 326 78 q 664 146 560 78 l 707 64 q 579 3 644 22 q 440 -17 514 -17 m 186 381 l 626 381 q 561 524 617 472 q 411 575 506 575 q 259 524 318 575 q 186 381 200 472 m 364 769 l 306 819 l 506 1046 l 588 974 l 364 769 z "},"ĕ":{"ha":806,"x_min":79,"x_max":728,"o":"m 440 -17 q 176 75 272 -17 q 79 326 79 167 q 121 508 79 432 q 238 627 163 585 q 413 669 313 669 q 581 630 510 669 q 690 519 651 590 q 728 349 728 447 q 728 321 728 335 q 725 292 728 307 l 183 292 q 260 133 193 189 q 443 78 326 78 q 664 146 560 78 l 707 64 q 579 3 644 22 q 440 -17 514 -17 m 186 381 l 626 381 q 561 524 617 472 q 411 575 506 575 q 259 524 318 575 q 186 381 200 472 m 413 797 q 297 826 340 797 q 231 903 253 854 q 197 1017 208 953 l 281 1017 q 324 922 292 953 q 413 890 357 890 q 501 922 468 890 q 544 1017 535 953 l 628 1017 q 594 903 617 953 q 529 826 572 854 q 413 797 486 797 z "},"ě":{"ha":806,"x_min":79,"x_max":728,"o":"m 440 -17 q 176 75 272 -17 q 79 326 79 167 q 121 508 79 432 q 238 627 163 585 q 413 669 313 669 q 581 630 510 669 q 690 519 651 590 q 728 349 728 447 q 728 321 728 335 q 725 292 728 307 l 183 292 q 260 133 193 189 q 443 78 326 78 q 664 146 560 78 l 707 64 q 579 3 644 22 q 440 -17 514 -17 m 186 381 l 626 381 q 561 524 617 472 q 411 575 506 575 q 259 524 318 575 q 186 381 200 472 m 392 769 l 178 996 l 236 1046 l 411 886 l 586 1046 l 644 996 l 431 769 l 392 769 z "},"ê":{"ha":806,"x_min":79,"x_max":728,"o":"m 440 -17 q 176 75 272 -17 q 79 326 79 167 q 121 508 79 432 q 238 627 163 585 q 413 669 313 669 q 581 630 510 669 q 690 519 651 590 q 728 349 728 447 q 728 321 728 335 q 725 292 728 307 l 183 292 q 260 133 193 189 q 443 78 326 78 q 664 146 560 78 l 707 64 q 579 3 644 22 q 440 -17 514 -17 m 186 381 l 626 381 q 561 524 617 472 q 411 575 506 575 q 259 524 318 575 q 186 381 200 472 m 236 769 l 178 819 l 392 1046 l 431 1046 l 644 819 l 586 769 l 411 929 l 236 769 z "},"ë":{"ha":806,"x_min":79,"x_max":728,"o":"m 440 -17 q 176 75 272 -17 q 79 326 79 167 q 121 508 79 432 q 238 627 163 585 q 413 669 313 669 q 581 630 510 669 q 690 519 651 590 q 728 349 728 447 q 728 321 728 335 q 725 292 728 307 l 183 292 q 260 133 193 189 q 443 78 326 78 q 664 146 560 78 l 707 64 q 579 3 644 22 q 440 -17 514 -17 m 186 381 l 626 381 q 561 524 617 472 q 411 575 506 575 q 259 524 318 575 q 186 381 200 472 m 263 815 q 197 842 224 815 q 171 907 171 868 q 197 972 171 946 q 263 999 224 999 q 328 972 301 999 q 354 907 354 946 q 328 842 354 868 q 263 815 301 815 m 563 815 q 497 842 524 815 q 471 907 471 868 q 497 972 471 946 q 563 999 524 999 q 628 972 601 999 q 654 907 654 946 q 628 842 654 868 q 563 815 601 815 z "},"ė":{"ha":806,"x_min":79,"x_max":728,"o":"m 440 -17 q 176 75 272 -17 q 79 326 79 167 q 121 508 79 432 q 238 627 163 585 q 413 669 313 669 q 581 630 510 669 q 690 519 651 590 q 728 349 728 447 q 728 321 728 335 q 725 292 728 307 l 183 292 q 260 133 193 189 q 443 78 326 78 q 664 146 560 78 l 707 64 q 579 3 644 22 q 440 -17 514 -17 m 186 381 l 626 381 q 561 524 617 472 q 411 575 506 575 q 259 524 318 575 q 186 381 200 472 m 413 811 q 345 840 374 811 q 317 907 317 868 q 345 975 317 947 q 413 1003 374 1003 q 481 975 453 1003 q 508 907 508 947 q 481 840 508 868 q 413 811 453 811 z "},"è":{"ha":806,"x_min":79,"x_max":728,"o":"m 440 -17 q 176 75 272 -17 q 79 326 79 167 q 121 508 79 432 q 238 627 163 585 q 413 669 313 669 q 581 630 510 669 q 690 519 651 590 q 728 349 728 447 q 728 321 728 335 q 725 292 728 307 l 183 292 q 260 133 193 189 q 443 78 326 78 q 664 146 560 78 l 707 64 q 579 3 644 22 q 440 -17 514 -17 m 186 381 l 626 381 q 561 524 617 472 q 411 575 506 575 q 259 524 318 575 q 186 381 200 472 m 460 769 l 236 974 l 318 1046 l 518 819 l 460 769 z "},"ē":{"ha":806,"x_min":79,"x_max":728,"o":"m 440 -17 q 176 75 272 -17 q 79 326 79 167 q 121 508 79 432 q 238 627 163 585 q 413 669 313 669 q 581 630 510 669 q 690 519 651 590 q 728 349 728 447 q 728 321 728 335 q 725 292 728 307 l 183 292 q 260 133 193 189 q 443 78 326 78 q 664 146 560 78 l 707 64 q 579 3 644 22 q 440 -17 514 -17 m 186 381 l 626 381 q 561 524 617 472 q 411 575 506 575 q 259 524 318 575 q 186 381 200 472 m 225 861 l 225 953 l 600 953 l 600 861 l 225 861 z "},"ę":{"ha":806,"x_min":79,"x_max":728,"o":"m 585 -308 q 485 -275 522 -308 q 447 -183 447 -242 q 478 -78 447 -132 q 574 32 508 -25 l 675 46 q 561 -72 592 -18 q 531 -161 531 -125 q 547 -206 531 -190 q 592 -221 564 -221 q 628 -215 611 -221 q 658 -200 646 -208 l 681 -282 q 640 -300 664 -292 q 585 -308 617 -308 m 440 -17 q 176 75 272 -17 q 79 326 79 167 q 121 508 79 432 q 238 627 163 585 q 413 669 313 669 q 581 630 510 669 q 690 519 651 590 q 728 349 728 447 q 728 321 728 335 q 725 292 728 307 l 183 292 q 260 133 193 189 q 443 78 326 78 q 664 146 560 78 l 707 64 q 579 3 644 22 q 440 -17 514 -17 m 186 381 l 626 381 q 561 524 617 472 q 411 575 506 575 q 259 524 318 575 q 186 381 200 472 z "},"f":{"ha":806,"x_min":107,"x_max":771,"o":"m 322 0 l 322 561 l 107 561 l 107 653 l 322 653 l 322 757 q 387 941 322 879 q 578 1003 451 1003 q 771 958 683 1003 l 744 869 q 586 908 667 908 q 463 867 504 908 q 422 742 422 825 l 422 653 l 700 653 l 700 561 l 422 561 l 422 0 l 322 0 z "},"g":{"ha":806,"x_min":81,"x_max":693,"o":"m 382 -308 q 246 -292 313 -308 q 118 -244 179 -276 l 154 -157 q 262 -199 206 -185 q 379 -214 318 -214 q 540 -165 488 -214 q 593 -19 593 -117 l 593 74 q 483 17 540 36 q 367 -3 425 -3 q 215 40 279 -3 q 116 158 151 82 q 81 333 81 233 q 116 509 81 433 q 215 627 151 585 q 367 669 279 669 q 607 583 493 669 l 618 653 l 693 653 l 693 -32 q 615 -235 693 -162 q 382 -308 538 -308 m 383 92 q 492 111 436 92 q 593 165 547 131 l 593 501 q 492 556 547 536 q 383 575 436 575 q 237 508 290 575 q 183 333 183 442 q 237 158 183 225 q 383 92 290 92 z "},"ğ":{"ha":806,"x_min":81,"x_max":693,"o":"m 382 -308 q 246 -292 313 -308 q 118 -244 179 -276 l 154 -157 q 262 -199 206 -185 q 379 -214 318 -214 q 540 -165 488 -214 q 593 -19 593 -117 l 593 74 q 483 17 540 36 q 367 -3 425 -3 q 215 40 279 -3 q 116 158 151 82 q 81 333 81 233 q 116 509 81 433 q 215 627 151 585 q 367 669 279 669 q 607 583 493 669 l 618 653 l 693 653 l 693 -32 q 615 -235 693 -162 q 382 -308 538 -308 m 383 92 q 492 111 436 92 q 593 165 547 131 l 593 501 q 492 556 547 536 q 383 575 436 575 q 237 508 290 575 q 183 333 183 442 q 237 158 183 225 q 383 92 290 92 m 386 797 q 270 826 314 797 q 204 903 226 854 q 171 1017 182 953 l 254 1017 q 298 922 265 953 q 386 890 331 890 q 475 922 442 890 q 518 1017 508 953 l 601 1017 q 568 903 590 953 q 503 826 546 854 q 386 797 460 797 z "},"ĝ":{"ha":806,"x_min":81,"x_max":693,"o":"m 382 -308 q 246 -292 313 -308 q 118 -244 179 -276 l 154 -157 q 262 -199 206 -185 q 379 -214 318 -214 q 540 -165 488 -214 q 593 -19 593 -117 l 593 74 q 483 17 540 36 q 367 -3 425 -3 q 215 40 279 -3 q 116 158 151 82 q 81 333 81 233 q 116 509 81 433 q 215 627 151 585 q 367 669 279 669 q 607 583 493 669 l 618 653 l 693 653 l 693 -32 q 615 -235 693 -162 q 382 -308 538 -308 m 383 92 q 492 111 436 92 q 593 165 547 131 l 593 501 q 492 556 547 536 q 383 575 436 575 q 237 508 290 575 q 183 333 183 442 q 237 158 183 225 q 383 92 290 92 m 210 769 l 151 819 l 365 1046 l 404 1046 l 618 819 l 560 769 l 385 929 l 210 769 z "},"ģ":{"ha":806,"x_min":81,"x_max":693,"o":"m 382 -308 q 246 -292 313 -308 q 118 -244 179 -276 l 154 -157 q 262 -199 206 -185 q 379 -214 318 -214 q 540 -165 488 -214 q 593 -19 593 -117 l 593 74 q 483 17 540 36 q 367 -3 425 -3 q 215 40 279 -3 q 116 158 151 82 q 81 333 81 233 q 116 509 81 433 q 215 627 151 585 q 367 669 279 669 q 607 583 493 669 l 618 653 l 693 653 l 693 -32 q 615 -235 693 -162 q 382 -308 538 -308 m 383 92 q 492 111 436 92 q 593 165 547 131 l 593 501 q 492 556 547 536 q 383 575 436 575 q 237 508 290 575 q 183 333 183 442 q 237 158 183 225 q 383 92 290 92 m 393 921 q 449 900 429 921 q 469 847 469 879 q 444 792 469 815 q 379 769 419 769 q 313 794 343 769 q 283 874 283 818 q 303 952 283 913 q 366 1018 322 992 q 485 1046 410 1044 l 488 992 q 397 972 425 990 q 361 915 369 953 q 393 921 376 921 z "},"ġ":{"ha":806,"x_min":81,"x_max":693,"o":"m 382 -308 q 246 -292 313 -308 q 118 -244 179 -276 l 154 -157 q 262 -199 206 -185 q 379 -214 318 -214 q 540 -165 488 -214 q 593 -19 593 -117 l 593 74 q 483 17 540 36 q 367 -3 425 -3 q 215 40 279 -3 q 116 158 151 82 q 81 333 81 233 q 116 509 81 433 q 215 627 151 585 q 367 669 279 669 q 607 583 493 669 l 618 653 l 693 653 l 693 -32 q 615 -235 693 -162 q 382 -308 538 -308 m 383 92 q 492 111 436 92 q 593 165 547 131 l 593 501 q 492 556 547 536 q 383 575 436 575 q 237 508 290 575 q 183 333 183 442 q 237 158 183 225 q 383 92 290 92 m 386 811 q 319 840 347 811 q 290 907 290 868 q 319 975 290 947 q 386 1003 347 1003 q 454 975 426 1003 q 482 907 482 947 q 454 840 482 868 q 386 811 426 811 z "},"h":{"ha":806,"x_min":124,"x_max":690,"o":"m 124 0 l 124 986 l 224 986 l 224 593 q 457 669 329 669 q 631 608 572 669 q 690 424 690 547 l 690 0 l 590 0 l 590 408 q 554 535 590 496 q 440 575 518 575 q 328 556 385 575 q 224 501 272 538 l 224 0 l 124 0 z "},"ħ":{"ha":806,"x_min":-14,"x_max":690,"o":"m 124 0 l 124 750 l -14 750 l -14 836 l 124 836 l 124 986 l 224 986 l 224 836 l 442 836 l 442 750 l 224 750 l 224 538 q 457 614 329 614 q 631 553 572 614 q 690 368 690 492 l 690 0 l 590 0 l 590 353 q 554 480 590 440 q 440 519 518 519 q 328 501 385 519 q 224 446 272 482 l 224 0 l 124 0 z "},"ĥ":{"ha":806,"x_min":-61,"x_max":690,"o":"m 124 0 l 124 986 l 224 986 l 224 593 q 457 669 329 669 q 631 608 572 669 q 690 424 690 547 l 690 0 l 590 0 l 590 408 q 554 535 590 496 q 440 575 518 575 q 328 556 385 575 q 224 501 272 538 l 224 0 l 124 0 m -15 1040 l -61 1103 l 153 1278 l 192 1278 l 406 1103 l 360 1040 l 172 1174 l -15 1040 z "},"i":{"ha":806,"x_min":75,"x_max":731,"o":"m 353 0 l 353 561 l 75 561 l 75 653 l 453 653 l 453 92 l 731 92 l 731 0 l 353 0 m 389 811 q 322 840 350 811 q 293 907 293 868 q 322 975 293 947 q 389 1003 350 1003 q 457 975 429 1003 q 485 907 485 947 q 457 840 485 868 q 389 811 429 811 z "},"ı":{"ha":806,"x_min":75,"x_max":731,"o":"m 353 0 l 353 561 l 75 561 l 75 653 l 453 653 l 453 92 l 731 92 l 731 0 l 353 0 z "},"í":{"ha":806,"x_min":75,"x_max":731,"o":"m 353 0 l 353 561 l 75 561 l 75 653 l 453 653 l 453 92 l 731 92 l 731 0 l 353 0 m 340 769 l 282 819 l 482 1046 l 564 974 l 340 769 z "},"ĭ":{"ha":806,"x_min":75,"x_max":731,"o":"m 353 0 l 353 561 l 75 561 l 75 653 l 453 653 l 453 92 l 731 92 l 731 0 l 353 0 m 389 797 q 273 826 317 797 q 207 903 229 854 q 174 1017 185 953 l 257 1017 q 301 922 268 953 q 389 890 333 890 q 478 922 444 890 q 521 1017 511 953 l 604 1017 q 571 903 593 953 q 506 826 549 854 q 389 797 463 797 z "},"î":{"ha":806,"x_min":75,"x_max":731,"o":"m 353 0 l 353 561 l 75 561 l 75 653 l 453 653 l 453 92 l 731 92 l 731 0 l 353 0 m 213 769 l 154 819 l 368 1046 l 407 1046 l 621 819 l 563 769 l 388 929 l 213 769 z "},"ï":{"ha":806,"x_min":75,"x_max":731,"o":"m 353 0 l 353 561 l 75 561 l 75 653 l 453 653 l 453 92 l 731 92 l 731 0 l 353 0 m 239 815 q 174 842 200 815 q 147 907 147 868 q 174 972 147 946 q 239 999 200 999 q 304 972 278 999 q 331 907 331 946 q 304 842 331 868 q 239 815 278 815 m 539 815 q 474 842 500 815 q 447 907 447 868 q 474 972 447 946 q 539 999 500 999 q 604 972 578 999 q 631 907 631 946 q 604 842 631 868 q 539 815 578 815 z "},"ì":{"ha":806,"x_min":75,"x_max":731,"o":"m 353 0 l 353 561 l 75 561 l 75 653 l 453 653 l 453 92 l 731 92 l 731 0 l 353 0 m 436 769 l 213 974 l 294 1046 l 494 819 l 436 769 z "},"ī":{"ha":806,"x_min":75,"x_max":731,"o":"m 353 0 l 353 561 l 75 561 l 75 653 l 453 653 l 453 92 l 731 92 l 731 0 l 353 0 m 201 861 l 201 953 l 576 953 l 576 861 l 201 861 z "},"į":{"ha":806,"x_min":75,"x_max":731,"o":"m 456 -308 q 356 -272 393 -308 q 318 -171 318 -235 q 338 -74 318 -119 q 397 22 358 -29 l 454 0 q 413 -83 424 -46 q 401 -153 401 -121 q 418 -204 401 -187 q 463 -221 435 -221 q 499 -215 482 -221 q 529 -200 517 -208 l 551 -282 q 511 -300 535 -292 q 456 -308 488 -308 m 353 0 l 353 561 l 75 561 l 75 653 l 453 653 l 453 92 l 731 92 l 731 0 l 353 0 m 389 811 q 322 840 350 811 q 293 907 293 868 q 322 975 293 947 q 389 1003 350 1003 q 457 975 429 1003 q 485 907 485 947 q 457 840 485 868 q 389 811 429 811 z "},"ĩ":{"ha":806,"x_min":75,"x_max":731,"o":"m 353 0 l 353 561 l 75 561 l 75 653 l 453 653 l 453 92 l 731 92 l 731 0 l 353 0 m 233 800 l 158 814 q 210 949 175 901 q 304 997 246 997 q 369 979 343 997 q 417 942 396 961 q 447 917 432 928 q 478 906 463 906 q 515 928 497 906 q 544 1011 533 951 l 619 997 q 567 862 603 910 q 474 814 532 814 q 408 832 435 814 q 361 869 382 850 q 331 895 346 885 q 300 906 315 906 q 263 883 281 906 q 233 800 244 861 z "},"j":{"ha":806,"x_min":68,"x_max":594,"o":"m 304 -308 q 180 -292 239 -308 q 68 -246 121 -276 l 103 -158 q 197 -199 147 -185 q 296 -214 246 -214 q 419 -169 376 -214 q 463 -44 463 -125 l 463 561 l 186 561 l 186 653 l 563 653 l 563 -60 q 495 -244 563 -179 q 304 -308 428 -308 m 499 811 q 431 840 460 811 q 403 907 403 868 q 431 975 403 947 q 499 1003 460 1003 q 567 975 539 1003 q 594 907 594 947 q 567 840 594 868 q 499 811 539 811 z "},"ȷ":{"ha":806,"x_min":68,"x_max":563,"o":"m 304 -308 q 180 -292 239 -308 q 68 -246 121 -276 l 103 -158 q 197 -199 147 -185 q 296 -214 246 -214 q 419 -169 376 -214 q 463 -44 463 -125 l 463 561 l 186 561 l 186 653 l 563 653 l 563 -60 q 495 -244 563 -179 q 304 -308 428 -308 z "},"ĵ":{"ha":806,"x_min":68,"x_max":731,"o":"m 304 -308 q 180 -292 239 -308 q 68 -246 121 -276 l 103 -158 q 197 -199 147 -185 q 296 -214 246 -214 q 419 -169 376 -214 q 463 -44 463 -125 l 463 561 l 186 561 l 186 653 l 563 653 l 563 -60 q 495 -244 563 -179 q 304 -308 428 -308 m 322 769 l 264 819 l 478 1046 l 517 1046 l 731 819 l 672 769 l 497 929 l 322 769 z "},"k":{"ha":806,"x_min":135,"x_max":750,"o":"m 135 0 l 135 986 l 235 986 l 235 319 l 607 653 l 743 653 l 457 399 l 750 0 l 625 0 l 381 332 l 235 201 l 235 0 l 135 0 z "},"ķ":{"ha":806,"x_min":135,"x_max":750,"o":"m 135 0 l 135 986 l 235 986 l 235 319 l 607 653 l 743 653 l 457 399 l 750 0 l 625 0 l 381 332 l 235 201 l 235 0 l 135 0 m 328 -407 l 325 -353 q 415 -332 388 -350 q 451 -276 443 -314 q 419 -282 436 -282 q 363 -260 383 -282 q 343 -208 343 -239 q 369 -153 343 -176 q 433 -131 394 -131 q 499 -155 469 -131 q 529 -235 529 -179 q 510 -312 529 -274 q 447 -378 492 -351 q 328 -407 403 -406 z "},"ĸ":{"ha":806,"x_min":135,"x_max":750,"o":"m 135 0 l 135 653 l 235 653 l 235 319 l 607 653 l 743 653 l 457 399 l 750 0 l 625 0 l 381 332 l 235 201 l 235 0 l 135 0 z "},"l":{"ha":806,"x_min":43,"x_max":763,"o":"m 564 -17 q 321 229 321 -17 l 321 894 l 43 894 l 43 986 l 421 986 l 421 244 q 457 117 421 157 q 571 78 493 78 q 735 119 658 78 l 763 31 q 564 -17 672 -17 z "},"ĺ":{"ha":806,"x_min":43,"x_max":763,"o":"m 564 -17 q 321 229 321 -17 l 321 894 l 43 894 l 43 986 l 421 986 l 421 244 q 457 117 421 157 q 571 78 493 78 q 735 119 658 78 l 763 31 q 564 -17 672 -17 m 310 1040 l 264 1103 l 481 1282 l 546 1194 l 310 1040 z "},"ľ":{"ha":806,"x_min":43,"x_max":763,"o":"m 564 -17 q 321 229 321 -17 l 321 894 l 43 894 l 43 986 l 421 986 l 421 244 q 457 117 421 157 q 571 78 493 78 q 735 119 658 78 l 763 31 q 564 -17 672 -17 m 543 728 l 485 767 q 535 847 521 806 q 549 928 549 888 q 547 958 549 943 q 543 986 546 972 l 661 1003 q 653 913 661 958 q 619 821 644 867 q 543 728 594 775 z "},"ļ":{"ha":806,"x_min":43,"x_max":763,"o":"m 564 -17 q 321 229 321 -17 l 321 894 l 43 894 l 43 986 l 421 986 l 421 244 q 457 117 421 157 q 571 78 493 78 q 735 119 658 78 l 763 31 q 564 -17 672 -17 m 317 -407 l 314 -353 q 404 -332 376 -350 q 440 -276 432 -314 q 408 -282 425 -282 q 352 -260 372 -282 q 332 -208 332 -239 q 358 -153 332 -176 q 422 -131 383 -131 q 488 -155 458 -131 q 518 -235 518 -179 q 499 -312 518 -274 q 436 -378 481 -351 q 317 -407 392 -406 z "},"ŀ":{"ha":806,"x_min":43,"x_max":878,"o":"m 564 -17 q 321 229 321 -17 l 321 894 l 43 894 l 43 986 l 421 986 l 421 244 q 457 117 421 157 q 571 78 493 78 q 735 119 658 78 l 763 31 q 564 -17 672 -17 m 774 382 q 700 413 731 382 q 669 486 669 443 q 700 559 669 528 q 774 590 731 590 q 847 559 817 590 q 878 486 878 528 q 847 413 878 443 q 774 382 817 382 z "},"ł":{"ha":806,"x_min":43,"x_max":763,"o":"m 114 251 l 58 333 l 633 738 l 689 656 l 114 251 m 564 -17 q 321 229 321 -17 l 321 894 l 43 894 l 43 986 l 421 986 l 421 244 q 457 117 421 157 q 571 78 493 78 q 735 119 658 78 l 763 31 q 564 -17 672 -17 z "},"m":{"ha":806,"x_min":75,"x_max":735,"o":"m 75 0 l 75 653 l 143 653 l 153 599 q 311 669 226 669 q 435 599 400 669 q 593 669 508 669 q 697 628 658 669 q 735 515 735 588 l 735 0 l 639 0 l 639 504 q 569 581 639 581 q 453 528 506 581 l 453 0 l 357 0 l 357 504 q 288 581 357 581 q 171 528 224 581 l 171 0 l 75 0 z "},"n":{"ha":806,"x_min":124,"x_max":690,"o":"m 124 0 l 124 653 l 199 653 l 210 583 q 328 648 267 626 q 457 669 389 669 q 631 608 572 669 q 690 424 690 547 l 690 0 l 590 0 l 590 408 q 554 535 590 496 q 440 575 518 575 q 328 556 385 575 q 224 501 272 538 l 224 0 l 124 0 z "},"ń":{"ha":806,"x_min":124,"x_max":690,"o":"m 124 0 l 124 653 l 199 653 l 210 583 q 328 648 267 626 q 457 669 389 669 q 631 608 572 669 q 690 424 690 547 l 690 0 l 590 0 l 590 408 q 554 535 590 496 q 440 575 518 575 q 328 556 385 575 q 224 501 272 538 l 224 0 l 124 0 m 368 769 l 310 819 l 510 1046 l 592 974 l 368 769 z "},"ŉ":{"ha":806,"x_min":-26,"x_max":690,"o":"m 124 0 l 124 653 l 199 653 l 210 583 q 328 648 267 626 q 457 669 389 669 q 631 608 572 669 q 690 424 690 547 l 690 0 l 590 0 l 590 408 q 554 535 590 496 q 440 575 518 575 q 328 556 385 575 q 224 501 272 538 l 224 0 l 124 0 m -24 726 l -26 781 q 64 801 36 783 q 100 857 92 819 q 68 851 85 851 q 12 873 32 851 q -8 925 -8 894 q 17 980 -8 957 q 82 1003 43 1003 q 148 978 118 1003 q 178 899 178 954 q 159 821 178 860 q 96 755 140 782 q -24 726 51 728 z "},"ň":{"ha":806,"x_min":124,"x_max":690,"o":"m 124 0 l 124 653 l 199 653 l 210 583 q 328 648 267 626 q 457 669 389 669 q 631 608 572 669 q 690 424 690 547 l 690 0 l 590 0 l 590 408 q 554 535 590 496 q 440 575 518 575 q 328 556 385 575 q 224 501 272 538 l 224 0 l 124 0 m 396 769 l 182 996 l 240 1046 l 415 886 l 590 1046 l 649 996 l 435 769 l 396 769 z "},"ņ":{"ha":806,"x_min":124,"x_max":690,"o":"m 124 0 l 124 653 l 199 653 l 210 583 q 328 648 267 626 q 457 669 389 669 q 631 608 572 669 q 690 424 690 547 l 690 0 l 590 0 l 590 408 q 554 535 590 496 q 440 575 518 575 q 328 556 385 575 q 224 501 272 538 l 224 0 l 124 0 m 317 -407 l 314 -353 q 404 -332 376 -350 q 440 -276 432 -314 q 408 -282 425 -282 q 352 -260 372 -282 q 332 -208 332 -239 q 358 -153 332 -176 q 422 -131 383 -131 q 488 -155 458 -131 q 518 -235 518 -179 q 499 -312 518 -274 q 436 -378 481 -351 q 317 -407 392 -406 z "},"ñ":{"ha":806,"x_min":124,"x_max":690,"o":"m 124 0 l 124 653 l 199 653 l 210 583 q 328 648 267 626 q 457 669 389 669 q 631 608 572 669 q 690 424 690 547 l 690 0 l 590 0 l 590 408 q 554 535 590 496 q 440 575 518 575 q 328 556 385 575 q 224 501 272 538 l 224 0 l 124 0 m 261 800 l 186 814 q 238 949 203 901 q 332 997 274 997 q 397 979 371 997 q 444 942 424 961 q 475 917 460 928 q 506 906 490 906 q 543 928 525 906 q 572 1011 561 951 l 647 997 q 595 862 631 910 q 501 814 560 814 q 436 832 463 814 q 389 869 410 850 q 358 895 374 885 q 328 906 343 906 q 290 883 308 906 q 261 800 272 861 z "},"ŋ":{"ha":806,"x_min":124,"x_max":690,"o":"m 471 -308 q 336 -274 396 -308 l 369 -185 q 469 -212 413 -212 q 563 -172 535 -212 q 590 -33 590 -131 l 590 408 q 554 535 590 496 q 440 575 518 575 q 328 556 385 575 q 224 501 272 538 l 224 0 l 124 0 l 124 653 l 199 653 l 210 583 q 328 648 267 626 q 457 669 389 669 q 631 608 572 669 q 690 424 690 547 l 690 -54 q 634 -244 690 -179 q 471 -308 578 -308 z "},"o":{"ha":806,"x_min":72,"x_max":733,"o":"m 403 -17 q 229 26 304 -17 q 113 147 154 69 q 72 326 72 224 q 113 506 72 429 q 229 626 154 583 q 403 669 304 669 q 577 626 503 669 q 692 506 651 583 q 733 326 733 429 q 692 147 733 224 q 577 26 651 69 q 403 -17 503 -17 m 403 78 q 570 144 510 78 q 631 326 631 211 q 570 508 631 442 q 403 575 510 575 q 236 508 297 575 q 175 326 175 442 q 236 144 175 211 q 403 78 297 78 z "},"ó":{"ha":806,"x_min":72,"x_max":733,"o":"m 403 -17 q 229 26 304 -17 q 113 147 154 69 q 72 326 72 224 q 113 506 72 429 q 229 626 154 583 q 403 669 304 669 q 577 626 503 669 q 692 506 651 583 q 733 326 733 429 q 692 147 733 224 q 577 26 651 69 q 403 -17 503 -17 m 403 78 q 570 144 510 78 q 631 326 631 211 q 570 508 631 442 q 403 575 510 575 q 236 508 297 575 q 175 326 175 442 q 236 144 175 211 q 403 78 297 78 m 354 769 l 296 819 l 496 1046 l 578 974 l 354 769 z "},"ŏ":{"ha":806,"x_min":72,"x_max":733,"o":"m 403 -17 q 229 26 304 -17 q 113 147 154 69 q 72 326 72 224 q 113 506 72 429 q 229 626 154 583 q 403 669 304 669 q 577 626 503 669 q 692 506 651 583 q 733 326 733 429 q 692 147 733 224 q 577 26 651 69 q 403 -17 503 -17 m 403 78 q 570 144 510 78 q 631 326 631 211 q 570 508 631 442 q 403 575 510 575 q 236 508 297 575 q 175 326 175 442 q 236 144 175 211 q 403 78 297 78 m 403 797 q 287 826 331 797 q 221 903 243 854 q 188 1017 199 953 l 271 1017 q 315 922 282 953 q 403 890 347 890 q 492 922 458 890 q 535 1017 525 953 l 618 1017 q 585 903 607 953 q 519 826 563 854 q 403 797 476 797 z "},"ô":{"ha":806,"x_min":72,"x_max":733,"o":"m 403 -17 q 229 26 304 -17 q 113 147 154 69 q 72 326 72 224 q 113 506 72 429 q 229 626 154 583 q 403 669 304 669 q 577 626 503 669 q 692 506 651 583 q 733 326 733 429 q 692 147 733 224 q 577 26 651 69 q 403 -17 503 -17 m 403 78 q 570 144 510 78 q 631 326 631 211 q 570 508 631 442 q 403 575 510 575 q 236 508 297 575 q 175 326 175 442 q 236 144 175 211 q 403 78 297 78 m 226 769 l 168 819 l 382 1046 l 421 1046 l 635 819 l 576 769 l 401 929 l 226 769 z "},"ö":{"ha":806,"x_min":72,"x_max":733,"o":"m 403 -17 q 229 26 304 -17 q 113 147 154 69 q 72 326 72 224 q 113 506 72 429 q 229 626 154 583 q 403 669 304 669 q 577 626 503 669 q 692 506 651 583 q 733 326 733 429 q 692 147 733 224 q 577 26 651 69 q 403 -17 503 -17 m 403 78 q 570 144 510 78 q 631 326 631 211 q 570 508 631 442 q 403 575 510 575 q 236 508 297 575 q 175 326 175 442 q 236 144 175 211 q 403 78 297 78 m 253 815 q 188 842 214 815 q 161 907 161 868 q 188 972 161 946 q 253 999 214 999 q 318 972 292 999 q 344 907 344 946 q 318 842 344 868 q 253 815 292 815 m 553 815 q 488 842 514 815 q 461 907 461 868 q 488 972 461 946 q 553 999 514 999 q 618 972 592 999 q 644 907 644 946 q 618 842 644 868 q 553 815 592 815 z "},"ò":{"ha":806,"x_min":72,"x_max":733,"o":"m 403 -17 q 229 26 304 -17 q 113 147 154 69 q 72 326 72 224 q 113 506 72 429 q 229 626 154 583 q 403 669 304 669 q 577 626 503 669 q 692 506 651 583 q 733 326 733 429 q 692 147 733 224 q 577 26 651 69 q 403 -17 503 -17 m 403 78 q 570 144 510 78 q 631 326 631 211 q 570 508 631 442 q 403 575 510 575 q 236 508 297 575 q 175 326 175 442 q 236 144 175 211 q 403 78 297 78 m 450 769 l 226 974 l 308 1046 l 508 819 l 450 769 z "},"ő":{"ha":806,"x_min":72,"x_max":733,"o":"m 403 -17 q 229 26 304 -17 q 113 147 154 69 q 72 326 72 224 q 113 506 72 429 q 229 626 154 583 q 403 669 304 669 q 577 626 503 669 q 692 506 651 583 q 733 326 733 429 q 692 147 733 224 q 577 26 651 69 q 403 -17 503 -17 m 403 78 q 570 144 510 78 q 631 326 631 211 q 570 508 631 442 q 403 575 510 575 q 236 508 297 575 q 175 326 175 442 q 236 144 175 211 q 403 78 297 78 m 499 769 l 440 819 l 640 1046 l 722 974 l 499 769 m 210 769 l 151 819 l 351 1046 l 433 974 l 210 769 z "},"ō":{"ha":806,"x_min":72,"x_max":733,"o":"m 403 -17 q 229 26 304 -17 q 113 147 154 69 q 72 326 72 224 q 113 506 72 429 q 229 626 154 583 q 403 669 304 669 q 577 626 503 669 q 692 506 651 583 q 733 326 733 429 q 692 147 733 224 q 577 26 651 69 q 403 -17 503 -17 m 403 78 q 570 144 510 78 q 631 326 631 211 q 570 508 631 442 q 403 575 510 575 q 236 508 297 575 q 175 326 175 442 q 236 144 175 211 q 403 78 297 78 m 215 861 l 215 953 l 590 953 l 590 861 l 215 861 z "},"ø":{"ha":806,"x_min":60,"x_max":746,"o":"m 403 -17 q 229 26 304 -17 q 113 147 154 69 q 72 326 72 224 q 113 506 72 429 q 229 626 154 583 q 403 669 304 669 q 577 626 503 669 q 692 506 651 583 q 733 326 733 429 q 692 147 733 224 q 577 26 651 69 q 403 -17 503 -17 m 403 78 q 570 144 510 78 q 631 326 631 211 q 570 508 631 442 q 403 575 510 575 q 236 508 297 575 q 175 326 175 442 q 236 144 175 211 q 403 78 297 78 m 121 -17 l 60 44 l 685 669 l 746 608 l 121 -17 z "},"ǿ":{"ha":806,"x_min":60,"x_max":746,"o":"m 403 -17 q 229 26 304 -17 q 113 147 154 69 q 72 326 72 224 q 113 506 72 429 q 229 626 154 583 q 403 669 304 669 q 577 626 503 669 q 692 506 651 583 q 733 326 733 429 q 692 147 733 224 q 577 26 651 69 q 403 -17 503 -17 m 403 78 q 570 144 510 78 q 631 326 631 211 q 570 508 631 442 q 403 575 510 575 q 236 508 297 575 q 175 326 175 442 q 236 144 175 211 q 403 78 297 78 m 121 -17 l 60 44 l 685 669 l 746 608 l 121 -17 m 354 769 l 296 819 l 496 1046 l 578 974 l 354 769 z "},"õ":{"ha":806,"x_min":72,"x_max":733,"o":"m 403 -17 q 229 26 304 -17 q 113 147 154 69 q 72 326 72 224 q 113 506 72 429 q 229 626 154 583 q 403 669 304 669 q 577 626 503 669 q 692 506 651 583 q 733 326 733 429 q 692 147 733 224 q 577 26 651 69 q 403 -17 503 -17 m 403 78 q 570 144 510 78 q 631 326 631 211 q 570 508 631 442 q 403 575 510 575 q 236 508 297 575 q 175 326 175 442 q 236 144 175 211 q 403 78 297 78 m 247 800 l 172 814 q 224 949 189 901 q 318 997 260 997 q 383 979 357 997 q 431 942 410 961 q 461 917 446 928 q 492 906 476 906 q 529 928 511 906 q 558 1011 547 951 l 633 997 q 581 862 617 910 q 488 814 546 814 q 422 832 449 814 q 375 869 396 850 q 344 895 360 885 q 314 906 329 906 q 276 883 294 906 q 247 800 258 861 z "},"œ":{"ha":806,"x_min":14,"x_max":796,"o":"m 232 -17 q 14 326 14 -17 q 232 669 14 669 q 399 560 349 669 l 401 560 q 574 669 456 669 q 739 587 683 669 q 794 349 794 504 q 794 324 794 333 q 792 293 794 315 l 449 293 q 492 127 454 179 q 611 75 531 75 q 688 88 651 75 q 756 122 724 100 l 796 40 q 712 -1 758 14 q 604 -17 665 -17 q 403 94 460 -17 l 400 94 q 232 -17 350 -17 m 232 75 q 323 135 294 75 q 351 326 351 194 q 323 518 351 458 q 232 578 294 578 q 141 518 169 578 q 113 326 113 458 q 141 135 113 194 q 232 75 169 75 m 450 379 l 699 379 q 663 528 694 479 q 575 578 632 578 q 488 528 519 578 q 450 379 457 478 z "},"p":{"ha":806,"x_min":113,"x_max":725,"o":"m 113 -292 l 113 653 l 188 653 l 199 583 q 439 669 313 669 q 648 576 571 669 q 725 326 725 483 q 648 76 725 169 q 439 -17 571 -17 q 323 3 381 -17 q 213 60 265 22 l 213 -292 l 113 -292 m 422 78 q 569 144 517 78 q 622 326 622 211 q 569 508 622 442 q 422 575 517 575 q 315 556 371 575 q 213 501 258 536 l 213 151 q 315 97 258 117 q 422 78 371 78 z "},"þ":{"ha":806,"x_min":113,"x_max":725,"o":"m 113 -292 l 113 986 l 213 986 l 213 593 q 439 669 321 669 q 648 576 571 669 q 725 326 725 483 q 648 76 725 169 q 439 -17 571 -17 q 323 3 381 -17 q 213 60 265 22 l 213 -292 l 113 -292 m 422 78 q 569 144 517 78 q 622 326 622 211 q 569 508 622 442 q 422 575 517 575 q 315 556 371 575 q 213 501 258 536 l 213 151 q 315 97 258 117 q 422 78 371 78 z "},"q":{"ha":806,"x_min":81,"x_max":693,"o":"m 593 -292 l 593 60 q 483 3 540 22 q 367 -17 425 -17 q 158 76 236 -17 q 81 326 81 169 q 158 576 81 483 q 367 669 236 669 q 607 583 493 669 l 618 653 l 693 653 l 693 -292 l 593 -292 m 383 78 q 492 97 436 78 q 593 151 547 117 l 593 501 q 492 556 547 536 q 383 575 436 575 q 237 508 290 575 q 183 326 183 442 q 237 144 183 211 q 383 78 290 78 z "},"r":{"ha":806,"x_min":172,"x_max":693,"o":"m 172 0 l 172 653 l 253 653 l 267 539 q 394 637 324 604 q 546 669 464 669 q 693 631 638 669 l 656 540 q 601 566 629 558 q 538 574 572 574 q 272 425 381 574 l 272 0 l 172 0 z "},"ŕ":{"ha":806,"x_min":172,"x_max":693,"o":"m 172 0 l 172 653 l 253 653 l 267 539 q 394 637 324 604 q 546 669 464 669 q 693 631 638 669 l 656 540 q 601 566 629 558 q 538 574 572 574 q 272 425 381 574 l 272 0 l 172 0 m 357 769 l 299 819 l 499 1046 l 581 974 l 357 769 z "},"ř":{"ha":806,"x_min":171,"x_max":693,"o":"m 172 0 l 172 653 l 253 653 l 267 539 q 394 637 324 604 q 546 669 464 669 q 693 631 638 669 l 656 540 q 601 566 629 558 q 538 574 572 574 q 272 425 381 574 l 272 0 l 172 0 m 385 769 l 171 996 l 229 1046 l 404 886 l 579 1046 l 638 996 l 424 769 l 385 769 z "},"ŗ":{"ha":806,"x_min":119,"x_max":693,"o":"m 172 0 l 172 653 l 253 653 l 267 539 q 394 637 324 604 q 546 669 464 669 q 693 631 638 669 l 656 540 q 601 566 629 558 q 538 574 572 574 q 272 425 381 574 l 272 0 l 172 0 m 122 -407 l 119 -353 q 210 -332 182 -350 q 246 -276 238 -314 q 214 -282 231 -282 q 158 -260 178 -282 q 138 -208 138 -239 q 163 -153 138 -176 q 228 -131 189 -131 q 294 -155 264 -131 q 324 -235 324 -179 q 305 -312 324 -274 q 242 -378 286 -351 q 122 -407 197 -406 z "},"s":{"ha":806,"x_min":96,"x_max":694,"o":"m 401 -17 q 96 64 231 -17 l 136 149 q 264 96 196 114 q 406 78 332 78 q 593 186 593 78 q 568 245 593 226 q 481 272 543 264 l 322 294 q 174 349 221 310 q 128 467 128 389 q 199 617 128 564 q 400 669 271 669 q 675 603 546 669 l 639 517 q 397 575 529 575 q 229 474 229 575 q 254 417 229 435 q 342 390 279 399 l 500 368 q 649 314 603 354 q 694 193 694 274 q 619 38 694 92 q 401 -17 543 -17 z "},"ś":{"ha":806,"x_min":96,"x_max":694,"o":"m 401 -17 q 96 64 231 -17 l 136 149 q 264 96 196 114 q 406 78 332 78 q 593 186 593 78 q 568 245 593 226 q 481 272 543 264 l 322 294 q 174 349 221 310 q 128 467 128 389 q 199 617 128 564 q 400 669 271 669 q 675 603 546 669 l 639 517 q 397 575 529 575 q 229 474 229 575 q 254 417 229 435 q 342 390 279 399 l 500 368 q 649 314 603 354 q 694 193 694 274 q 619 38 694 92 q 401 -17 543 -17 m 347 769 l 289 819 l 489 1046 l 571 974 l 347 769 z "},"š":{"ha":806,"x_min":96,"x_max":694,"o":"m 401 -17 q 96 64 231 -17 l 136 149 q 264 96 196 114 q 406 78 332 78 q 593 186 593 78 q 568 245 593 226 q 481 272 543 264 l 322 294 q 174 349 221 310 q 128 467 128 389 q 199 617 128 564 q 400 669 271 669 q 675 603 546 669 l 639 517 q 397 575 529 575 q 229 474 229 575 q 254 417 229 435 q 342 390 279 399 l 500 368 q 649 314 603 354 q 694 193 694 274 q 619 38 694 92 q 401 -17 543 -17 m 375 769 l 161 996 l 219 1046 l 394 886 l 569 1046 l 628 996 l 414 769 l 375 769 z "},"ş":{"ha":806,"x_min":96,"x_max":694,"o":"m 401 -17 q 96 64 231 -17 l 136 149 q 264 96 196 114 q 406 78 332 78 q 593 186 593 78 q 568 245 593 226 q 481 272 543 264 l 322 294 q 174 349 221 310 q 128 467 128 389 q 199 617 128 564 q 400 669 271 669 q 675 603 546 669 l 639 517 q 397 575 529 575 q 229 474 229 575 q 254 417 229 435 q 342 390 279 399 l 500 368 q 649 314 603 354 q 694 193 694 274 q 619 38 694 92 q 401 -17 543 -17 m 385 -308 q 307 -300 342 -308 q 243 -279 272 -292 l 263 -210 q 319 -228 288 -221 q 386 -236 351 -236 q 445 -224 428 -236 q 463 -190 463 -212 q 447 -162 463 -171 q 394 -154 432 -154 l 321 -154 l 375 0 l 443 0 l 408 -97 l 419 -97 q 549 -193 549 -97 q 506 -280 549 -251 q 385 -308 464 -308 z "},"ŝ":{"ha":806,"x_min":96,"x_max":694,"o":"m 401 -17 q 96 64 231 -17 l 136 149 q 264 96 196 114 q 406 78 332 78 q 593 186 593 78 q 568 245 593 226 q 481 272 543 264 l 322 294 q 174 349 221 310 q 128 467 128 389 q 199 617 128 564 q 400 669 271 669 q 675 603 546 669 l 639 517 q 397 575 529 575 q 229 474 229 575 q 254 417 229 435 q 342 390 279 399 l 500 368 q 649 314 603 354 q 694 193 694 274 q 619 38 694 92 q 401 -17 543 -17 m 219 769 l 161 819 l 375 1046 l 414 1046 l 628 819 l 569 769 l 394 929 l 219 769 z "},"ș":{"ha":806,"x_min":96,"x_max":694,"o":"m 401 -17 q 96 64 231 -17 l 136 149 q 264 96 196 114 q 406 78 332 78 q 593 186 593 78 q 568 245 593 226 q 481 272 543 264 l 322 294 q 174 349 221 310 q 128 467 128 389 q 199 617 128 564 q 400 669 271 669 q 675 603 546 669 l 639 517 q 397 575 529 575 q 229 474 229 575 q 254 417 229 435 q 342 390 279 399 l 500 368 q 649 314 603 354 q 694 193 694 274 q 619 38 694 92 q 401 -17 543 -17 m 303 -407 l 300 -353 q 390 -332 363 -350 q 426 -276 418 -314 q 394 -282 411 -282 q 338 -260 358 -282 q 318 -208 318 -239 q 344 -153 318 -176 q 408 -131 369 -131 q 474 -155 444 -131 q 504 -235 504 -179 q 485 -312 504 -274 q 422 -378 467 -351 q 303 -407 378 -406 z "},"ß":{"ha":806,"x_min":106,"x_max":747,"o":"m 515 -17 q 415 -3 464 -17 q 325 33 367 10 l 360 122 q 434 90 396 101 q 511 78 472 78 q 608 103 572 78 q 644 181 644 128 q 616 254 644 228 q 549 303 588 281 q 479 349 513 324 q 425 410 446 374 q 404 497 404 446 q 419 581 404 546 q 464 663 433 615 q 503 731 492 704 q 515 788 515 757 q 476 875 515 842 q 367 908 436 908 q 206 724 206 908 l 206 0 l 106 0 l 106 742 q 177 933 106 864 q 371 1003 249 1003 q 552 944 486 1003 q 618 783 618 885 q 604 706 618 740 q 558 624 590 671 q 519 558 532 582 q 507 504 507 535 q 535 440 507 465 q 603 393 564 415 q 672 348 639 374 q 726 283 706 322 q 747 183 747 244 q 687 35 747 86 q 515 -17 626 -17 z "},"t":{"ha":806,"x_min":72,"x_max":729,"o":"m 531 -17 q 288 229 288 -17 l 288 561 l 72 561 l 72 653 l 288 653 l 288 864 l 388 919 l 388 653 l 665 653 l 665 561 l 388 561 l 388 244 q 424 117 388 157 q 538 78 460 78 q 701 119 625 78 l 729 31 q 531 -17 639 -17 z "},"ŧ":{"ha":806,"x_min":72,"x_max":729,"o":"m 531 -17 q 288 229 288 -17 l 288 561 l 72 561 l 72 653 l 288 653 l 288 864 l 388 919 l 388 653 l 665 653 l 665 561 l 388 561 l 388 244 q 424 117 388 157 q 538 78 460 78 q 701 119 625 78 l 729 31 q 531 -17 639 -17 m 96 297 l 96 383 l 632 383 l 632 297 l 96 297 z "},"ť":{"ha":806,"x_min":72,"x_max":729,"o":"m 531 -17 q 288 229 288 -17 l 288 561 l 72 561 l 72 653 l 288 653 l 288 864 l 388 919 l 388 653 l 665 653 l 665 561 l 388 561 l 388 244 q 424 117 388 157 q 538 78 460 78 q 701 119 625 78 l 729 31 q 531 -17 639 -17 m 510 728 l 451 767 q 501 847 488 806 q 515 928 515 888 q 514 958 515 943 q 510 986 513 972 l 628 1003 q 619 913 628 958 q 586 821 611 867 q 510 728 561 775 z "},"ţ":{"ha":806,"x_min":72,"x_max":729,"o":"m 531 -17 q 288 229 288 -17 l 288 561 l 72 561 l 72 653 l 288 653 l 288 864 l 388 919 l 388 653 l 665 653 l 665 561 l 388 561 l 388 244 q 424 117 388 157 q 538 78 460 78 q 701 119 625 78 l 729 31 q 531 -17 639 -17 m 440 -308 q 363 -300 397 -308 q 299 -279 328 -292 l 318 -210 q 375 -228 343 -221 q 442 -236 407 -236 q 501 -224 483 -236 q 518 -190 518 -212 q 503 -162 518 -171 q 450 -154 488 -154 l 376 -154 l 431 0 l 499 0 l 464 -97 l 475 -97 q 604 -193 604 -97 q 562 -280 604 -251 q 440 -308 519 -308 z "},"ț":{"ha":806,"x_min":72,"x_max":729,"o":"m 531 -17 q 288 229 288 -17 l 288 561 l 72 561 l 72 653 l 288 653 l 288 864 l 388 919 l 388 653 l 665 653 l 665 561 l 388 561 l 388 244 q 424 117 388 157 q 538 78 460 78 q 701 119 625 78 l 729 31 q 531 -17 639 -17 m 358 -407 l 356 -353 q 446 -332 418 -350 q 482 -276 474 -314 q 450 -282 467 -282 q 394 -260 414 -282 q 374 -208 374 -239 q 399 -153 374 -176 q 464 -131 425 -131 q 530 -155 500 -131 q 560 -235 560 -179 q 541 -312 560 -274 q 478 -378 522 -351 q 358 -407 433 -406 z "},"u":{"ha":806,"x_min":115,"x_max":682,"o":"m 349 -17 q 175 45 235 -17 q 115 229 115 107 l 115 653 l 215 653 l 215 244 q 251 117 215 157 q 365 78 288 78 q 478 97 422 78 q 582 151 535 117 l 582 653 l 682 653 l 682 0 l 607 0 l 596 69 q 478 5 540 26 q 349 -17 417 -17 z "},"ú":{"ha":806,"x_min":115,"x_max":682,"o":"m 349 -17 q 175 45 235 -17 q 115 229 115 107 l 115 653 l 215 653 l 215 244 q 251 117 215 157 q 365 78 288 78 q 478 97 422 78 q 582 151 535 117 l 582 653 l 682 653 l 682 0 l 607 0 l 596 69 q 478 5 540 26 q 349 -17 417 -17 m 354 769 l 296 819 l 496 1046 l 578 974 l 354 769 z "},"ŭ":{"ha":806,"x_min":115,"x_max":682,"o":"m 349 -17 q 175 45 235 -17 q 115 229 115 107 l 115 653 l 215 653 l 215 244 q 251 117 215 157 q 365 78 288 78 q 478 97 422 78 q 582 151 535 117 l 582 653 l 682 653 l 682 0 l 607 0 l 596 69 q 478 5 540 26 q 349 -17 417 -17 m 403 797 q 287 826 331 797 q 221 903 243 854 q 188 1017 199 953 l 271 1017 q 315 922 282 953 q 403 890 347 890 q 492 922 458 890 q 535 1017 525 953 l 618 1017 q 585 903 607 953 q 519 826 563 854 q 403 797 476 797 z "},"û":{"ha":806,"x_min":115,"x_max":682,"o":"m 349 -17 q 175 45 235 -17 q 115 229 115 107 l 115 653 l 215 653 l 215 244 q 251 117 215 157 q 365 78 288 78 q 478 97 422 78 q 582 151 535 117 l 582 653 l 682 653 l 682 0 l 607 0 l 596 69 q 478 5 540 26 q 349 -17 417 -17 m 226 769 l 168 819 l 382 1046 l 421 1046 l 635 819 l 576 769 l 401 929 l 226 769 z "},"ü":{"ha":806,"x_min":115,"x_max":682,"o":"m 349 -17 q 175 45 235 -17 q 115 229 115 107 l 115 653 l 215 653 l 215 244 q 251 117 215 157 q 365 78 288 78 q 478 97 422 78 q 582 151 535 117 l 582 653 l 682 653 l 682 0 l 607 0 l 596 69 q 478 5 540 26 q 349 -17 417 -17 m 253 815 q 188 842 214 815 q 161 907 161 868 q 188 972 161 946 q 253 999 214 999 q 318 972 292 999 q 344 907 344 946 q 318 842 344 868 q 253 815 292 815 m 553 815 q 488 842 514 815 q 461 907 461 868 q 488 972 461 946 q 553 999 514 999 q 618 972 592 999 q 644 907 644 946 q 618 842 644 868 q 553 815 592 815 z "},"ù":{"ha":806,"x_min":115,"x_max":682,"o":"m 349 -17 q 175 45 235 -17 q 115 229 115 107 l 115 653 l 215 653 l 215 244 q 251 117 215 157 q 365 78 288 78 q 478 97 422 78 q 582 151 535 117 l 582 653 l 682 653 l 682 0 l 607 0 l 596 69 q 478 5 540 26 q 349 -17 417 -17 m 450 769 l 226 974 l 308 1046 l 508 819 l 450 769 z "},"ű":{"ha":806,"x_min":115,"x_max":722,"o":"m 349 -17 q 175 45 235 -17 q 115 229 115 107 l 115 653 l 215 653 l 215 244 q 251 117 215 157 q 365 78 288 78 q 478 97 422 78 q 582 151 535 117 l 582 653 l 682 653 l 682 0 l 607 0 l 596 69 q 478 5 540 26 q 349 -17 417 -17 m 499 769 l 440 819 l 640 1046 l 722 974 l 499 769 m 210 769 l 151 819 l 351 1046 l 433 974 l 210 769 z "},"ū":{"ha":806,"x_min":115,"x_max":682,"o":"m 349 -17 q 175 45 235 -17 q 115 229 115 107 l 115 653 l 215 653 l 215 244 q 251 117 215 157 q 365 78 288 78 q 478 97 422 78 q 582 151 535 117 l 582 653 l 682 653 l 682 0 l 607 0 l 596 69 q 478 5 540 26 q 349 -17 417 -17 m 215 861 l 215 953 l 590 953 l 590 861 l 215 861 z "},"ų":{"ha":806,"x_min":115,"x_max":682,"o":"m 590 -308 q 494 -275 531 -308 q 457 -183 457 -242 q 491 -78 457 -132 q 606 31 525 -24 l 665 8 q 567 -85 593 -40 q 540 -161 540 -129 q 556 -206 540 -190 q 597 -221 572 -221 q 631 -215 615 -221 q 660 -200 647 -208 l 682 -283 q 643 -301 667 -293 q 590 -308 619 -308 m 349 -17 q 175 45 235 -17 q 115 229 115 107 l 115 653 l 215 653 l 215 244 q 251 117 215 157 q 365 78 288 78 q 478 97 422 78 q 582 151 535 117 l 582 653 l 682 653 l 682 0 l 607 0 l 596 69 q 478 5 540 26 q 349 -17 417 -17 z "},"ů":{"ha":806,"x_min":115,"x_max":682,"o":"m 349 -17 q 175 45 235 -17 q 115 229 115 107 l 115 653 l 215 653 l 215 244 q 251 117 215 157 q 365 78 288 78 q 478 97 422 78 q 582 151 535 117 l 582 653 l 682 653 l 682 0 l 607 0 l 596 69 q 478 5 540 26 q 349 -17 417 -17 m 403 750 q 292 795 338 750 q 247 907 247 840 q 292 1019 247 974 q 403 1064 338 1064 q 513 1019 468 1064 q 558 907 558 974 q 513 795 558 840 q 403 750 468 750 m 403 829 q 454 851 435 829 q 474 907 474 872 q 454 963 474 942 q 403 985 435 985 q 352 963 372 985 q 332 907 332 942 q 352 851 332 872 q 403 829 372 829 z "},"ũ":{"ha":806,"x_min":115,"x_max":682,"o":"m 349 -17 q 175 45 235 -17 q 115 229 115 107 l 115 653 l 215 653 l 215 244 q 251 117 215 157 q 365 78 288 78 q 478 97 422 78 q 582 151 535 117 l 582 653 l 682 653 l 682 0 l 607 0 l 596 69 q 478 5 540 26 q 349 -17 417 -17 m 247 800 l 172 814 q 224 949 189 901 q 318 997 260 997 q 383 979 357 997 q 431 942 410 961 q 461 917 446 928 q 492 906 476 906 q 529 928 511 906 q 558 1011 547 951 l 633 997 q 581 862 617 910 q 488 814 546 814 q 422 832 449 814 q 375 869 396 850 q 344 895 360 885 q 314 906 329 906 q 276 883 294 906 q 247 800 258 861 z "},"v":{"ha":806,"x_min":79,"x_max":726,"o":"m 343 0 l 79 653 l 188 653 l 406 104 l 624 653 l 726 653 l 463 0 l 343 0 z "},"w":{"ha":806,"x_min":21,"x_max":785,"o":"m 172 0 l 21 653 l 119 653 l 239 122 l 357 585 l 454 585 l 572 122 l 692 653 l 785 653 l 633 0 l 519 0 l 404 457 l 288 0 l 172 0 z "},"ẃ":{"ha":806,"x_min":21,"x_max":785,"o":"m 172 0 l 21 653 l 119 653 l 239 122 l 357 585 l 454 585 l 572 122 l 692 653 l 785 653 l 633 0 l 519 0 l 404 457 l 288 0 l 172 0 m 354 769 l 296 819 l 496 1046 l 578 974 l 354 769 z "},"ŵ":{"ha":806,"x_min":21,"x_max":785,"o":"m 172 0 l 21 653 l 119 653 l 239 122 l 357 585 l 454 585 l 572 122 l 692 653 l 785 653 l 633 0 l 519 0 l 404 457 l 288 0 l 172 0 m 226 769 l 168 819 l 382 1046 l 421 1046 l 635 819 l 576 769 l 401 929 l 226 769 z "},"ẅ":{"ha":806,"x_min":21,"x_max":785,"o":"m 172 0 l 21 653 l 119 653 l 239 122 l 357 585 l 454 585 l 572 122 l 692 653 l 785 653 l 633 0 l 519 0 l 404 457 l 288 0 l 172 0 m 253 815 q 188 842 214 815 q 161 907 161 868 q 188 972 161 946 q 253 999 214 999 q 318 972 292 999 q 344 907 344 946 q 318 842 344 868 q 253 815 292 815 m 553 815 q 488 842 514 815 q 461 907 461 868 q 488 972 461 946 q 553 999 514 999 q 618 972 592 999 q 644 907 644 946 q 618 842 644 868 q 553 815 592 815 z "},"ẁ":{"ha":806,"x_min":21,"x_max":785,"o":"m 172 0 l 21 653 l 119 653 l 239 122 l 357 585 l 454 585 l 572 122 l 692 653 l 785 653 l 633 0 l 519 0 l 404 457 l 288 0 l 172 0 m 450 769 l 226 974 l 308 1046 l 508 819 l 450 769 z "},"x":{"ha":806,"x_min":81,"x_max":725,"o":"m 81 0 l 338 335 l 88 653 l 214 653 l 411 401 l 601 653 l 718 653 l 468 328 l 725 0 l 599 0 l 394 260 l 197 0 l 81 0 z "},"y":{"ha":806,"x_min":15,"x_max":726,"o":"m 178 -308 q 15 -265 86 -308 l 51 -181 q 172 -214 108 -214 q 268 -183 233 -214 q 333 -76 303 -153 l 358 -14 l 79 653 l 189 653 l 410 115 l 624 653 l 726 653 l 419 -118 q 324 -266 378 -224 q 178 -308 271 -308 z "},"ý":{"ha":806,"x_min":15,"x_max":726,"o":"m 178 -308 q 15 -265 86 -308 l 51 -181 q 172 -214 108 -214 q 268 -183 233 -214 q 333 -76 303 -153 l 358 -14 l 79 653 l 189 653 l 410 115 l 624 653 l 726 653 l 419 -118 q 324 -266 378 -224 q 178 -308 271 -308 m 353 769 l 294 819 l 494 1046 l 576 974 l 353 769 z "},"ŷ":{"ha":806,"x_min":15,"x_max":726,"o":"m 178 -308 q 15 -265 86 -308 l 51 -181 q 172 -214 108 -214 q 268 -183 233 -214 q 333 -76 303 -153 l 358 -14 l 79 653 l 189 653 l 410 115 l 624 653 l 726 653 l 419 -118 q 324 -266 378 -224 q 178 -308 271 -308 m 225 769 l 167 819 l 381 1046 l 419 1046 l 633 819 l 575 769 l 400 929 l 225 769 z "},"ÿ":{"ha":806,"x_min":15,"x_max":726,"o":"m 178 -308 q 15 -265 86 -308 l 51 -181 q 172 -214 108 -214 q 268 -183 233 -214 q 333 -76 303 -153 l 358 -14 l 79 653 l 189 653 l 410 115 l 624 653 l 726 653 l 419 -118 q 324 -266 378 -224 q 178 -308 271 -308 m 251 815 q 186 842 213 815 q 160 907 160 868 q 186 972 160 946 q 251 999 213 999 q 317 972 290 999 q 343 907 343 946 q 317 842 343 868 q 251 815 290 815 m 551 815 q 486 842 513 815 q 460 907 460 868 q 486 972 460 946 q 551 999 513 999 q 617 972 590 999 q 643 907 643 946 q 617 842 643 868 q 551 815 590 815 z "},"ỳ":{"ha":806,"x_min":15,"x_max":726,"o":"m 178 -308 q 15 -265 86 -308 l 51 -181 q 172 -214 108 -214 q 268 -183 233 -214 q 333 -76 303 -153 l 358 -14 l 79 653 l 189 653 l 410 115 l 624 653 l 726 653 l 419 -118 q 324 -266 378 -224 q 178 -308 271 -308 m 449 769 l 225 974 l 307 1046 l 507 819 l 449 769 z "},"z":{"ha":806,"x_min":113,"x_max":690,"o":"m 113 0 l 113 78 l 544 561 l 126 561 l 126 653 l 690 653 l 690 575 l 258 92 l 690 92 l 690 0 l 113 0 z "},"ź":{"ha":806,"x_min":113,"x_max":690,"o":"m 113 0 l 113 78 l 544 561 l 126 561 l 126 653 l 690 653 l 690 575 l 258 92 l 690 92 l 690 0 l 113 0 m 360 769 l 301 819 l 501 1046 l 583 974 l 360 769 z "},"ž":{"ha":806,"x_min":113,"x_max":690,"o":"m 113 0 l 113 78 l 544 561 l 126 561 l 126 653 l 690 653 l 690 575 l 258 92 l 690 92 l 690 0 l 113 0 m 388 769 l 174 996 l 232 1046 l 407 886 l 582 1046 l 640 996 l 426 769 l 388 769 z "},"ż":{"ha":806,"x_min":113,"x_max":690,"o":"m 113 0 l 113 78 l 544 561 l 126 561 l 126 653 l 690 653 l 690 575 l 258 92 l 690 92 l 690 0 l 113 0 m 408 811 q 341 840 369 811 q 313 907 313 868 q 341 975 313 947 q 408 1003 369 1003 q 476 975 449 1003 q 504 907 504 947 q 476 840 504 868 q 408 811 449 811 z "},"ª":{"ha":806,"x_min":160,"x_max":632,"o":"m 357 382 q 212 425 264 382 q 160 544 160 468 q 208 657 160 618 q 353 696 257 696 l 543 696 l 543 714 q 511 809 543 781 q 404 838 479 838 q 219 793 301 838 l 190 868 q 410 919 288 919 q 578 873 525 919 q 632 725 632 826 l 632 394 l 565 394 l 556 447 q 357 382 468 382 m 160 157 l 160 240 l 632 240 l 632 157 l 160 157 m 371 464 q 543 515 469 464 l 543 621 l 353 621 q 276 601 301 621 q 251 546 251 582 q 371 464 251 464 z "},"º":{"ha":806,"x_min":142,"x_max":664,"o":"m 403 382 q 266 416 325 382 q 174 510 207 450 q 142 651 142 571 q 174 792 142 732 q 266 886 207 853 q 403 919 325 919 q 540 886 482 919 q 631 792 599 853 q 664 651 664 732 q 631 510 664 571 q 540 416 599 450 q 403 382 482 382 m 142 157 l 142 240 l 664 240 l 664 157 l 142 157 m 403 465 q 527 515 482 465 q 572 651 572 565 q 527 787 572 738 q 403 836 482 836 q 278 787 324 836 q 233 651 233 738 q 278 515 233 565 q 403 465 324 465 z "},"Δ":{"ha":806,"x_min":40,"x_max":765,"o":"m 40 0 l 342 903 l 464 903 l 765 0 l 40 0 m 175 97 l 625 97 l 400 782 l 175 97 z "},"Ω":{"ha":806,"x_min":50,"x_max":756,"o":"m 50 0 l 50 97 l 257 97 l 257 125 q 64 542 64 301 q 106 742 64 657 q 224 873 147 826 q 403 919 300 919 q 583 873 507 919 q 700 742 658 826 q 742 542 742 657 q 549 125 742 301 l 549 97 l 756 97 l 756 0 l 458 0 l 458 165 q 636 529 636 314 q 574 743 636 665 q 403 821 511 821 q 232 743 294 821 q 169 529 169 665 q 347 165 169 314 l 347 0 l 50 0 z "},"μ":{"ha":806,"x_min":119,"x_max":686,"o":"m 119 -292 l 119 653 l 219 653 l 219 244 q 256 117 219 157 q 369 78 292 78 q 483 97 426 78 q 586 151 539 117 l 586 653 l 686 653 l 686 0 l 611 0 l 600 69 q 483 5 544 26 q 353 -17 421 -17 q 200 47 247 -17 l 219 -221 l 219 -292 l 119 -292 z "},"π":{"ha":806,"x_min":43,"x_max":754,"o":"m 213 -17 l 99 0 q 158 196 139 82 q 176 478 176 310 l 176 561 q 99 558 126 561 q 43 544 71 554 l 43 636 q 109 649 78 646 q 192 653 140 653 l 631 653 q 695 656 671 653 q 746 669 719 660 l 746 578 q 683 565 714 568 q 607 561 653 561 l 607 133 q 622 90 607 103 q 669 78 636 78 q 735 93 706 78 l 754 4 q 650 -17 703 -17 q 543 18 579 -17 q 507 119 507 53 l 507 561 l 276 561 l 276 478 q 261 194 276 311 q 213 -17 246 76 z "},"⁄":{"ha":806,"x_min":21,"x_max":785,"o":"m 501 506 l 453 549 l 707 881 l 785 814 l 501 506 m 99 -6 l 21 61 l 304 369 l 353 326 l 99 -6 z "},"½":{"ha":806,"x_min":21,"x_max":785,"o":"m 35 492 l 35 574 l 157 574 l 157 761 l 61 707 l 21 768 l 185 883 l 253 883 l 253 574 l 374 574 l 374 492 l 35 492 m 501 506 l 453 549 l 707 881 l 785 814 l 501 506 m 99 -6 l 21 61 l 304 369 l 353 326 l 99 -6 m 449 0 l 449 68 q 481 173 449 138 q 579 226 514 208 l 642 243 q 674 258 665 250 q 683 279 683 265 q 665 309 683 300 q 614 318 647 318 q 546 308 576 318 q 488 279 515 297 l 451 356 q 524 388 485 375 q 617 400 564 400 q 735 371 692 400 q 779 279 779 342 q 750 202 779 228 q 664 161 721 176 l 600 144 q 560 124 574 138 q 544 82 546 111 l 779 82 l 779 0 l 449 0 z "},"⅓":{"ha":806,"x_min":21,"x_max":785,"o":"m 35 492 l 35 574 l 157 574 l 157 761 l 61 707 l 21 768 l 185 883 l 253 883 l 253 574 l 374 574 l 374 492 l 35 492 m 501 506 l 453 549 l 707 881 l 785 814 l 501 506 m 99 -6 l 21 61 l 304 369 l 353 326 l 99 -6 m 442 -17 l 439 65 q 632 78 579 65 q 685 124 685 90 q 669 148 685 140 q 601 156 653 156 l 511 156 l 511 232 l 578 232 q 653 243 633 232 q 672 275 672 254 q 655 308 672 297 q 599 318 638 318 q 531 310 563 318 q 475 286 500 301 l 440 363 q 517 391 478 382 q 600 400 557 400 q 724 372 682 400 q 767 293 767 344 q 710 214 767 236 l 710 211 q 781 121 781 193 q 704 15 781 47 q 442 -17 628 -17 z "},"⅔":{"ha":806,"x_min":21,"x_max":785,"o":"m 32 492 l 32 560 q 65 665 32 629 q 163 718 97 700 l 225 735 q 258 749 249 742 q 267 771 267 757 q 249 801 267 792 q 197 810 231 810 q 129 799 160 810 q 71 771 99 789 l 35 847 q 108 879 68 867 q 200 892 147 892 q 319 863 275 892 q 363 771 363 833 q 333 694 363 719 q 247 653 304 668 l 183 636 q 143 616 157 629 q 128 574 129 603 l 363 574 l 363 492 l 32 492 m 501 506 l 453 549 l 707 881 l 785 814 l 501 506 m 99 -6 l 21 61 l 304 369 l 353 326 l 99 -6 m 442 -17 l 439 65 q 632 78 579 65 q 685 124 685 90 q 669 148 685 140 q 601 156 653 156 l 511 156 l 511 232 l 578 232 q 653 243 633 232 q 672 275 672 254 q 655 308 672 297 q 599 318 638 318 q 531 310 563 318 q 475 286 500 301 l 440 363 q 517 391 478 382 q 600 400 557 400 q 724 372 682 400 q 767 293 767 344 q 710 214 767 236 l 710 211 q 781 121 781 193 q 704 15 781 47 q 442 -17 628 -17 z "},"¼":{"ha":806,"x_min":21,"x_max":813,"o":"m 35 492 l 35 574 l 157 574 l 157 761 l 61 707 l 21 768 l 185 883 l 253 883 l 253 574 l 374 574 l 374 492 l 35 492 m 529 506 l 481 549 l 735 881 l 813 814 l 529 506 m 126 -6 l 49 61 l 332 369 l 381 326 l 126 -6 m 633 0 l 633 79 l 394 79 l 394 146 l 588 383 l 697 383 l 517 161 l 633 161 l 633 218 l 729 263 l 729 161 l 801 161 l 801 79 l 729 79 l 729 0 l 633 0 z "},"¾":{"ha":806,"x_min":22,"x_max":801,"o":"m 25 475 l 22 557 q 215 569 163 557 q 268 615 268 582 q 252 640 268 632 q 185 647 236 647 l 94 647 l 94 724 l 161 724 q 236 735 217 724 q 256 767 256 746 q 238 799 256 789 q 182 810 221 810 q 115 801 146 810 q 58 778 83 793 l 24 854 q 101 883 61 874 q 183 892 140 892 q 308 864 265 892 q 350 785 350 836 q 293 706 350 728 l 293 703 q 364 613 364 685 q 288 507 364 539 q 25 475 211 475 m 515 506 l 467 549 l 721 881 l 799 814 l 515 506 m 113 -6 l 35 61 l 318 369 l 367 326 l 113 -6 m 633 0 l 633 79 l 394 79 l 394 146 l 588 383 l 697 383 l 517 161 l 633 161 l 633 218 l 729 263 l 729 161 l 801 161 l 801 79 l 729 79 l 729 0 l 633 0 z "},"⅕":{"ha":806,"x_min":21,"x_max":792,"o":"m 35 492 l 35 574 l 157 574 l 157 761 l 61 707 l 21 768 l 185 883 l 253 883 l 253 574 l 374 574 l 374 492 l 35 492 m 508 506 l 460 549 l 714 881 l 792 814 l 508 506 m 106 -6 l 28 61 l 311 369 l 360 326 l 106 -6 m 447 -17 l 444 65 q 588 71 536 65 q 660 89 639 76 q 681 122 681 101 q 669 147 681 138 q 621 157 658 157 q 572 152 594 157 q 526 138 550 147 l 451 158 l 476 383 l 760 383 l 760 301 l 556 301 l 546 214 q 591 231 568 225 q 643 238 614 238 q 741 210 706 238 q 776 125 776 182 q 701 16 776 49 q 447 -17 625 -17 z "},"⅖":{"ha":806,"x_min":21,"x_max":785,"o":"m 32 492 l 32 560 q 65 665 32 629 q 163 718 97 700 l 225 735 q 258 749 249 742 q 267 771 267 757 q 249 801 267 792 q 197 810 231 810 q 129 799 160 810 q 71 771 99 789 l 35 847 q 108 879 68 867 q 200 892 147 892 q 319 863 275 892 q 363 771 363 833 q 333 694 363 719 q 247 653 304 668 l 183 636 q 143 616 157 629 q 128 574 129 603 l 363 574 l 363 492 l 32 492 m 501 506 l 453 549 l 707 881 l 785 814 l 501 506 m 99 -6 l 21 61 l 304 369 l 353 326 l 99 -6 m 447 -17 l 444 65 q 588 71 536 65 q 660 89 639 76 q 681 122 681 101 q 669 147 681 138 q 621 157 658 157 q 572 152 594 157 q 526 138 550 147 l 451 158 l 476 383 l 760 383 l 760 301 l 556 301 l 546 214 q 591 231 568 225 q 643 238 614 238 q 741 210 706 238 q 776 125 776 182 q 701 16 776 49 q 447 -17 625 -17 z "},"⅗":{"ha":806,"x_min":21,"x_max":785,"o":"m 25 475 l 22 557 q 215 569 163 557 q 268 615 268 582 q 252 640 268 632 q 185 647 236 647 l 94 647 l 94 724 l 161 724 q 236 735 217 724 q 256 767 256 746 q 238 799 256 789 q 182 810 221 810 q 115 801 146 810 q 58 778 83 793 l 24 854 q 101 883 61 874 q 183 892 140 892 q 308 864 265 892 q 350 785 350 836 q 293 706 350 728 l 293 703 q 364 613 364 685 q 288 507 364 539 q 25 475 211 475 m 501 506 l 453 549 l 707 881 l 785 814 l 501 506 m 99 -6 l 21 61 l 304 369 l 353 326 l 99 -6 m 447 -17 l 444 65 q 588 71 536 65 q 660 89 639 76 q 681 122 681 101 q 669 147 681 138 q 621 157 658 157 q 572 152 594 157 q 526 138 550 147 l 451 158 l 476 383 l 760 383 l 760 301 l 556 301 l 546 214 q 591 231 568 225 q 643 238 614 238 q 741 210 706 238 q 776 125 776 182 q 701 16 776 49 q 447 -17 625 -17 z "},"⅘":{"ha":806,"x_min":6,"x_max":806,"o":"m 244 492 l 244 571 l 6 571 l 6 638 l 199 875 l 308 875 l 128 653 l 244 653 l 244 710 l 340 754 l 340 653 l 413 653 l 413 571 l 340 571 l 340 492 l 244 492 m 522 506 l 474 549 l 728 881 l 806 814 l 522 506 m 119 -6 l 42 61 l 325 369 l 374 326 l 119 -6 m 447 -17 l 444 65 q 588 71 536 65 q 660 89 639 76 q 681 122 681 101 q 669 147 681 138 q 621 157 658 157 q 572 152 594 157 q 526 138 550 147 l 451 158 l 476 383 l 760 383 l 760 301 l 556 301 l 546 214 q 591 231 568 225 q 643 238 614 238 q 741 210 706 238 q 776 125 776 182 q 701 16 776 49 q 447 -17 625 -17 z "},"⅙":{"ha":806,"x_min":21,"x_max":813,"o":"m 35 492 l 35 574 l 157 574 l 157 761 l 61 707 l 21 768 l 185 883 l 253 883 l 253 574 l 374 574 l 374 492 l 35 492 m 529 506 l 481 549 l 735 881 l 813 814 l 529 506 m 126 -6 l 49 61 l 332 369 l 381 326 l 126 -6 m 611 -17 q 479 31 525 -17 q 433 163 433 78 q 511 335 433 271 q 744 400 589 400 l 750 318 q 589 286 640 317 q 531 200 538 256 l 533 200 q 579 229 553 218 q 643 240 606 240 q 742 208 707 240 q 776 118 776 175 q 733 20 776 57 q 611 -17 689 -17 m 613 64 q 664 78 647 64 q 681 117 681 93 q 666 149 681 136 q 615 161 651 161 q 571 154 592 161 q 531 132 550 147 q 556 82 536 100 q 613 64 576 64 z "},"⅚":{"ha":806,"x_min":28,"x_max":799,"o":"m 31 475 l 28 557 q 171 563 119 557 q 243 581 222 568 q 264 614 264 593 q 253 639 264 629 q 204 649 242 649 q 156 644 178 649 q 110 629 133 639 l 35 650 l 60 875 l 343 875 l 343 793 l 139 793 l 129 706 q 174 723 151 717 q 226 729 197 729 q 324 701 289 729 q 360 617 360 674 q 284 508 360 540 q 31 475 208 475 m 515 506 l 467 549 l 721 881 l 799 814 l 515 506 m 113 -6 l 35 61 l 318 369 l 367 326 l 113 -6 m 611 -17 q 479 31 525 -17 q 433 163 433 78 q 511 335 433 271 q 744 400 589 400 l 750 318 q 589 286 640 317 q 531 200 538 256 l 533 200 q 579 229 553 218 q 643 240 606 240 q 742 208 707 240 q 776 118 776 175 q 733 20 776 57 q 611 -17 689 -17 m 613 64 q 664 78 647 64 q 681 117 681 93 q 666 149 681 136 q 615 161 651 161 q 571 154 592 161 q 531 132 550 147 q 556 82 536 100 q 613 64 576 64 z "},"⅛":{"ha":806,"x_min":21,"x_max":792,"o":"m 35 492 l 35 574 l 157 574 l 157 761 l 61 707 l 21 768 l 185 883 l 253 883 l 253 574 l 374 574 l 374 492 l 35 492 m 508 506 l 460 549 l 714 881 l 792 814 l 508 506 m 106 -6 l 28 61 l 311 369 l 360 326 l 106 -6 m 611 -17 q 480 16 529 -17 q 431 103 431 49 q 449 155 431 135 q 497 189 467 175 l 497 192 q 443 279 443 219 q 488 369 443 339 q 611 400 533 400 q 734 370 689 400 q 779 290 779 340 q 764 244 779 264 q 722 213 749 225 l 722 210 q 775 171 758 196 q 792 114 792 146 q 742 17 792 50 q 611 -17 692 -17 m 613 64 q 673 74 650 64 q 696 111 696 85 q 682 140 696 129 q 638 156 668 150 l 572 168 q 538 142 549 158 q 526 111 526 126 q 549 74 526 85 q 613 64 572 64 m 646 229 q 676 251 667 239 q 685 276 685 263 q 610 319 685 319 q 557 309 576 319 q 538 278 538 299 q 552 252 538 260 q 601 238 567 244 l 646 229 z "},"⅜":{"ha":806,"x_min":21,"x_max":792,"o":"m 25 475 l 22 557 q 215 569 163 557 q 268 615 268 582 q 252 640 268 632 q 185 647 236 647 l 94 647 l 94 724 l 161 724 q 236 735 217 724 q 256 767 256 746 q 238 799 256 789 q 182 810 221 810 q 115 801 146 810 q 58 778 83 793 l 24 854 q 101 883 61 874 q 183 892 140 892 q 308 864 265 892 q 350 785 350 836 q 293 706 350 728 l 293 703 q 364 613 364 685 q 288 507 364 539 q 25 475 211 475 m 501 506 l 453 549 l 707 881 l 785 814 l 501 506 m 99 -6 l 21 61 l 304 369 l 353 326 l 99 -6 m 611 -17 q 480 16 529 -17 q 431 103 431 49 q 449 155 431 135 q 497 189 467 175 l 497 192 q 443 279 443 219 q 488 369 443 339 q 611 400 533 400 q 734 370 689 400 q 779 290 779 340 q 764 244 779 264 q 722 213 749 225 l 722 210 q 775 171 758 196 q 792 114 792 146 q 742 17 792 50 q 611 -17 692 -17 m 613 64 q 673 74 650 64 q 696 111 696 85 q 682 140 696 129 q 638 156 668 150 l 572 168 q 538 142 549 158 q 526 111 526 126 q 549 74 526 85 q 613 64 572 64 m 646 229 q 676 251 667 239 q 685 276 685 263 q 610 319 685 319 q 557 309 576 319 q 538 278 538 299 q 552 252 538 260 q 601 238 567 244 l 646 229 z "},"⅝":{"ha":806,"x_min":21,"x_max":792,"o":"m 31 475 l 28 557 q 171 563 119 557 q 243 581 222 568 q 264 614 264 593 q 253 639 264 629 q 204 649 242 649 q 156 644 178 649 q 110 629 133 639 l 35 650 l 60 875 l 343 875 l 343 793 l 139 793 l 129 706 q 174 723 151 717 q 226 729 197 729 q 324 701 289 729 q 360 617 360 674 q 284 508 360 540 q 31 475 208 475 m 501 506 l 453 549 l 707 881 l 785 814 l 501 506 m 99 -6 l 21 61 l 304 369 l 353 326 l 99 -6 m 611 -17 q 480 16 529 -17 q 431 103 431 49 q 449 155 431 135 q 497 189 467 175 l 497 192 q 443 279 443 219 q 488 369 443 339 q 611 400 533 400 q 734 370 689 400 q 779 290 779 340 q 764 244 779 264 q 722 213 749 225 l 722 210 q 775 171 758 196 q 792 114 792 146 q 742 17 792 50 q 611 -17 692 -17 m 613 64 q 673 74 650 64 q 696 111 696 85 q 682 140 696 129 q 638 156 668 150 l 572 168 q 538 142 549 158 q 526 111 526 126 q 549 74 526 85 q 613 64 572 64 m 646 229 q 676 251 667 239 q 685 276 685 263 q 610 319 685 319 q 557 309 576 319 q 538 278 538 299 q 552 252 538 260 q 601 238 567 244 l 646 229 z "},"⅞":{"ha":806,"x_min":-7,"x_max":792,"o":"m 85 492 q 147 660 108 588 q 246 793 186 733 l 28 793 l 28 875 l 363 875 l 363 792 q 251 660 293 732 q 190 492 208 589 l 85 492 m 474 506 l 425 549 l 679 881 l 757 814 l 474 506 m 71 -6 l -7 61 l 276 369 l 325 326 l 71 -6 m 611 -17 q 480 16 529 -17 q 431 103 431 49 q 449 155 431 135 q 497 189 467 175 l 497 192 q 443 279 443 219 q 488 369 443 339 q 611 400 533 400 q 734 370 689 400 q 779 290 779 340 q 764 244 779 264 q 722 213 749 225 l 722 210 q 775 171 758 196 q 792 114 792 146 q 742 17 792 50 q 611 -17 692 -17 m 613 64 q 673 74 650 64 q 696 111 696 85 q 682 140 696 129 q 638 156 668 150 l 572 168 q 538 142 549 158 q 526 111 526 126 q 549 74 526 85 q 613 64 572 64 m 646 229 q 676 251 667 239 q 685 276 685 263 q 610 319 685 319 q 557 309 576 319 q 538 278 538 299 q 552 252 538 260 q 601 238 567 244 l 646 229 z "},"₀":{"ha":806,"x_min":129,"x_max":676,"o":"m 403 -192 q 199 -107 269 -192 q 129 138 129 -22 q 199 383 129 299 q 403 467 269 467 q 606 383 536 467 q 676 138 676 299 q 606 -107 676 -22 q 403 -192 536 -192 m 403 -100 q 576 138 576 -100 q 564 246 576 200 l 278 -46 q 403 -100 322 -100 m 242 29 l 528 322 q 403 375 483 375 q 229 138 229 375 q 242 29 229 75 z "},"₁":{"ha":806,"x_min":143,"x_max":671,"o":"m 151 -175 l 151 -85 l 361 -85 l 361 313 l 183 215 l 143 282 l 393 458 l 461 458 l 461 -85 l 671 -85 l 671 -175 l 151 -175 z "},"₂":{"ha":806,"x_min":153,"x_max":651,"o":"m 154 -175 l 154 -101 q 202 79 154 15 q 364 169 250 143 l 456 192 q 528 224 504 203 q 551 279 551 244 q 513 351 551 328 q 403 375 474 375 q 296 359 344 375 q 203 310 247 343 l 153 388 q 268 447 208 428 q 400 467 328 467 q 586 417 521 467 q 651 276 651 368 q 610 165 651 207 q 479 99 569 122 l 390 76 q 288 24 318 58 q 254 -85 258 -10 l 651 -85 l 651 -175 l 154 -175 z "},"₃":{"ha":806,"x_min":143,"x_max":653,"o":"m 150 -192 l 147 -101 q 382 -89 293 -101 q 512 -49 471 -76 q 553 22 553 -22 q 519 80 553 63 q 410 97 485 97 l 261 97 l 261 186 l 357 186 q 484 210 442 186 q 526 283 526 235 q 382 375 526 375 q 189 319 274 375 l 143 400 q 256 451 196 435 q 385 467 317 467 q 565 423 503 467 q 626 299 626 379 q 533 164 626 201 l 533 161 q 653 18 653 136 q 603 -103 653 -57 q 442 -171 553 -150 q 150 -192 332 -192 z "},"₄":{"ha":806,"x_min":106,"x_max":703,"o":"m 475 -175 l 475 -36 l 106 -36 l 106 40 l 401 450 l 510 450 l 226 54 l 475 54 l 475 235 l 575 292 l 575 54 l 703 54 l 703 -36 l 575 -36 l 575 -175 l 475 -175 z "},"₅":{"ha":806,"x_min":154,"x_max":649,"o":"m 157 -192 l 154 -101 q 381 -88 294 -101 q 508 -46 468 -75 q 549 31 549 -17 q 519 92 549 71 q 422 114 489 114 q 256 75 329 114 l 178 104 l 219 450 l 621 450 l 621 360 l 299 360 l 276 168 q 443 204 349 204 q 596 159 543 204 q 649 31 649 114 q 599 -97 649 -49 q 440 -168 549 -146 q 157 -192 332 -190 z "},"₆":{"ha":806,"x_min":144,"x_max":667,"o":"m 414 -192 q 216 -116 288 -192 q 144 99 144 -40 q 263 369 144 275 q 614 467 382 464 l 619 376 q 353 317 446 372 q 247 154 261 261 l 250 154 q 439 228 328 228 q 605 172 543 228 q 667 26 667 117 q 597 -131 667 -71 q 414 -192 528 -192 m 415 -100 q 526 -66 485 -100 q 567 24 567 -32 q 528 106 567 75 q 421 138 490 138 q 325 118 369 138 q 246 58 281 99 q 297 -58 253 -15 q 415 -100 340 -100 z "},"₇":{"ha":806,"x_min":146,"x_max":658,"o":"m 254 -175 q 363 116 293 -14 q 542 360 432 246 l 146 360 l 146 450 l 658 450 l 658 353 q 470 111 540 239 q 368 -175 400 -17 l 254 -175 z "},"₈":{"ha":806,"x_min":131,"x_max":675,"o":"m 403 -192 q 203 -143 275 -192 q 131 -10 131 -94 q 159 78 131 40 q 251 149 188 117 l 251 151 q 158 290 158 199 q 225 419 158 372 q 403 467 292 467 q 581 420 515 467 q 647 294 647 374 q 553 153 647 206 l 553 150 q 644 92 613 129 q 675 -3 675 56 q 603 -142 675 -92 q 403 -192 532 -192 m 403 -100 q 528 -75 481 -100 q 575 -4 575 -50 q 553 45 575 26 q 488 76 531 64 l 354 117 q 262 64 293 92 q 231 -3 231 36 q 276 -75 231 -50 q 403 -100 322 -100 m 450 182 q 524 229 501 203 q 547 288 547 256 q 510 353 547 332 q 403 375 472 375 q 297 354 336 375 q 258 293 258 333 q 278 248 258 267 q 347 214 299 229 l 450 182 z "},"₉":{"ha":806,"x_min":139,"x_max":661,"o":"m 192 -192 l 186 -101 q 452 -42 360 -97 q 558 121 544 14 l 556 121 q 367 47 478 47 q 201 103 263 47 q 139 249 139 160 q 208 407 139 347 q 392 467 278 467 q 590 391 518 467 q 661 176 661 315 q 542 -94 661 0 q 192 -192 424 -189 m 385 138 q 481 157 438 138 q 560 217 525 176 q 510 333 554 290 q 390 375 465 375 q 281 342 322 375 q 239 251 239 308 q 277 169 239 200 q 385 138 315 138 z "},"⁰":{"ha":806,"x_min":129,"x_max":676,"o":"m 403 408 q 199 493 269 408 q 129 738 129 578 q 199 983 129 899 q 403 1067 269 1067 q 606 983 536 1067 q 676 738 676 899 q 606 493 676 578 q 403 408 536 408 m 403 500 q 576 738 576 500 q 564 846 576 800 l 278 554 q 403 500 322 500 m 242 629 l 528 922 q 403 975 483 975 q 229 738 229 975 q 242 629 229 675 z "},"¹":{"ha":806,"x_min":143,"x_max":671,"o":"m 151 425 l 151 515 l 361 515 l 361 913 l 183 815 l 143 882 l 393 1058 l 461 1058 l 461 515 l 671 515 l 671 425 l 151 425 z "},"²":{"ha":806,"x_min":153,"x_max":651,"o":"m 154 425 l 154 499 q 202 679 154 615 q 364 769 250 743 l 456 792 q 528 824 504 803 q 551 879 551 844 q 513 951 551 928 q 403 975 474 975 q 296 959 344 975 q 203 910 247 943 l 153 988 q 268 1047 208 1028 q 400 1067 328 1067 q 586 1017 521 1067 q 651 876 651 968 q 610 765 651 807 q 479 699 569 722 l 390 676 q 288 624 318 658 q 254 515 258 590 l 651 515 l 651 425 l 154 425 z "},"³":{"ha":806,"x_min":143,"x_max":653,"o":"m 150 408 l 147 499 q 382 511 293 499 q 512 551 471 524 q 553 622 553 578 q 519 680 553 663 q 410 697 485 697 l 261 697 l 261 786 l 357 786 q 484 810 442 786 q 526 883 526 835 q 382 975 526 975 q 189 919 274 975 l 143 1000 q 256 1051 196 1035 q 385 1067 317 1067 q 565 1023 503 1067 q 626 899 626 979 q 533 764 626 801 l 533 761 q 653 618 653 736 q 603 497 653 543 q 442 429 553 450 q 150 408 332 408 z "},"⁴":{"ha":806,"x_min":106,"x_max":703,"o":"m 475 425 l 475 564 l 106 564 l 106 640 l 401 1050 l 510 1050 l 226 654 l 475 654 l 475 835 l 575 892 l 575 654 l 703 654 l 703 564 l 575 564 l 575 425 l 475 425 z "},"⁵":{"ha":806,"x_min":154,"x_max":649,"o":"m 157 408 l 154 499 q 381 512 294 499 q 508 554 468 525 q 549 631 549 583 q 519 692 549 671 q 422 714 489 714 q 256 675 329 714 l 178 704 l 219 1050 l 621 1050 l 621 960 l 299 960 l 276 768 q 443 804 349 804 q 596 759 543 804 q 649 631 649 714 q 599 503 649 551 q 440 432 549 454 q 157 408 332 410 z "},"⁶":{"ha":806,"x_min":144,"x_max":667,"o":"m 414 408 q 216 484 288 408 q 144 699 144 560 q 263 969 144 875 q 614 1067 382 1064 l 619 976 q 353 917 446 972 q 247 754 261 861 l 250 754 q 439 828 328 828 q 605 772 543 828 q 667 626 667 717 q 597 469 667 529 q 414 408 528 408 m 415 500 q 526 534 485 500 q 567 624 567 568 q 528 706 567 675 q 421 738 490 738 q 325 718 369 738 q 246 658 281 699 q 297 542 253 585 q 415 500 340 500 z "},"⁷":{"ha":806,"x_min":146,"x_max":658,"o":"m 254 425 q 363 716 293 586 q 542 960 432 846 l 146 960 l 146 1050 l 658 1050 l 658 953 q 470 711 540 839 q 368 425 400 583 l 254 425 z "},"⁸":{"ha":806,"x_min":131,"x_max":675,"o":"m 403 408 q 203 457 275 408 q 131 590 131 506 q 159 678 131 640 q 251 749 188 717 l 251 751 q 158 890 158 799 q 225 1019 158 972 q 403 1067 292 1067 q 581 1020 515 1067 q 647 894 647 974 q 553 753 647 806 l 553 750 q 644 692 613 729 q 675 597 675 656 q 603 458 675 508 q 403 408 532 408 m 403 500 q 528 525 481 500 q 575 596 575 550 q 553 645 575 626 q 488 676 531 664 l 354 717 q 262 664 293 692 q 231 597 231 636 q 276 525 231 550 q 403 500 322 500 m 450 782 q 524 829 501 803 q 547 888 547 856 q 510 953 547 932 q 403 975 472 975 q 297 954 336 975 q 258 893 258 933 q 278 848 258 867 q 347 814 299 829 l 450 782 z "},"⁹":{"ha":806,"x_min":139,"x_max":661,"o":"m 192 408 l 186 499 q 452 558 360 503 q 558 721 544 614 l 556 721 q 367 647 478 647 q 201 703 263 647 q 139 849 139 760 q 208 1007 139 947 q 392 1067 278 1067 q 590 991 518 1067 q 661 776 661 915 q 542 506 661 600 q 192 408 424 411 m 385 738 q 481 757 438 738 q 560 817 525 776 q 510 933 554 890 q 390 975 465 975 q 281 942 322 975 q 239 851 239 908 q 277 769 239 800 q 385 738 315 738 z "}," ":{"ha":806,"x_min":0,"x_max":0,"o":""}," ":{"ha":806,"x_min":0,"x_max":0,"o":""}," ":{"ha":806,"x_min":0,"x_max":0,"o":""}," ":{"ha":806,"x_min":0,"x_max":0,"o":""}," ":{"ha":806,"x_min":0,"x_max":0,"o":""},".":{"ha":806,"x_min":299,"x_max":507,"o":"m 403 -17 q 329 14 360 -17 q 299 88 299 44 q 329 160 299 129 q 403 192 360 192 q 476 160 446 192 q 507 88 507 129 q 476 14 507 44 q 403 -17 446 -17 z "},",":{"ha":806,"x_min":253,"x_max":507,"o":"m 269 -262 l 253 -194 q 365 -127 326 -175 q 413 -7 403 -79 q 402 -9 407 -8 q 392 -10 397 -10 q 326 19 353 -10 q 299 89 299 47 q 326 161 299 131 q 400 192 354 192 q 474 162 442 192 q 507 54 507 132 q 483 -71 507 -6 q 406 -188 458 -136 q 269 -262 353 -240 z "},":":{"ha":806,"x_min":299,"x_max":507,"o":"m 403 461 q 329 492 360 461 q 299 565 299 522 q 329 638 299 607 q 403 669 360 669 q 476 638 446 669 q 507 565 507 607 q 476 492 507 522 q 403 461 446 461 m 403 -17 q 329 14 360 -17 q 299 88 299 44 q 329 160 299 129 q 403 192 360 192 q 476 160 446 192 q 507 88 507 129 q 476 14 507 44 q 403 -17 446 -17 z "},";":{"ha":806,"x_min":253,"x_max":507,"o":"m 269 -262 l 253 -194 q 365 -127 326 -175 q 413 -7 403 -79 q 402 -9 407 -8 q 392 -10 397 -10 q 326 19 353 -10 q 299 89 299 47 q 326 161 299 131 q 400 192 354 192 q 474 162 442 192 q 507 54 507 132 q 483 -71 507 -6 q 406 -188 458 -136 q 269 -262 353 -240 m 403 461 q 329 492 360 461 q 299 565 299 522 q 329 638 299 607 q 403 669 360 669 q 476 638 446 669 q 507 565 507 607 q 476 492 507 522 q 403 461 446 461 z "},"…":{"ha":806,"x_min":49,"x_max":757,"o":"m 404 -17 q 344 8 369 -17 q 318 69 318 33 q 344 128 318 103 q 404 154 369 154 q 465 128 440 154 q 489 69 489 103 q 465 8 489 33 q 404 -17 440 -17 m 135 -17 q 74 8 100 -17 q 49 69 49 33 q 74 128 49 103 q 135 154 100 154 q 195 128 171 154 q 219 69 219 103 q 195 8 219 33 q 135 -17 171 -17 m 672 -17 q 612 8 638 -17 q 586 69 586 33 q 612 128 586 103 q 672 154 638 154 q 733 128 708 154 q 757 69 757 103 q 733 8 757 33 q 672 -17 708 -17 z "},"!":{"ha":806,"x_min":307,"x_max":499,"o":"m 392 303 l 315 842 l 315 903 l 490 903 l 490 842 l 414 303 l 392 303 m 403 -17 q 335 12 364 -17 q 307 79 307 40 q 335 147 307 119 q 403 175 364 175 q 471 147 443 175 q 499 79 499 119 q 471 12 499 40 q 403 -17 443 -17 z "},"¡":{"ha":806,"x_min":307,"x_max":499,"o":"m 414 350 l 490 -189 l 490 -250 l 315 -250 l 315 -189 l 392 350 l 414 350 m 403 669 q 471 642 443 669 q 499 574 499 614 q 471 506 499 535 q 403 478 443 478 q 335 506 364 478 q 307 574 307 535 q 335 642 307 614 q 403 669 364 669 z "},"?":{"ha":806,"x_min":88,"x_max":706,"o":"m 299 303 q 286 392 286 353 q 404 543 286 514 l 481 563 q 574 606 547 579 q 601 685 601 633 q 553 789 601 756 q 407 822 504 822 q 264 799 328 822 q 140 728 200 776 l 88 810 q 233 893 158 867 q 403 919 308 919 q 627 860 549 919 q 706 685 706 801 q 660 546 706 597 q 515 469 614 494 l 439 450 q 394 427 408 443 q 379 376 379 411 q 381 344 379 363 q 389 303 383 326 l 299 303 m 349 -17 q 281 12 310 -17 q 253 79 253 40 q 281 147 253 119 q 349 175 310 175 q 417 147 389 175 q 444 79 444 119 q 417 12 444 40 q 349 -17 389 -17 z "},"¿":{"ha":806,"x_min":100,"x_max":718,"o":"m 507 350 q 519 261 519 300 q 401 110 519 139 l 325 90 q 231 47 258 74 q 204 -32 204 19 q 253 -136 204 -103 q 399 -169 301 -169 q 542 -146 478 -169 q 665 -75 606 -122 l 718 -157 q 572 -240 647 -212 q 403 -267 497 -267 q 178 -208 257 -267 q 100 -32 100 -149 q 147 107 100 56 q 290 183 193 158 l 367 203 q 412 226 397 210 q 426 276 426 242 q 424 310 426 292 q 417 350 422 328 l 507 350 m 457 669 q 525 642 497 669 q 553 574 553 614 q 525 506 553 535 q 457 478 497 478 q 390 506 418 478 q 361 574 361 535 q 390 642 361 614 q 457 669 418 669 z "},"·":{"ha":806,"x_min":299,"x_max":507,"o":"m 403 285 q 329 315 360 285 q 299 389 299 346 q 329 462 299 431 q 403 493 360 493 q 476 462 446 493 q 507 389 507 431 q 476 315 507 346 q 403 285 446 285 z "},"•":{"ha":806,"x_min":215,"x_max":590,"o":"m 403 201 q 309 226 351 201 q 241 294 267 251 q 215 389 215 338 q 241 482 215 439 q 309 551 267 525 q 403 576 351 576 q 497 551 454 576 q 565 482 539 525 q 590 389 590 439 q 565 294 590 338 q 497 226 539 251 q 403 201 454 201 z "},"*":{"ha":806,"x_min":75,"x_max":731,"o":"m 350 35 l 368 322 l 128 163 l 75 254 l 333 382 l 75 510 l 128 601 l 368 442 l 350 729 l 456 729 l 438 442 l 678 601 l 731 510 l 472 382 l 731 254 l 678 163 l 438 322 l 456 35 l 350 35 z "},"‖":{"ha":806,"x_min":215,"x_max":590,"o":"m 215 -167 l 215 903 l 313 903 l 313 -167 l 215 -167 m 493 -167 l 493 903 l 590 903 l 590 -167 l 493 -167 z "},"#":{"ha":806,"x_min":29,"x_max":776,"o":"m 151 0 l 193 242 l 29 242 l 43 322 l 208 322 l 253 581 l 88 581 l 101 661 l 267 661 l 304 875 l 389 875 l 351 661 l 528 661 l 565 875 l 650 875 l 613 661 l 776 661 l 763 581 l 599 581 l 554 322 l 718 322 l 704 242 l 539 242 l 497 0 l 413 0 l 454 242 l 278 242 l 236 0 l 151 0 m 293 322 l 469 322 l 514 581 l 338 581 l 293 322 z "},"/":{"ha":806,"x_min":83,"x_max":722,"o":"m 83 -83 l 617 986 l 722 986 l 189 -83 l 83 -83 z "},"\\":{"ha":806,"x_min":83,"x_max":722,"o":"m 617 -83 l 83 986 l 189 986 l 722 -83 l 617 -83 z "},"-":{"ha":806,"x_min":125,"x_max":681,"o":"m 125 336 l 125 428 l 681 428 l 681 336 l 125 336 z "},"–":{"ha":806,"x_min":83,"x_max":722,"o":"m 83 336 l 83 428 l 722 428 l 722 336 l 83 336 z "},"—":{"ha":806,"x_min":0,"x_max":806,"o":"m 0 336 l 0 428 l 806 428 l 806 336 l 0 336 z "},"_":{"ha":806,"x_min":0,"x_max":806,"o":"m 0 -192 l 0 -100 l 806 -100 l 806 -192 l 0 -192 z "},"(":{"ha":806,"x_min":183,"x_max":629,"o":"m 629 -308 q 392 -183 492 -274 q 238 42 292 -93 q 183 347 183 178 q 238 652 183 517 q 392 878 292 788 q 629 1003 492 969 l 629 915 q 444 804 521 882 q 327 611 368 726 q 286 347 286 496 q 327 84 286 200 q 444 -110 368 -32 q 629 -221 521 -187 l 629 -308 z "},")":{"ha":806,"x_min":176,"x_max":622,"o":"m 176 -308 l 176 -221 q 362 -110 285 -187 q 479 84 439 -32 q 519 347 519 200 q 479 611 519 496 q 362 804 439 726 q 176 915 285 882 l 176 1003 q 415 878 315 969 q 568 652 514 788 q 622 347 622 517 q 568 42 622 178 q 415 -183 514 -93 q 176 -308 315 -274 z "},"{":{"ha":806,"x_min":119,"x_max":682,"o":"m 590 -292 q 386 -230 450 -292 q 322 -43 322 -168 q 324 10 322 -15 q 329 58 326 35 q 334 105 332 82 q 336 150 336 128 q 303 268 336 232 q 196 304 271 304 l 119 304 l 119 390 l 196 390 q 303 426 271 390 q 336 544 336 463 q 334 591 336 568 q 329 636 332 614 q 324 685 326 660 q 322 738 322 711 q 386 924 322 863 q 590 986 450 986 l 682 986 l 682 900 l 617 900 q 469 860 515 900 q 422 731 422 819 q 424 688 422 713 q 429 640 426 664 q 434 592 432 617 q 436 543 436 567 q 405 413 436 460 q 314 350 374 367 l 314 344 q 405 281 374 328 q 436 151 436 235 q 434 103 436 128 q 429 54 432 78 q 424 8 426 32 q 422 -36 422 -17 q 469 -165 422 -125 q 617 -206 515 -206 l 682 -206 l 682 -292 l 590 -292 z "},"}":{"ha":806,"x_min":124,"x_max":686,"o":"m 124 -292 l 124 -206 l 189 -206 q 337 -165 290 -206 q 383 -36 383 -125 q 381 8 383 -17 q 376 54 379 32 q 372 103 374 78 q 369 151 369 128 q 401 281 369 235 q 492 344 432 328 l 492 350 q 401 413 432 367 q 369 543 369 460 q 372 592 369 567 q 376 640 374 617 q 381 688 379 664 q 383 731 383 713 q 337 860 383 819 q 189 900 290 900 l 124 900 l 124 986 l 215 986 q 419 924 356 986 q 483 738 483 863 q 481 685 483 711 q 476 636 479 660 q 472 591 474 614 q 469 544 469 568 q 502 426 469 463 q 610 390 535 390 l 686 390 l 686 304 l 610 304 q 502 268 535 304 q 469 150 469 232 q 472 105 469 128 q 476 58 474 82 q 481 10 479 35 q 483 -43 483 -15 q 419 -230 483 -168 q 215 -292 356 -292 l 124 -292 z "},"[":{"ha":806,"x_min":214,"x_max":651,"o":"m 214 -292 l 214 986 l 651 986 l 651 900 l 314 900 l 314 -206 l 651 -206 l 651 -292 l 214 -292 z "},"]":{"ha":806,"x_min":154,"x_max":592,"o":"m 154 -292 l 154 -206 l 492 -206 l 492 900 l 154 900 l 154 986 l 592 986 l 592 -292 l 154 -292 z "},"‚":{"ha":806,"x_min":253,"x_max":507,"o":"m 269 -262 l 253 -194 q 365 -127 326 -175 q 413 -7 403 -79 q 402 -9 407 -8 q 392 -10 397 -10 q 326 19 353 -10 q 299 89 299 47 q 326 161 299 131 q 400 192 354 192 q 474 162 442 192 q 507 54 507 132 q 483 -71 507 -6 q 406 -188 458 -136 q 269 -262 353 -240 z "},"„":{"ha":806,"x_min":82,"x_max":678,"o":"m 440 -262 l 424 -194 q 535 -127 497 -175 q 583 -7 574 -79 q 573 -9 578 -8 q 563 -10 568 -10 q 497 19 524 -10 q 469 89 469 47 q 497 161 469 131 q 571 192 525 192 q 645 162 613 192 q 678 54 678 132 q 653 -71 678 -6 q 576 -188 629 -136 q 440 -262 524 -240 m 99 -262 l 82 -194 q 194 -127 156 -175 q 242 -7 232 -79 q 231 -9 236 -8 q 221 -10 226 -10 q 155 19 182 -10 q 128 89 128 47 q 156 161 128 131 q 229 192 183 192 q 303 162 271 192 q 336 54 336 132 q 312 -71 336 -6 q 235 -188 288 -136 q 99 -262 182 -240 z "},"“":{"ha":806,"x_min":115,"x_max":711,"o":"m 353 919 l 369 851 q 258 785 296 833 q 210 664 221 738 q 220 666 215 665 q 231 667 225 667 q 297 638 271 667 q 324 568 324 610 q 296 496 324 526 q 222 465 268 465 q 148 496 181 465 q 115 603 115 526 q 140 728 115 663 q 217 846 165 793 q 353 919 269 899 m 694 919 l 711 851 q 600 785 638 833 q 551 664 563 738 q 562 666 557 665 q 572 667 567 667 q 639 638 613 667 q 665 568 665 610 q 638 496 665 526 q 564 465 610 465 q 490 496 522 465 q 457 603 457 526 q 482 728 457 663 q 559 846 507 793 q 694 919 611 899 z "},"”":{"ha":806,"x_min":97,"x_max":693,"o":"m 456 465 l 439 533 q 551 601 513 553 q 599 721 589 649 q 588 719 593 719 q 578 718 583 718 q 512 747 539 718 q 485 817 485 775 q 513 889 485 858 q 586 919 540 919 q 660 890 628 919 q 693 782 693 860 q 669 657 693 722 q 592 540 644 592 q 456 465 539 488 m 114 465 l 97 533 q 209 601 171 553 q 257 721 247 649 q 247 719 251 719 q 236 718 242 718 q 170 747 197 718 q 143 817 143 775 q 171 889 143 858 q 244 919 199 919 q 319 890 286 919 q 351 782 351 860 q 327 657 351 722 q 250 540 303 592 q 114 465 197 488 z "},"‘":{"ha":806,"x_min":286,"x_max":540,"o":"m 524 919 l 540 851 q 429 785 467 833 q 381 664 392 738 q 391 666 386 665 q 401 667 396 667 q 468 638 442 667 q 494 568 494 610 q 467 496 494 526 q 393 465 439 465 q 319 496 351 465 q 286 603 286 526 q 311 728 286 663 q 388 846 336 793 q 524 919 440 899 z "},"’":{"ha":806,"x_min":268,"x_max":522,"o":"m 285 465 l 268 533 q 380 601 342 553 q 428 721 418 649 q 417 719 422 719 q 407 718 413 718 q 341 747 368 718 q 314 817 314 775 q 342 889 314 858 q 415 919 369 919 q 490 890 457 919 q 522 782 522 860 q 498 657 522 722 q 421 540 474 592 q 285 465 368 488 z "},"«":{"ha":806,"x_min":104,"x_max":700,"o":"m 656 79 l 431 289 l 431 364 l 656 574 l 700 531 l 549 326 l 700 122 l 656 79 m 329 79 l 104 289 l 104 364 l 329 574 l 374 531 l 222 326 l 374 122 l 329 79 z "},"»":{"ha":806,"x_min":106,"x_max":701,"o":"m 476 79 l 432 122 l 583 326 l 432 531 l 476 574 l 701 364 l 701 289 l 476 79 m 150 79 l 106 122 l 257 326 l 106 531 l 150 574 l 375 364 l 375 289 l 150 79 z "},"‹":{"ha":806,"x_min":228,"x_max":575,"o":"m 539 79 l 228 289 l 228 364 l 539 574 l 575 524 l 360 326 l 575 129 l 539 79 z "},"›":{"ha":806,"x_min":231,"x_max":578,"o":"m 267 79 l 231 129 l 446 326 l 231 524 l 267 574 l 578 364 l 578 289 l 267 79 z "},"\"":{"ha":806,"x_min":165,"x_max":640,"o":"m 211 519 l 165 903 l 318 903 l 272 519 l 211 519 m 533 519 l 488 903 l 640 903 l 594 519 l 533 519 z "},"'":{"ha":806,"x_min":319,"x_max":486,"o":"m 372 450 l 319 903 l 486 903 l 433 450 l 372 450 z "},"ƒ":{"ha":806,"x_min":64,"x_max":731,"o":"m 214 -131 q 138 -123 175 -131 q 64 -101 100 -115 l 89 -7 q 149 -26 118 -19 q 210 -33 179 -33 q 313 6 279 -33 q 346 131 346 46 l 346 440 l 111 440 l 111 535 l 346 535 l 346 646 q 406 831 346 771 q 581 892 465 892 q 657 885 619 892 q 731 863 694 878 l 706 768 q 646 788 676 781 q 585 794 615 794 q 483 756 517 794 q 449 631 449 717 l 449 535 l 683 535 l 683 440 l 449 440 l 449 115 q 389 -70 449 -10 q 214 -131 329 -131 z "},"":{"ha":806,"x_min":90,"x_max":715,"o":"m 90 464 l 90 639 l 265 639 l 265 464 l 90 464 m 315 389 l 315 414 l 290 414 l 290 539 l 340 539 l 340 589 l 290 589 l 290 639 l 315 639 l 315 614 l 365 614 l 365 589 l 390 589 l 390 614 l 365 614 l 365 639 l 415 639 l 415 614 l 440 614 l 440 639 l 465 639 l 465 589 l 490 589 l 490 564 l 465 564 l 465 514 l 440 514 l 440 489 l 415 489 l 415 564 l 365 564 l 365 539 l 390 539 l 390 489 l 365 489 l 365 514 l 315 514 l 315 439 l 340 439 l 340 489 l 365 489 l 365 464 l 390 464 l 390 489 l 415 489 l 415 439 l 365 439 l 365 389 l 315 389 m 490 589 l 490 639 l 515 639 l 515 589 l 490 589 m 540 464 l 540 639 l 715 639 l 715 464 l 540 464 m 115 489 l 240 489 l 240 614 l 115 614 l 115 489 m 565 489 l 690 489 l 690 614 l 565 614 l 565 489 m 140 514 l 140 589 l 215 589 l 215 514 l 140 514 m 590 514 l 590 589 l 665 589 l 665 514 l 590 514 m 440 439 l 440 489 l 465 489 l 465 439 l 440 439 m 490 464 l 490 489 l 515 489 l 515 464 l 490 464 m 115 364 l 115 389 l 90 389 l 90 439 l 165 439 l 165 414 l 140 414 l 140 389 l 165 389 l 165 364 l 115 364 m 190 389 l 190 414 l 215 414 l 215 439 l 265 439 l 265 414 l 240 414 l 240 389 l 190 389 m 465 364 l 465 439 l 490 439 l 490 414 l 515 414 l 515 389 l 490 389 l 490 364 l 465 364 m 515 339 l 515 389 l 540 389 l 540 414 l 515 414 l 515 439 l 615 439 l 615 414 l 590 414 l 590 389 l 615 389 l 615 414 l 640 414 l 640 389 l 665 389 l 665 364 l 640 364 l 640 339 l 590 339 l 590 364 l 540 364 l 540 339 l 515 339 m 690 364 l 690 389 l 665 389 l 665 439 l 715 439 l 715 364 l 690 364 m 240 364 l 240 389 l 265 389 l 265 414 l 290 414 l 290 364 l 240 364 m 415 389 l 415 414 l 440 414 l 440 389 l 415 389 m 365 364 l 365 389 l 390 389 l 390 364 l 365 364 m 165 339 l 165 364 l 190 364 l 190 339 l 165 339 m 190 314 l 190 339 l 215 339 l 215 364 l 240 364 l 240 339 l 290 339 l 290 314 l 190 314 m 315 289 l 315 364 l 340 364 l 340 289 l 315 289 m 440 339 l 440 364 l 465 364 l 465 339 l 440 339 m 90 289 l 90 339 l 115 339 l 115 289 l 90 289 m 415 14 l 415 39 l 440 39 l 440 64 l 415 64 l 415 39 l 365 39 l 365 64 l 390 64 l 390 114 l 365 114 l 365 89 l 340 89 l 340 139 l 415 139 l 415 164 l 440 164 l 440 114 l 415 114 l 415 89 l 465 89 l 465 164 l 490 164 l 490 189 l 465 189 l 465 214 l 440 214 l 440 189 l 415 189 l 415 239 l 440 239 l 440 264 l 465 264 l 465 239 l 490 239 l 490 264 l 465 264 l 465 314 l 540 314 l 540 339 l 590 339 l 590 289 l 665 289 l 665 264 l 590 264 l 590 239 l 615 239 l 615 189 l 640 189 l 640 164 l 615 164 l 615 139 l 640 139 l 640 114 l 690 114 l 690 89 l 715 89 l 715 64 l 665 64 l 665 89 l 615 89 l 615 39 l 565 39 l 565 14 l 540 14 l 540 39 l 515 39 l 515 14 l 490 14 l 490 64 l 465 64 l 465 14 l 415 14 m 365 239 l 365 264 l 390 264 l 390 314 l 365 314 l 365 339 l 415 339 l 415 314 l 440 314 l 440 264 l 415 264 l 415 239 l 365 239 m 690 264 l 690 289 l 665 289 l 665 314 l 690 314 l 690 339 l 715 339 l 715 264 l 690 264 m 190 214 l 190 239 l 165 239 l 165 264 l 140 264 l 140 289 l 165 289 l 165 314 l 190 314 l 190 264 l 215 264 l 215 214 l 190 214 m 290 189 l 290 214 l 240 214 l 240 239 l 265 239 l 265 264 l 215 264 l 215 289 l 290 289 l 290 239 l 315 239 l 315 189 l 290 189 m 340 264 l 340 289 l 365 289 l 365 264 l 340 264 m 90 239 l 90 264 l 140 264 l 140 239 l 90 239 m 315 239 l 315 264 l 340 264 l 340 239 l 315 239 m 515 239 l 540 239 l 540 264 l 515 264 l 515 239 m 140 214 l 140 239 l 165 239 l 165 214 l 140 214 m 340 214 l 340 239 l 365 239 l 365 214 l 340 214 m 665 214 l 665 239 l 690 239 l 690 214 l 665 214 m 515 139 l 590 139 l 590 214 l 515 214 l 515 139 m 640 189 l 640 214 l 665 214 l 665 189 l 640 189 m 690 114 l 690 139 l 665 139 l 665 164 l 690 164 l 690 214 l 715 214 l 715 114 l 690 114 m 90 14 l 90 189 l 265 189 l 265 14 l 90 14 m 290 139 l 290 164 l 315 164 l 315 189 l 340 189 l 340 139 l 290 139 m 365 164 l 365 189 l 390 189 l 390 164 l 365 164 m 540 164 l 540 189 l 565 189 l 565 164 l 540 164 m 115 39 l 240 39 l 240 164 l 115 164 l 115 39 m 140 64 l 140 139 l 215 139 l 215 64 l 140 64 m 490 89 l 515 89 l 515 114 l 490 114 l 490 89 m 540 64 l 590 64 l 590 114 l 540 114 l 540 64 m 290 14 l 290 89 l 340 89 l 340 39 l 365 39 l 365 14 l 290 14 m 615 14 l 615 39 l 640 39 l 640 14 l 615 14 m 690 14 l 690 39 l 715 39 l 715 14 l 690 14 z "},"@":{"ha":806,"x_min":40,"x_max":753,"o":"m 447 -64 q 145 64 250 -64 q 40 426 40 192 q 144 790 40 660 q 447 919 249 919 q 675 844 597 919 q 753 626 753 768 l 753 235 l 679 235 l 667 308 q 463 218 576 218 q 313 273 367 218 q 260 417 260 328 q 324 565 260 515 q 492 615 388 615 l 654 615 l 654 626 q 602 777 654 726 q 449 828 550 828 q 221 723 300 828 q 142 428 142 618 q 225 129 142 231 q 451 28 308 28 q 555 42 506 28 q 649 86 604 57 l 683 1 q 447 -64 579 -64 m 479 313 q 573 332 529 313 q 654 390 617 351 l 654 531 l 503 531 q 396 500 431 531 q 361 417 361 469 q 389 341 361 369 q 479 313 417 313 z "},"&":{"ha":806,"x_min":42,"x_max":781,"o":"m 296 -17 q 111 51 181 -17 q 42 232 42 118 q 83 378 42 318 q 204 483 124 439 l 204 485 q 129 597 151 549 q 107 701 107 646 q 171 860 107 801 q 343 919 235 919 q 508 864 447 919 q 569 711 569 808 q 525 578 569 633 q 379 474 481 522 l 361 465 l 361 463 l 547 257 q 597 358 572 301 q 647 488 621 414 l 731 453 q 665 300 696 363 q 606 193 635 238 l 781 0 l 644 0 l 544 110 q 434 15 494 46 q 296 -17 374 -17 m 304 78 q 401 101 357 78 q 488 172 446 124 l 264 418 q 174 341 203 388 q 144 238 144 294 q 188 121 144 164 q 304 78 231 78 m 300 531 l 349 554 q 443 623 414 586 q 472 708 472 660 q 438 796 472 765 q 344 826 404 826 q 244 793 281 826 q 208 700 208 760 q 230 622 208 658 q 300 531 251 585 z "},"¶":{"ha":806,"x_min":58,"x_max":700,"o":"m 367 -167 l 367 367 l 338 367 q 128 433 199 367 q 58 635 58 500 q 338 903 58 903 l 700 903 l 700 -167 l 603 -167 l 603 806 l 464 806 l 464 -167 l 367 -167 z "},"§":{"ha":806,"x_min":90,"x_max":713,"o":"m 399 -181 q 253 -161 321 -181 q 119 -101 185 -142 l 164 -19 q 273 -71 215 -54 q 399 -87 331 -87 q 588 31 588 -87 q 558 99 588 74 q 467 133 529 124 l 290 163 q 140 225 189 179 q 90 350 90 271 q 219 533 90 482 l 219 536 q 115 703 115 585 q 190 863 115 807 q 404 919 265 919 q 683 840 557 919 l 639 758 q 531 810 588 793 q 404 826 474 826 q 215 708 215 826 q 244 641 215 665 q 338 606 274 617 l 514 576 q 664 514 615 560 q 713 389 713 468 q 585 206 713 257 l 585 203 q 688 36 688 154 q 613 -124 688 -68 q 399 -181 538 -181 m 435 239 q 566 280 521 244 q 611 375 611 315 q 583 445 611 419 q 489 481 554 471 l 369 500 q 238 460 285 494 q 192 364 192 425 q 221 294 192 319 q 315 258 250 269 l 435 239 z "},"©":{"ha":806,"x_min":25,"x_max":781,"o":"m 403 25 q 203 78 288 25 q 72 226 118 131 q 25 451 25 322 q 72 677 25 582 q 203 825 118 772 q 403 878 288 878 q 603 825 518 878 q 734 677 688 772 q 781 451 781 582 q 734 226 781 322 q 603 78 688 131 q 403 25 518 25 m 407 221 q 261 281 314 221 q 208 451 208 342 q 261 622 208 561 q 407 682 314 682 q 481 669 447 682 q 546 629 515 657 l 506 568 q 408 607 463 607 q 286 451 286 607 q 408 296 286 296 q 515 344 468 296 l 560 286 q 490 236 526 251 q 407 221 453 221 m 403 97 q 623 192 543 97 q 703 451 703 288 q 623 711 703 617 q 403 806 543 806 q 183 711 264 806 q 103 451 103 617 q 183 192 103 288 q 403 97 264 97 z "},"®":{"ha":806,"x_min":25,"x_max":781,"o":"m 403 25 q 203 78 288 25 q 72 226 118 131 q 25 451 25 322 q 72 677 25 582 q 203 825 118 772 q 403 878 288 878 q 603 825 518 878 q 734 677 688 772 q 781 451 781 582 q 734 226 781 322 q 603 78 688 131 q 403 25 518 25 m 403 97 q 623 192 543 97 q 703 451 703 288 q 623 711 703 617 q 403 806 543 806 q 183 711 264 806 q 103 451 103 617 q 183 192 103 288 q 403 97 264 97 m 253 231 l 253 674 l 425 674 q 533 638 496 674 q 569 536 569 603 q 486 406 569 433 l 588 231 l 499 231 l 406 397 l 329 397 l 329 231 l 253 231 m 329 469 l 414 469 q 476 485 458 469 q 493 536 493 500 q 476 586 493 571 q 414 601 458 601 l 329 601 l 329 469 z "},"℗":{"ha":806,"x_min":25,"x_max":781,"o":"m 403 25 q 203 78 288 25 q 72 226 118 131 q 25 451 25 322 q 72 677 25 582 q 203 825 118 772 q 403 878 288 878 q 603 825 518 878 q 734 677 688 772 q 781 451 781 582 q 734 226 781 322 q 603 78 688 131 q 403 25 518 25 m 403 97 q 623 192 543 97 q 703 451 703 288 q 623 711 703 617 q 403 806 543 806 q 183 711 264 806 q 103 451 103 617 q 183 192 103 288 q 403 97 264 97 m 263 231 l 263 674 l 438 674 q 549 638 510 674 q 588 532 588 601 q 549 426 588 463 q 438 390 510 390 l 339 390 l 339 231 l 263 231 m 339 463 l 431 463 q 493 479 475 463 q 511 532 511 496 q 493 585 511 568 q 431 601 475 601 l 339 601 l 339 463 z "},"™":{"ha":806,"x_min":21,"x_max":735,"o":"m 393 493 l 393 903 l 482 903 l 564 676 l 646 903 l 735 903 l 735 493 l 669 493 l 669 819 l 581 576 l 544 576 l 456 819 l 456 493 l 393 493 m 133 493 l 133 839 l 21 839 l 21 903 l 313 903 l 313 839 l 200 839 l 200 493 l 133 493 z "},"°":{"ha":806,"x_min":181,"x_max":625,"o":"m 403 558 q 289 588 339 558 q 210 667 239 617 q 181 781 181 717 q 210 894 181 844 q 289 974 239 944 q 403 1003 339 1003 q 517 974 467 1003 q 596 894 567 944 q 625 781 625 844 q 596 667 625 717 q 517 588 567 617 q 403 558 467 558 m 403 650 q 495 687 460 650 q 531 781 531 724 q 495 874 531 838 q 403 911 460 911 q 311 874 347 911 q 275 781 275 838 q 311 687 275 724 q 403 650 347 650 z "},"|":{"ha":806,"x_min":353,"x_max":453,"o":"m 353 -347 l 353 1042 l 453 1042 l 453 -347 l 353 -347 z "},"¦":{"ha":806,"x_min":353,"x_max":453,"o":"m 353 556 l 353 1042 l 453 1042 l 453 556 l 353 556 m 353 -347 l 353 139 l 453 139 l 453 -347 l 353 -347 z "},"†":{"ha":806,"x_min":76,"x_max":729,"o":"m 350 -167 l 361 528 l 76 519 l 76 619 l 361 611 l 350 903 l 456 903 l 444 611 l 729 619 l 729 519 l 444 528 l 456 -167 l 350 -167 z "},"ℓ":{"ha":806,"x_min":75,"x_max":710,"o":"m 482 -17 q 295 44 356 -17 q 235 229 235 104 l 235 728 q 296 933 235 863 q 474 1003 357 1003 q 645 938 586 1003 q 704 757 704 874 q 647 552 704 654 q 458 360 590 450 q 99 197 325 269 l 75 285 q 334 392 232 335 q 496 510 436 450 q 580 633 556 571 q 604 757 604 696 q 474 908 604 908 q 369 865 403 908 q 335 728 335 821 l 335 244 q 371 117 335 157 q 486 78 407 78 q 586 93 536 78 q 679 135 636 108 l 710 44 q 602 -1 658 14 q 482 -17 546 -17 z "},"‡":{"ha":806,"x_min":76,"x_max":729,"o":"m 350 -167 l 361 90 l 76 82 l 76 182 l 361 174 l 350 368 l 361 563 l 76 554 l 76 654 l 361 646 l 350 903 l 456 903 l 444 646 l 729 654 l 729 554 l 444 563 l 456 368 l 444 174 l 729 182 l 729 82 l 444 90 l 456 -167 l 350 -167 z "},"℮":{"ha":806,"x_min":39,"x_max":779,"o":"m 414 -17 q 210 47 294 -17 q 83 216 126 110 q 39 451 39 322 q 83 687 39 581 q 209 856 126 793 q 410 919 292 919 q 610 856 528 919 q 735 687 692 793 q 779 451 779 581 l 779 425 l 193 425 q 185 417 185 425 l 185 206 q 186 188 185 197 q 190 172 188 178 q 274 81 218 122 q 415 39 329 39 q 551 78 499 39 q 622 167 604 117 l 713 167 q 600 33 682 82 q 414 -17 518 -17 m 194 481 l 624 481 q 633 489 633 481 l 633 697 q 632 715 633 706 q 628 731 631 725 q 593 783 619 751 q 521 839 567 814 q 408 864 475 864 q 306 844 350 864 q 233 793 263 824 q 190 731 204 763 q 186 715 188 725 q 185 697 185 706 l 185 489 q 194 481 185 481 z "},"№":{"ha":806,"x_min":54,"x_max":796,"o":"m 54 0 l 54 875 l 172 875 l 328 231 l 328 875 l 407 875 l 407 0 l 311 0 l 132 747 l 132 0 l 54 0 m 514 0 l 514 75 l 779 75 l 779 0 l 514 0 m 649 183 q 538 235 576 183 q 500 385 500 288 q 538 534 500 482 q 649 586 576 586 q 759 534 722 586 q 796 385 796 482 q 759 235 796 288 q 649 183 722 183 m 649 258 q 718 385 718 258 q 701 480 718 449 q 649 511 685 511 q 595 480 611 511 q 579 385 579 449 q 595 290 579 321 q 649 258 611 258 z "},"℠":{"ha":806,"x_min":31,"x_max":743,"o":"m 401 493 l 401 903 l 490 903 l 572 676 l 654 903 l 743 903 l 743 493 l 678 493 l 678 819 l 589 576 l 553 576 l 464 819 l 464 493 l 401 493 m 172 494 q 97 507 132 494 q 31 543 61 519 l 63 600 q 174 558 113 558 q 233 575 211 558 q 254 619 254 592 q 200 672 254 660 l 135 688 q 38 797 38 710 q 76 887 38 854 q 179 919 114 919 q 304 881 251 919 l 272 824 q 179 856 233 856 q 104 801 104 856 q 158 749 104 761 l 224 733 q 321 624 321 711 q 281 528 321 563 q 172 494 242 494 z "},"¢":{"ha":806,"x_min":92,"x_max":724,"o":"m 396 -49 l 406 92 q 174 195 257 104 q 92 438 92 286 q 174 680 92 589 q 406 783 257 771 l 396 924 l 501 924 l 492 783 q 600 763 549 779 q 701 719 651 747 l 661 631 q 492 686 581 678 l 492 189 q 588 210 542 194 q 678 254 633 226 l 724 169 q 612 115 668 135 q 492 92 556 96 l 501 -49 l 396 -49 m 406 190 l 406 685 q 250 612 304 675 q 196 438 196 549 q 250 265 196 328 q 406 190 304 201 z "},"¤":{"ha":806,"x_min":54,"x_max":751,"o":"m 129 89 l 54 164 l 204 299 q 163 438 163 360 q 204 576 163 515 l 54 711 l 129 786 l 264 636 q 403 678 325 678 q 542 636 481 678 l 676 786 l 751 711 l 601 576 q 643 438 643 515 q 601 299 643 360 l 751 164 l 676 89 l 542 239 q 403 197 481 197 q 264 239 325 197 l 129 89 m 403 292 q 503 332 465 292 q 542 438 542 372 q 503 543 542 503 q 403 583 465 583 q 302 543 340 583 q 264 438 264 503 q 302 332 264 372 q 403 292 340 292 z "},"$":{"ha":806,"x_min":81,"x_max":715,"o":"m 357 -114 l 368 26 q 210 56 283 31 q 81 129 138 82 l 135 213 q 242 152 183 174 q 369 126 301 131 l 369 399 l 317 406 q 159 474 211 419 q 107 615 107 528 q 176 778 107 717 q 368 847 246 839 l 357 989 l 463 989 l 451 847 q 578 823 518 842 q 690 768 639 804 l 640 682 q 550 727 597 710 q 450 749 503 744 l 450 488 l 506 481 q 664 413 613 467 q 715 271 715 358 q 647 103 715 167 q 451 29 579 40 l 463 -114 l 357 -114 m 450 128 q 570 171 529 135 q 611 267 611 207 q 578 347 611 318 q 475 385 546 376 l 450 388 l 450 128 m 369 499 l 369 750 q 252 710 293 744 q 211 619 211 676 q 243 539 211 568 q 346 501 275 510 l 369 499 z "},"€":{"ha":806,"x_min":63,"x_max":740,"o":"m 508 -17 q 285 58 371 -17 q 169 276 199 133 l 63 276 l 63 365 l 157 365 l 157 510 l 63 510 l 63 599 l 169 599 q 285 817 199 742 q 508 892 371 892 q 620 876 569 892 q 718 825 671 861 l 686 725 q 601 778 643 763 q 508 794 558 794 q 275 599 325 794 l 646 599 l 618 510 l 261 510 l 261 365 l 571 365 l 543 276 l 275 276 q 508 81 325 81 q 601 97 558 81 q 686 150 643 113 l 740 67 q 631 3 688 24 q 508 -17 575 -17 z "},"₹":{"ha":806,"x_min":68,"x_max":749,"o":"m 490 0 l 93 365 l 93 417 l 264 417 q 418 455 369 417 q 476 557 467 493 l 68 557 l 118 646 l 476 646 q 418 749 467 711 q 264 786 369 786 l 68 786 l 118 875 l 749 875 l 699 786 l 507 786 q 582 646 572 736 l 749 646 l 699 557 l 579 557 q 488 390 565 443 q 274 338 410 338 l 643 0 l 490 0 z "},"£":{"ha":806,"x_min":93,"x_max":711,"o":"m 93 0 l 93 106 q 217 207 182 150 q 253 332 253 264 q 251 362 253 347 q 246 390 249 376 l 93 390 l 93 485 l 207 485 q 179 558 192 519 q 167 649 167 597 q 247 826 167 761 q 469 892 326 892 q 594 876 536 892 q 706 828 651 861 l 668 736 q 467 794 578 794 q 322 756 374 794 q 271 644 271 718 q 289 563 271 600 q 325 485 307 526 l 636 485 l 636 390 l 353 390 q 356 367 356 379 q 357 342 357 356 q 326 203 357 264 q 224 94 294 143 l 711 94 l 711 0 l 93 0 z "},"₿":{"ha":806,"x_min":119,"x_max":726,"o":"m 224 -114 l 235 28 l 119 28 l 119 847 l 233 847 l 224 989 l 321 989 l 311 847 l 440 847 l 431 989 l 528 989 l 517 842 q 656 776 611 828 q 701 636 701 724 q 667 513 701 556 q 578 453 632 471 l 578 450 q 683 390 640 433 q 726 254 726 346 q 517 32 726 57 l 528 -114 l 431 -114 l 442 28 l 310 28 l 321 -114 l 224 -114 m 222 124 l 440 124 q 526 133 485 124 q 594 171 567 142 q 621 258 621 200 q 592 347 621 318 q 519 386 564 376 q 422 396 474 396 l 222 396 l 222 124 m 222 490 l 406 490 q 496 499 451 490 q 569 535 540 507 q 597 625 597 564 q 569 711 597 685 q 502 744 542 738 q 424 751 463 751 l 222 751 l 222 490 z "},"¥":{"ha":806,"x_min":57,"x_max":749,"o":"m 347 0 l 347 165 l 89 165 l 89 254 l 347 254 l 347 379 l 89 379 l 89 468 l 335 468 l 57 875 l 181 875 l 403 547 l 625 875 l 749 875 l 471 468 l 708 468 l 708 379 l 450 379 l 450 254 l 708 254 l 708 165 l 450 165 l 450 0 l 347 0 z "},"∙":{"ha":806,"x_min":299,"x_max":507,"o":"m 403 278 q 329 308 360 278 q 299 382 299 339 q 329 455 299 424 q 403 486 360 486 q 476 455 446 486 q 507 382 507 424 q 476 308 507 339 q 403 278 446 278 z "},"∕":{"ha":806,"x_min":7,"x_max":799,"o":"m 7 0 l 685 875 l 799 875 l 121 0 l 7 0 z "},"+":{"ha":806,"x_min":69,"x_max":736,"o":"m 357 49 l 357 336 l 69 336 l 69 428 l 357 428 l 357 715 l 449 715 l 449 428 l 736 428 l 736 336 l 449 336 l 449 49 l 357 49 z "},"−":{"ha":806,"x_min":69,"x_max":736,"o":"m 69 336 l 69 428 l 736 428 l 736 336 l 69 336 z "},"×":{"ha":806,"x_min":107,"x_max":699,"o":"m 172 86 l 107 151 l 338 382 l 107 613 l 172 678 l 403 447 l 633 678 l 699 613 l 468 382 l 699 151 l 633 86 l 403 317 l 172 86 z "},"÷":{"ha":806,"x_min":69,"x_max":736,"o":"m 69 336 l 69 428 l 736 428 l 736 336 l 69 336 m 403 14 q 341 40 367 14 q 315 103 315 65 q 341 163 315 138 q 403 189 367 189 q 465 163 439 189 q 490 103 490 138 q 465 40 490 65 q 403 14 439 14 m 403 575 q 341 601 367 575 q 315 663 315 626 q 341 724 315 699 q 403 750 367 750 q 465 724 439 750 q 490 663 490 699 q 465 601 490 626 q 403 575 439 575 z "},"=":{"ha":806,"x_min":83,"x_max":722,"o":"m 83 482 l 83 574 l 722 574 l 722 482 l 83 482 m 83 190 l 83 282 l 722 282 l 722 190 l 83 190 z "},"≠":{"ha":806,"x_min":83,"x_max":722,"o":"m 142 36 l 235 190 l 83 190 l 83 282 l 289 282 l 410 482 l 83 482 l 83 574 l 465 574 l 558 729 l 664 729 l 571 574 l 722 574 l 722 482 l 515 482 l 394 282 l 722 282 l 722 190 l 340 190 l 247 36 l 142 36 z "},">":{"ha":806,"x_min":125,"x_max":694,"o":"m 125 0 l 125 108 l 583 382 l 125 656 l 125 764 l 694 424 l 694 340 l 125 0 z "},"<":{"ha":806,"x_min":111,"x_max":681,"o":"m 681 0 l 111 340 l 111 424 l 681 764 l 681 656 l 222 382 l 681 108 l 681 0 z "},"≥":{"ha":806,"x_min":117,"x_max":700,"o":"m 117 183 l 117 285 l 568 488 l 117 690 l 117 792 l 700 529 l 700 446 l 117 183 m 117 0 l 117 92 l 700 92 l 700 0 l 117 0 z "},"≤":{"ha":806,"x_min":106,"x_max":689,"o":"m 689 183 l 106 446 l 106 529 l 689 792 l 689 690 l 238 488 l 689 285 l 689 183 m 106 0 l 106 92 l 689 92 l 689 0 l 106 0 z "},"±":{"ha":806,"x_min":83,"x_max":722,"o":"m 357 182 l 357 449 l 83 449 l 83 540 l 357 540 l 357 807 l 449 807 l 449 540 l 722 540 l 722 449 l 449 449 l 449 182 l 357 182 m 83 0 l 83 92 l 722 92 l 722 0 l 83 0 z "},"≈":{"ha":806,"x_min":83,"x_max":722,"o":"m 175 438 l 83 442 q 138 625 90 568 q 261 682 185 682 q 357 656 317 682 q 432 600 397 629 q 489 556 461 575 q 547 538 517 538 q 607 574 588 538 q 631 688 626 611 l 722 683 q 668 500 715 557 q 544 443 621 443 q 449 469 489 443 q 374 525 408 496 q 317 569 344 550 q 258 588 290 588 q 199 551 218 588 q 175 438 179 514 m 175 76 l 83 81 q 138 264 90 207 q 261 321 185 321 q 357 294 317 321 q 432 239 397 268 q 489 195 461 214 q 547 176 517 176 q 607 213 588 176 q 631 326 626 250 l 722 322 q 668 139 715 196 q 544 82 621 82 q 449 108 489 82 q 374 164 408 135 q 317 208 344 189 q 258 226 290 226 q 199 190 218 226 q 175 76 179 153 z "},"~":{"ha":806,"x_min":69,"x_max":736,"o":"m 161 236 l 69 240 q 126 460 76 397 q 256 522 175 522 q 357 488 313 522 q 438 415 401 454 q 496 360 468 385 q 554 336 524 336 q 618 379 596 336 q 644 528 640 422 l 736 524 q 681 305 731 368 q 550 242 632 242 q 449 276 493 242 q 368 349 404 310 q 310 404 338 381 q 251 428 282 428 q 188 385 210 428 q 161 236 165 343 z "},"¬":{"ha":806,"x_min":69,"x_max":708,"o":"m 617 104 l 617 426 l 69 426 l 69 518 l 708 518 l 708 104 l 617 104 z "},"^":{"ha":806,"x_min":69,"x_max":736,"o":"m 69 382 l 358 883 l 447 883 l 736 382 l 631 382 l 403 781 l 175 382 l 69 382 z "},"∅":{"ha":806,"x_min":24,"x_max":782,"o":"m 100 31 l 24 107 l 115 185 q 64 288 82 231 q 46 410 46 346 q 92 598 46 515 q 219 728 139 681 q 403 776 300 776 q 629 699 535 776 l 706 789 l 782 713 l 690 635 q 742 532 724 589 q 760 410 760 475 q 713 222 760 304 q 586 91 667 139 q 403 43 506 43 q 176 121 271 43 l 100 31 m 403 140 q 533 175 476 140 q 623 270 590 210 q 656 410 656 331 q 615 563 656 497 l 246 193 q 317 154 278 168 q 403 140 357 140 m 190 257 l 560 626 q 489 665 529 651 q 403 679 449 679 q 272 644 329 679 q 183 549 215 610 q 150 410 150 489 q 190 257 150 322 z "},"∞":{"ha":806,"x_min":24,"x_max":782,"o":"m 213 183 q 106 214 149 183 q 44 297 64 244 q 24 411 24 349 q 70 572 24 507 q 210 636 117 636 q 315 606 268 636 q 399 510 363 575 l 401 510 q 481 601 433 567 q 593 636 529 636 q 700 606 658 636 q 762 524 742 575 q 782 408 782 472 q 736 248 782 313 q 596 183 690 183 q 490 214 538 183 q 407 310 443 244 l 404 310 q 326 218 374 253 q 213 183 278 183 m 218 275 q 292 311 263 275 q 357 428 322 347 q 301 507 333 469 q 218 544 269 544 q 148 510 175 544 q 121 411 121 476 q 148 311 121 347 q 218 275 175 275 m 588 275 q 658 310 631 275 q 685 408 685 344 q 658 509 685 474 q 588 544 632 544 q 515 508 544 544 q 449 392 485 472 q 504 313 472 350 q 588 275 536 275 z "},"∫":{"ha":806,"x_min":51,"x_max":754,"o":"m 215 -267 q 51 -221 124 -267 l 86 -129 q 214 -168 143 -168 q 319 -126 288 -168 q 351 17 351 -83 l 351 740 q 413 936 351 869 q 590 1003 474 1003 q 754 957 682 1003 l 719 865 q 592 904 663 904 q 486 862 518 904 q 454 719 454 819 l 454 -4 q 393 -200 454 -133 q 215 -267 332 -267 z "},"Ω":{"ha":806,"x_min":50,"x_max":756,"o":"m 50 0 l 50 97 l 257 97 l 257 125 q 64 542 64 301 q 106 742 64 657 q 224 873 147 826 q 403 919 300 919 q 583 873 507 919 q 700 742 658 826 q 742 542 742 657 q 549 125 742 301 l 549 97 l 756 97 l 756 0 l 458 0 l 458 165 q 636 529 636 314 q 574 743 636 665 q 403 821 511 821 q 232 743 294 821 q 169 529 169 665 q 347 165 169 314 l 347 0 l 50 0 z "},"∆":{"ha":806,"x_min":40,"x_max":765,"o":"m 40 0 l 342 903 l 464 903 l 765 0 l 40 0 m 175 97 l 625 97 l 400 782 l 175 97 z "},"∏":{"ha":806,"x_min":104,"x_max":701,"o":"m 104 -250 l 104 903 l 701 903 l 701 -250 l 599 -250 l 599 806 l 207 806 l 207 -250 l 104 -250 z "},"∑":{"ha":806,"x_min":103,"x_max":706,"o":"m 103 -250 l 103 -165 l 435 326 l 103 818 l 103 903 l 706 903 l 706 806 l 232 806 l 554 326 l 232 -153 l 706 -153 l 706 -250 l 103 -250 z "},"√":{"ha":806,"x_min":72,"x_max":756,"o":"m 350 -250 l 193 336 l 72 336 l 72 428 l 269 428 l 413 -103 l 661 986 l 756 986 l 472 -250 l 350 -250 z "},"∂":{"ha":806,"x_min":67,"x_max":733,"o":"m 351 -17 q 201 19 265 -17 q 102 118 138 54 q 67 264 67 182 q 103 413 67 349 q 204 513 139 476 q 356 549 269 549 q 495 522 428 549 q 618 442 563 494 l 621 442 q 623 476 622 458 q 624 513 624 494 q 572 746 624 669 q 421 822 521 822 q 330 803 372 822 q 251 742 288 783 l 178 815 q 289 894 226 868 q 424 919 351 919 q 655 810 576 919 q 733 503 733 701 q 685 228 733 344 q 551 47 638 111 q 351 -17 465 -17 m 350 81 q 510 149 442 81 q 606 342 578 218 q 375 453 514 453 q 226 401 282 453 q 171 263 171 349 q 221 131 171 181 q 350 81 271 81 z "},"µ":{"ha":806,"x_min":119,"x_max":686,"o":"m 119 -292 l 119 653 l 219 653 l 219 244 q 256 117 219 157 q 369 78 292 78 q 483 97 426 78 q 586 151 539 117 l 586 653 l 686 653 l 686 0 l 611 0 l 600 69 q 483 5 544 26 q 353 -17 421 -17 q 200 47 247 -17 l 219 -221 l 219 -292 l 119 -292 z "},"%":{"ha":806,"x_min":21,"x_max":785,"o":"m 99 -6 l 21 61 l 304 369 l 353 326 l 99 -6 m 590 -17 q 455 40 504 -17 q 406 192 406 97 q 455 343 406 286 q 590 400 504 400 q 726 343 676 400 q 775 192 775 286 q 726 40 775 97 q 590 -17 676 -17 m 590 61 q 660 95 636 61 q 685 192 685 129 q 660 288 685 254 q 590 322 636 322 q 520 288 544 322 q 496 192 496 254 q 520 95 496 129 q 590 61 544 61 m 501 506 l 453 549 l 707 881 l 785 814 l 501 506 m 215 475 q 80 532 129 475 q 31 683 31 589 q 80 835 31 778 q 215 892 129 892 q 351 835 301 892 q 400 683 400 778 q 351 532 400 589 q 215 475 301 475 m 215 553 q 285 587 261 553 q 310 683 310 621 q 285 780 310 746 q 215 814 261 814 q 145 780 169 814 q 121 683 121 746 q 145 587 121 621 q 215 553 169 553 z "},"‰":{"ha":806,"x_min":57,"x_max":765,"o":"m 71 358 l 57 413 l 731 617 l 751 529 l 71 358 m 229 -17 q 112 32 156 -17 q 68 160 68 81 q 112 288 68 239 q 229 336 156 336 q 347 288 303 336 q 390 160 390 239 q 347 32 390 81 q 229 -17 303 -17 m 229 50 q 289 79 268 50 q 310 160 310 108 q 289 240 310 211 q 229 269 268 269 q 169 240 190 269 q 149 160 149 211 q 169 79 149 108 q 229 50 190 50 m 604 -17 q 487 32 531 -17 q 443 160 443 81 q 487 288 443 239 q 604 336 531 336 q 722 288 678 336 q 765 160 765 239 q 722 32 765 81 q 604 -17 678 -17 m 604 50 q 664 79 643 50 q 685 160 685 108 q 664 240 685 211 q 604 269 643 269 q 544 240 565 269 q 524 160 524 211 q 544 79 524 108 q 604 50 565 50 m 229 539 q 112 588 156 539 q 68 715 68 636 q 112 843 68 794 q 229 892 156 892 q 347 843 303 892 q 390 715 390 794 q 347 588 390 636 q 229 539 303 539 m 229 606 q 289 635 268 606 q 310 715 310 664 q 289 796 310 767 q 229 825 268 825 q 169 796 190 825 q 149 715 149 767 q 169 635 149 664 q 229 606 190 606 z "},"↑":{"ha":806,"x_min":83,"x_max":722,"o":"m 363 14 l 363 610 l 140 388 l 83 444 l 403 764 l 722 444 l 665 388 l 443 610 l 443 14 l 363 14 z "},"↗":{"ha":806,"x_min":99,"x_max":657,"o":"m 156 96 l 99 153 l 519 574 l 206 574 l 206 654 l 657 654 l 657 203 l 576 203 l 576 517 l 156 96 z "},"→":{"ha":806,"x_min":31,"x_max":781,"o":"m 461 69 l 404 126 l 626 349 l 31 349 l 31 429 l 626 429 l 404 651 l 461 708 l 781 389 l 461 69 z "},"↘":{"ha":806,"x_min":99,"x_max":657,"o":"m 206 96 l 206 176 l 519 176 l 99 597 l 156 654 l 576 233 l 576 547 l 657 547 l 657 96 l 206 96 z "},"↓":{"ha":806,"x_min":83,"x_max":722,"o":"m 403 14 l 83 333 l 140 390 l 363 168 l 363 764 l 443 764 l 443 168 l 665 390 l 722 333 l 403 14 z "},"↙":{"ha":806,"x_min":149,"x_max":707,"o":"m 149 96 l 149 547 l 229 547 l 229 233 l 650 654 l 707 597 l 286 176 l 600 176 l 600 96 l 149 96 z "},"←":{"ha":806,"x_min":25,"x_max":775,"o":"m 344 69 l 25 389 l 344 708 l 401 651 l 179 429 l 775 429 l 775 349 l 179 349 l 401 126 l 344 69 z "},"↖":{"ha":806,"x_min":149,"x_max":707,"o":"m 650 96 l 229 517 l 229 203 l 149 203 l 149 654 l 600 654 l 600 574 l 286 574 l 707 153 l 650 96 z "},"↔":{"ha":806,"x_min":28,"x_max":778,"o":"m 240 103 l 28 406 l 240 708 l 306 661 l 154 446 l 651 446 l 500 661 l 565 708 l 778 406 l 565 103 l 500 150 l 651 365 l 154 365 l 306 150 l 240 103 z "},"↕":{"ha":806,"x_min":100,"x_max":706,"o":"m 403 17 l 100 229 l 147 294 l 363 143 l 363 668 l 147 517 l 100 582 l 403 794 l 706 582 l 658 517 l 443 668 l 443 143 l 658 294 l 706 229 l 403 17 z "},"◊":{"ha":806,"x_min":96,"x_max":710,"o":"m 358 -14 l 96 438 l 358 889 l 447 889 l 710 438 l 447 -14 l 358 -14 m 403 85 l 606 438 l 403 790 l 200 438 l 403 85 z "},"̈":{"ha":0,"x_min":161,"x_max":644,"o":"m 253 815 q 188 842 214 815 q 161 907 161 868 q 188 972 161 946 q 253 999 214 999 q 318 972 292 999 q 344 907 344 946 q 318 842 344 868 q 253 815 292 815 m 553 815 q 488 842 514 815 q 461 907 461 868 q 488 972 461 946 q 553 999 514 999 q 618 972 592 999 q 644 907 644 946 q 618 842 644 868 q 553 815 592 815 z "},"̇":{"ha":0,"x_min":307,"x_max":499,"o":"m 403 811 q 335 840 364 811 q 307 907 307 868 q 335 975 307 947 q 403 1003 364 1003 q 471 975 443 1003 q 499 907 499 947 q 471 840 499 868 q 403 811 443 811 z "},"̀":{"ha":0,"x_min":228,"x_max":510,"o":"m 451 769 l 228 974 l 310 1046 l 510 819 l 451 769 z "},"́":{"ha":0,"x_min":296,"x_max":578,"o":"m 354 769 l 296 819 l 496 1046 l 578 974 l 354 769 z "},"̋":{"ha":0,"x_min":153,"x_max":724,"o":"m 500 769 l 442 819 l 642 1046 l 724 974 l 500 769 m 211 769 l 153 819 l 353 1046 l 435 974 l 211 769 z "},"̂":{"ha":0,"x_min":169,"x_max":636,"o":"m 228 769 l 169 819 l 383 1046 l 422 1046 l 636 819 l 578 769 l 403 929 l 228 769 z "},"̌":{"ha":0,"x_min":169,"x_max":636,"o":"m 383 769 l 169 996 l 228 1046 l 403 886 l 578 1046 l 636 996 l 422 769 l 383 769 z "},"̆":{"ha":0,"x_min":188,"x_max":618,"o":"m 403 797 q 287 826 331 797 q 221 903 243 854 q 188 1017 199 953 l 271 1017 q 315 922 282 953 q 403 890 347 890 q 492 922 458 890 q 535 1017 525 953 l 618 1017 q 585 903 607 953 q 519 826 563 854 q 403 797 476 797 z "},"̊":{"ha":0,"x_min":247,"x_max":558,"o":"m 403 750 q 292 795 338 750 q 247 907 247 840 q 292 1019 247 974 q 403 1064 338 1064 q 513 1019 468 1064 q 558 907 558 974 q 513 795 558 840 q 403 750 468 750 m 403 829 q 454 851 435 829 q 474 907 474 872 q 454 963 474 942 q 403 985 435 985 q 352 963 372 985 q 332 907 332 942 q 352 851 332 872 q 403 829 372 829 z "},"̃":{"ha":0,"x_min":172,"x_max":633,"o":"m 247 800 l 172 814 q 224 949 189 901 q 318 997 260 997 q 383 979 357 997 q 431 942 410 961 q 461 917 446 928 q 492 906 476 906 q 529 928 511 906 q 558 1011 547 951 l 633 997 q 581 862 617 910 q 488 814 546 814 q 422 832 449 814 q 375 869 396 850 q 344 895 360 885 q 314 906 329 906 q 276 883 294 906 q 247 800 258 861 z "},"̄":{"ha":0,"x_min":215,"x_max":590,"o":"m 215 861 l 215 953 l 590 953 l 590 861 l 215 861 z "},"̒":{"ha":0,"x_min":301,"x_max":506,"o":"m 411 921 q 467 900 447 921 q 488 847 488 879 q 463 792 488 815 q 397 769 438 769 q 331 794 361 769 q 301 874 301 818 q 321 952 301 913 q 384 1018 340 992 q 503 1046 428 1044 l 506 992 q 415 972 443 990 q 379 915 388 953 q 411 921 394 921 z "},"̦":{"ha":0,"x_min":301,"x_max":506,"o":"m 304 -407 l 301 -353 q 392 -332 364 -350 q 428 -276 419 -314 q 396 -282 413 -282 q 340 -260 360 -282 q 319 -208 319 -239 q 345 -153 319 -176 q 410 -131 371 -131 q 476 -155 446 -131 q 506 -235 506 -179 q 487 -312 506 -274 q 424 -378 468 -351 q 304 -407 379 -406 z "},"̧":{"ha":0,"x_min":243,"x_max":549,"o":"m 385 -308 q 307 -300 342 -308 q 243 -279 272 -292 l 263 -210 q 319 -228 288 -221 q 386 -236 351 -236 q 445 -224 428 -236 q 463 -190 463 -212 q 447 -162 463 -171 q 394 -154 432 -154 l 321 -154 l 375 0 l 443 0 l 408 -97 l 419 -97 q 549 -193 549 -97 q 506 -280 549 -251 q 385 -308 464 -308 z "},"̨":{"ha":0,"x_min":286,"x_max":519,"o":"m 424 -308 q 324 -275 361 -308 q 286 -183 286 -242 q 318 -83 286 -132 q 415 22 350 -35 l 475 0 q 394 -90 418 -51 q 369 -161 369 -129 q 386 -206 369 -190 q 431 -221 403 -221 q 467 -215 450 -221 q 497 -200 485 -208 l 519 -282 q 479 -300 503 -292 q 424 -308 456 -308 z "},"̵":{"ha":0,"x_min":135,"x_max":671,"o":"m 135 339 l 135 425 l 671 425 l 671 339 l 135 339 z "},"̶":{"ha":0,"x_min":42,"x_max":764,"o":"m 42 338 l 42 426 l 764 426 l 764 338 l 42 338 z "},"̷":{"ha":0,"x_min":60,"x_max":746,"o":"m 121 -17 l 60 44 l 685 669 l 746 608 l 121 -17 z "},"̸":{"ha":0,"x_min":28,"x_max":778,"o":"m 97 -44 l 28 7 l 708 947 l 778 896 l 97 -44 z "},"¨":{"ha":806,"x_min":161,"x_max":644,"o":"m 253 815 q 188 842 214 815 q 161 907 161 868 q 188 972 161 946 q 253 999 214 999 q 318 972 292 999 q 344 907 344 946 q 318 842 344 868 q 253 815 292 815 m 553 815 q 488 842 514 815 q 461 907 461 868 q 488 972 461 946 q 553 999 514 999 q 618 972 592 999 q 644 907 644 946 q 618 842 644 868 q 553 815 592 815 z "},"˙":{"ha":806,"x_min":307,"x_max":499,"o":"m 403 811 q 335 840 364 811 q 307 907 307 868 q 335 975 307 947 q 403 1003 364 1003 q 471 975 443 1003 q 499 907 499 947 q 471 840 499 868 q 403 811 443 811 z "},"`":{"ha":806,"x_min":228,"x_max":510,"o":"m 451 769 l 228 974 l 310 1046 l 510 819 l 451 769 z "},"´":{"ha":806,"x_min":296,"x_max":578,"o":"m 354 769 l 296 819 l 496 1046 l 578 974 l 354 769 z "},"˝":{"ha":806,"x_min":153,"x_max":724,"o":"m 500 769 l 442 819 l 642 1046 l 724 974 l 500 769 m 211 769 l 153 819 l 353 1046 l 435 974 l 211 769 z "},"ˆ":{"ha":806,"x_min":169,"x_max":636,"o":"m 228 769 l 169 819 l 383 1046 l 422 1046 l 636 819 l 578 769 l 403 929 l 228 769 z "},"ˉ":{"ha":806,"x_min":215,"x_max":590,"o":"m 215 861 l 215 953 l 590 953 l 590 861 l 215 861 z "},"ˇ":{"ha":806,"x_min":169,"x_max":636,"o":"m 383 769 l 169 996 l 228 1046 l 403 886 l 578 1046 l 636 996 l 422 769 l 383 769 z "},"˘":{"ha":806,"x_min":188,"x_max":618,"o":"m 403 797 q 287 826 331 797 q 221 903 243 854 q 188 1017 199 953 l 271 1017 q 315 922 282 953 q 403 890 347 890 q 492 922 458 890 q 535 1017 525 953 l 618 1017 q 585 903 607 953 q 519 826 563 854 q 403 797 476 797 z "},"˚":{"ha":806,"x_min":247,"x_max":558,"o":"m 403 750 q 292 795 338 750 q 247 907 247 840 q 292 1019 247 974 q 403 1064 338 1064 q 513 1019 468 1064 q 558 907 558 974 q 513 795 558 840 q 403 750 468 750 m 403 829 q 454 851 435 829 q 474 907 474 872 q 454 963 474 942 q 403 985 435 985 q 352 963 372 985 q 332 907 332 942 q 352 851 332 872 q 403 829 372 829 z "},"˜":{"ha":806,"x_min":172,"x_max":633,"o":"m 247 800 l 172 814 q 224 949 189 901 q 318 997 260 997 q 383 979 357 997 q 431 942 410 961 q 461 917 446 928 q 492 906 476 906 q 529 928 511 906 q 558 1011 547 951 l 633 997 q 581 862 617 910 q 488 814 546 814 q 422 832 449 814 q 375 869 396 850 q 344 895 360 885 q 314 906 329 906 q 276 883 294 906 q 247 800 258 861 z "},"¯":{"ha":806,"x_min":215,"x_max":590,"o":"m 215 861 l 215 953 l 590 953 l 590 861 l 215 861 z "},"¸":{"ha":806,"x_min":243,"x_max":549,"o":"m 385 -308 q 307 -300 342 -308 q 243 -279 272 -292 l 263 -210 q 319 -228 288 -221 q 386 -236 351 -236 q 445 -224 428 -236 q 463 -190 463 -212 q 447 -162 463 -171 q 394 -154 432 -154 l 321 -154 l 375 0 l 443 0 l 408 -97 l 419 -97 q 549 -193 549 -97 q 506 -280 549 -251 q 385 -308 464 -308 z "},"˛":{"ha":806,"x_min":286,"x_max":519,"o":"m 424 -308 q 324 -275 361 -308 q 286 -183 286 -242 q 318 -83 286 -132 q 415 22 350 -35 l 475 0 q 394 -90 418 -51 q 369 -161 369 -129 q 386 -206 369 -190 q 431 -221 403 -221 q 467 -215 450 -221 q 497 -200 485 -208 l 519 -282 q 479 -300 503 -292 q 424 -308 456 -308 z "},"ʼ":{"ha":806,"x_min":301,"x_max":506,"o":"m 304 726 l 301 781 q 392 801 364 783 q 428 857 419 819 q 396 851 413 851 q 340 873 360 851 q 319 925 319 894 q 345 980 319 957 q 410 1003 371 1003 q 476 978 446 1003 q 506 899 506 954 q 487 821 506 860 q 424 755 468 782 q 304 726 379 728 z "},"":{"ha":806,"x_min":0,"x_max":0,"o":""},"":{"ha":806,"x_min":0,"x_max":0,"o":""},"":{"ha":806,"x_min":0,"x_max":0,"o":""}}}
